<svg width="118" height="53" viewBox="0 0 118 53" fill="none" xmlns="http://www.w3.org/2000/svg">
<rect x="4.28198" y="0.506493" width="114" height="42" rx="10" transform="rotate(5.09777 4.28198 0.506493)" fill="#5EC7B9"/>
<path d="M56.1872 20.0121L55.7632 24.7647L57.5199 24.9214L57.3924 26.3513L55.6357 26.1946L55.0841 32.3771L53.3411 32.2216L54.4441 19.8566L56.1872 20.0121ZM45.4802 28.0201C48.546 26.8112 50.3018 24.9776 50.8753 22.2423L46.7423 21.8736L46.8686 20.4574L52.7651 20.9834C52.4211 24.6862 50.6915 27.7644 46.3416 29.4422L45.4802 28.0201ZM67.9601 21.0624L67.7037 23.9357L69.4604 24.0924L69.3317 25.5359L67.575 25.3792L67.3697 27.6806L69.1264 27.8373L68.9976 29.2808L67.2409 29.1241L66.857 33.4273L65.0867 33.2694L66.1897 20.9044L67.9601 21.0624ZM57.1711 28.9121C59.2729 28.2005 60.4212 26.1754 60.6007 24.3178L60.6432 23.8412L58.083 23.6128L58.207 22.2238L60.7535 22.4509L60.909 20.7079L62.6521 20.8634L62.4966 22.6064L65.0159 22.8312L64.8919 24.2202L62.359 23.9942L62.3165 24.4709C62.1592 26.2344 62.8942 28.304 64.7856 29.4129L63.7021 30.634C62.4278 29.9164 61.6125 28.67 61.2183 27.2417C60.5474 28.6848 59.462 29.8508 58.004 30.3453L57.1711 28.9121ZM83.5309 29.9322L83.4046 31.3484L78.5975 30.9196L78.2792 34.4875L76.5634 34.3344L76.8817 30.7665L72.1018 30.3401L72.2282 28.9239L83.5309 29.9322ZM72.9811 26.9458C75.5804 26.8895 77.0843 25.802 77.3938 24.7178L73.6625 24.3849L73.784 23.0231L77.5425 23.3584L77.6689 21.9422L79.3847 22.0953L79.2584 23.5115L83.0305 23.848L82.909 25.2098L79.1914 24.8781C79.2848 25.9846 80.5713 27.3347 83.1128 27.8497L82.3649 29.1556C80.2822 28.7296 78.8409 27.7294 78.1377 26.5342C77.226 27.599 75.6249 28.3141 73.4861 28.3635L72.9811 26.9458ZM94.4407 23.4246L94.0167 28.1773L95.7734 28.334L95.6459 29.7638L93.8892 29.6071L93.3376 35.7896L91.5946 35.6341L92.6976 23.2692L94.4407 23.4246ZM83.7337 31.4327C86.7995 30.2238 88.5553 28.3901 89.1287 25.6548L84.9957 25.2861L85.1221 23.8699L91.0186 24.3959C90.6745 28.0987 88.945 31.1769 84.5951 32.8547L83.7337 31.4327Z" fill="white"/>
<path d="M35.2115 25.184L31.0614 24.8138L30.6911 28.964C30.6715 29.1841 30.5652 29.3874 30.3957 29.5292C30.2261 29.671 30.0072 29.7396 29.787 29.72C29.5669 29.7003 29.3636 29.594 29.2218 29.4245C29.08 29.2549 29.0114 29.036 29.031 28.8159L29.4013 24.6657L25.2511 24.2955C25.031 24.2758 24.8276 24.1695 24.6859 24C24.5441 23.8304 24.4755 23.6115 24.4951 23.3914C24.5147 23.1712 24.621 22.9679 24.7906 22.8261C24.9601 22.6844 25.179 22.6158 25.3992 22.6354L29.5494 23.0056L29.9196 18.8554C29.9392 18.6353 30.0455 18.432 30.2151 18.2902C30.3846 18.1484 30.6035 18.0798 30.8237 18.0994C31.0438 18.1191 31.2471 18.2254 31.3889 18.3949C31.5307 18.5645 31.5993 18.7834 31.5797 19.0035L31.2094 23.1537L35.3596 23.5239C35.5798 23.5436 35.7831 23.6499 35.9249 23.8194C36.0666 23.989 36.1353 24.2079 36.1156 24.428C36.096 24.6482 35.9897 24.8515 35.8202 24.9933C35.6506 25.135 35.4317 25.2037 35.2115 25.184Z" fill="white"/>
</svg>
