<svg width="265" height="265" viewBox="0 0 265 265" fill="none" xmlns="http://www.w3.org/2000/svg">
    <path d="M124.994 52.2801L151.992 54.4239C188.608 57.3291 216.183 89.6643 213.271 126.274L211.748 145.446C211.748 145.446 210.327 163.351 210.321 163.358C208.548 185.723 195.18 206.053 175.484 216.765C126.299 243.514 45.2084 213.553 50.1998 150.649L51.6268 132.737L53.1498 113.565C56.0551 76.9491 88.3839 49.3685 124.994 52.2801Z" fill="#77DBCE"/>
    <path d="M125.992 39.6097C170.665 39.6673 218.422 61.4438 214.276 113.661L212.753 132.833L212.017 142.093C205.47 149.267 176.098 178.14 130.779 174.543C84.4995 170.87 57.2261 135.227 52.0171 127.804L52.6251 120.131L54.1481 100.959C57.1301 63.3955 89.1517 39.7697 125.243 39.6161C125.493 39.6097 125.742 39.6161 125.998 39.6161L125.992 39.6097Z" fill="#E4F4F1"/>
    <path d="M127.944 47.3975C166.889 47.4487 208.516 66.4352 204.901 111.953L203.57 128.667L202.93 136.743C197.215 142.995 171.618 168.17 132.11 165.034C91.769 161.835 67.9895 130.76 63.4461 124.284L63.9772 117.597L65.3083 100.882C67.9064 68.1309 95.8197 47.5383 127.291 47.4103C127.509 47.4103 127.726 47.4103 127.944 47.4103L127.944 47.3975Z" fill="#D1EDE7"/>
    <path d="M126.869 55.3198C126.696 57.5403 131.342 59.7161 137.267 60.1896C143.186 60.6568 148.12 59.2425 148.299 57.0284C148.479 54.8143 143.82 52.6257 137.901 52.1586C131.981 51.6915 127.048 53.1057 126.869 55.3198Z" fill="#AFD9D0"/>
</svg>
