<svg width="211" height="254" viewBox="0 0 211 254" fill="none" xmlns="http://www.w3.org/2000/svg">
<g clip-path="url(#clip0_144_5815)">
<path d="M81.2526 61.184L105.905 49.9699C139.339 34.759 179.132 49.6717 194.335 83.1031L202.297 100.61C202.297 100.61 209.735 116.958 209.733 116.967C219.025 137.388 217.19 161.65 205.156 180.568C175.106 227.808 89.6574 240.917 63.5264 183.48L56.0909 167.122L48.1282 149.616C32.9172 116.182 47.8213 76.3862 81.2526 61.184Z" fill="#FC9A7B"/>
<path d="M75.983 49.6181C115.083 28.0106 167.41 23.9036 189.098 71.5844L197.061 89.091L200.907 97.5465C198.659 106.994 186.967 146.487 145.587 165.313C103.329 184.537 62.195 166.585 54.0404 162.618L50.8523 155.613L42.8896 138.106C27.2866 103.807 43.8394 67.6185 75.3313 49.9867C75.5465 49.8601 75.7678 49.7447 75.9917 49.6206L75.983 49.6181Z" fill="#FEEFDD"/>
<path d="M81.4658 55.4832C115.553 36.6468 161.166 33.0716 180.071 74.635L187.01 89.8994L190.366 97.2729C188.399 105.511 178.216 139.939 142.141 156.351C105.307 173.11 69.4436 157.46 62.3302 153.999L59.5528 147.892L52.6134 132.628C39.0077 102.724 53.4377 71.1804 80.9011 55.8108C81.0914 55.7054 81.2817 55.5999 81.472 55.4944L81.4658 55.4832Z" fill="#FEE0BE"/>
<path d="M84.3661 62.9337C85.2915 64.9596 90.4096 64.6102 95.8219 62.1515C101.225 59.6904 104.855 56.0615 103.938 54.0381C103.022 52.0148 97.8861 52.3592 92.4825 54.8203C87.0789 57.2815 83.4493 60.9103 84.3661 62.9337Z" fill="#F8CE9C"/>
<rect x="57" y="111.933" width="114" height="42" rx="10" transform="rotate(-24.864 57 111.933)" fill="white" fill-opacity="0.79"/>
<path d="M83.7411 116.609C84.6376 116.186 85.5805 116.156 86.3759 116.458L88.9374 115.271L88.2476 113.782L89.823 113.052L92.887 119.664L91.3116 120.394L90.685 119.042L88.111 120.235C87.8244 121.031 87.1952 121.721 86.2992 122.129C84.5903 122.929 82.7474 122.366 82.0211 120.766C81.2614 119.16 82.0264 117.396 83.7411 116.609ZM83.5221 120.071C83.9183 120.942 84.8005 121.204 85.6784 120.789C86.531 120.402 86.8954 119.562 86.4992 118.691C86.0762 117.795 85.2145 117.561 84.3677 117.961C83.4841 118.363 83.0991 119.174 83.5221 120.071ZM86.2847 125.707C85.6351 124.305 86.7476 122.788 89.1384 121.687C91.5234 120.575 93.4066 120.704 94.0624 122.103C94.7058 123.507 93.5871 125.028 91.1963 126.128C88.8113 127.241 86.9343 127.109 86.2847 125.707ZM87.8353 124.989C88.14 125.646 89.1325 125.593 90.6272 124.9C92.153 124.193 92.8103 123.482 92.5118 122.821C92.1923 122.148 91.2246 122.19 89.696 122.891C88.2041 123.589 87.522 124.312 87.8353 124.989ZM87.6325 117.397C87.7741 117.573 87.8995 117.779 88.0001 117.996C88.1007 118.213 88.1708 118.429 88.2193 118.647L90.0986 117.777L89.518 116.524L87.6325 117.397ZM100.063 108.307L102.19 112.896L103.666 112.212L104.276 113.527L102.8 114.211L105.294 119.595L103.694 120.336L98.4631 109.048L100.063 108.307ZM94.65 120.655C95.475 120.273 96.4363 119.827 97.4296 119.337L96.9812 118.369C95.6749 118.688 94.5399 118.288 94.0604 117.237C93.4707 115.98 94.2124 114.589 95.856 113.828C97.4686 113.08 99.0217 113.408 99.6176 114.661C100.091 115.715 99.6535 116.852 98.569 117.633L98.9915 118.545C99.8616 118.082 100.726 117.59 101.509 117.085L102.143 118.192C99.9497 119.751 97.3658 120.971 95.4588 121.847L94.65 120.655ZM92.275 114.945L91.7001 113.704L94.2679 112.514L93.716 111.323L95.3038 110.588L95.8557 111.778L98.3986 110.6L98.9735 111.84L92.275 114.945ZM95.5613 116.541C95.831 117.139 96.4891 117.226 97.2644 116.867C98.0149 116.519 98.3678 115.964 98.0919 115.368C97.8217 114.785 97.1669 114.689 96.4136 115.031C95.6412 115.396 95.2849 115.961 95.5613 116.541ZM111.225 104.264L111.823 105.554L107.642 107.492L108.505 109.352L112.214 107.634L112.788 108.874L109.08 110.593L110.068 112.726C111.793 111.912 113.138 111.206 114.608 110.231L115.349 111.44C113.696 112.522 112.1 113.322 110.059 114.268L109.092 114.716L105.482 106.926L111.225 104.264ZM117.551 113.915L112.32 102.627L113.92 101.885L119.151 113.174L117.551 113.915ZM124.922 96.8015L128.412 104.331L126.911 105.027L123.421 97.4971L124.922 96.8015ZM117.971 107.587C119.047 106.396 119.617 105.302 119.793 104.234L117.46 105.639L116.682 104.448L119.801 102.821C119.756 102.496 119.68 102.169 119.567 101.845L116.671 103.187L116.084 101.922L120.538 99.8582C120.917 100.677 121.181 101.474 121.31 102.258L122.532 101.691L121.17 98.7515L122.658 98.0617L125.607 104.425L124.119 105.115L123.119 102.957L121.394 103.756C121.297 105.285 120.634 106.798 119.233 108.359L117.971 107.587ZM121.121 110.709C123.421 109.251 124.076 107.38 123.507 106.137L123.398 105.901L124.961 105.177L125.07 105.412C125.639 106.656 127.49 107.365 130.064 106.564L130.038 108.068C128.088 108.64 126.39 108.455 125.183 107.704C124.976 109.11 124.019 110.526 122.335 111.638L121.121 110.709ZM137.514 90.9665L138.985 94.1421L140.511 93.435L141.115 94.7375L139.589 95.4446L141.365 99.2776L139.777 100.013L135.926 91.7023L137.514 90.9665ZM131.91 101.474L129.26 95.7556L130.836 95.0256L131.594 96.663L133.902 95.5938L133.143 93.9563L134.731 93.2205L137.381 98.9391L131.91 101.474ZM135.328 105.435L133.65 101.813L135.225 101.083L136.317 103.44L142.47 100.589L143.056 101.854L135.328 105.435ZM132.911 99.5036L135.218 98.4344L134.465 96.8094L132.158 97.8786L132.911 99.5036ZM148.889 85.6797L151.994 92.3782L150.443 93.0968L147.339 86.3983L148.889 85.6797ZM142.508 96.0358L140.105 90.8507L143.181 89.425L143.767 90.6903L142.18 91.4261L143.398 94.0559C143.926 93.781 144.422 93.4837 144.956 93.0928L145.667 94.3006C144.788 94.9413 144.055 95.311 143.103 95.7598L142.508 96.0358ZM145.306 98.4005C144.65 97.0169 145.772 95.5027 148.228 94.3645C150.647 93.2435 152.539 93.3609 153.183 94.7502C153.83 96.1457 152.682 97.6347 150.263 98.7557C147.807 99.8939 145.941 99.8018 145.306 98.4005ZM146.882 97.6704C147.181 98.3155 148.161 98.2681 149.699 97.54C151.206 96.8569 151.888 96.1339 151.595 95.486C151.282 94.8252 150.301 94.9031 148.803 95.6049C147.255 96.3144 146.574 97.0068 146.882 97.6704ZM146.076 94.3067L143.702 89.1836L146.902 87.7004L147.489 88.9657L145.802 89.7475L147.009 92.3525C147.71 92.0124 148.252 91.7012 148.84 91.263L149.55 92.4708C148.681 93.0995 147.934 93.4535 146.709 94.0135L146.076 94.3067Z" fill="#F77A52"/>
</g>
<defs>
<clipPath id="clip0_144_5815">
<rect width="204" height="204" fill="white" transform="translate(0.669678 197) rotate(-74)"/>
</clipPath>
</defs>
</svg>
