<svg width="360" height="360" viewBox="0 0 360 360" fill="none" xmlns="http://www.w3.org/2000/svg">
<g clip-path="url(#clip0_144_6465)">
<path d="M151.646 26.9022L203.57 26.4852C273.991 25.9155 332.061 83.0671 332.617 153.477L332.912 190.35C332.912 190.35 333.19 224.785 333.179 224.799C333.531 267.812 311.396 308.876 275.565 332.627C186.094 391.935 26.2069 348.261 25.229 227.282L24.9616 192.833L24.6669 155.96C24.0972 85.5389 81.2355 27.4586 151.646 26.9022Z" fill="#77DBCE"/>
<path d="M151.435 2.53514C236.769 -4.81972 331.623 28.7925 332.428 129.219L332.723 166.092L332.865 183.901C321.56 198.696 270.284 258.751 183.125 259.455C94.1197 260.172 36.0721 196.652 24.8828 183.344L24.7618 168.588L24.467 131.715C23.8858 59.4723 81.0982 8.99671 150.006 2.67246C150.482 2.61853 150.96 2.58907 151.449 2.54629L151.435 2.53514Z" fill="#E4F4F1"/>
<path d="M156.464 17.0835C230.858 10.6735 313.537 39.9812 314.237 127.523L314.488 159.67L314.615 175.201C304.745 188.097 260.063 240.457 184.078 241.07C106.494 241.7 55.8837 186.322 46.1237 174.712L46.0207 161.851L45.7699 129.704C45.2594 66.7161 95.132 22.7204 155.22 17.2171C155.635 17.1807 156.051 17.1443 156.467 17.108L156.464 17.0835Z" fill="#D1EDE7"/>
<path d="M155.735 32.3946C155.776 36.6646 165.013 40.0439 176.41 39.9581C187.794 39.8612 196.981 36.3357 196.953 32.0768C196.925 27.818 187.662 24.4164 176.278 24.5133C164.894 24.6102 155.707 28.1357 155.735 32.3946Z" fill="#AFD9D0"/>
<rect x="67" y="92" width="226" height="83" rx="18" fill="white" fill-opacity="0.79"/>
<path d="M95.222 123.119C98.8871 123.119 101.537 126.428 101.55 131.662C101.537 136.936 98.8871 140.231 95.222 140.231C91.5438 140.231 88.8807 136.936 88.8939 131.662C88.8807 126.428 91.5438 123.119 95.222 123.119ZM92.1371 131.662C92.1371 135.235 93.3895 137.186 95.222 137.173C97.0941 137.186 98.3202 135.235 98.3334 131.662C98.3202 128.103 97.0941 126.151 95.222 126.151C93.3895 126.151 92.1371 128.103 92.1371 131.662ZM104.319 145.426V121.432H107.694V130.476H111.227V133.271H107.694V145.426H104.319ZM118.017 123.119C121.682 123.119 124.332 126.428 124.345 131.662C124.332 136.936 121.682 140.231 118.017 140.231C114.339 140.231 111.676 136.936 111.689 131.662C111.676 126.428 114.339 123.119 118.017 123.119ZM114.932 131.662C114.932 135.235 116.184 137.186 118.017 137.173C119.889 137.186 121.115 135.235 121.128 131.662C121.115 128.103 119.889 126.151 118.017 126.151C116.184 126.151 114.932 128.103 114.932 131.662ZM127.114 145.426V121.432H130.489V130.476H134.022V133.271H130.489V145.426H127.114ZM140.812 123.119C144.477 123.119 147.127 126.428 147.14 131.662C147.127 136.936 144.477 140.231 140.812 140.231C137.134 140.231 134.471 136.936 134.484 131.662C134.471 126.428 137.134 123.119 140.812 123.119ZM137.727 131.662C137.727 135.235 138.979 137.186 140.812 137.173C142.684 137.186 143.91 135.235 143.923 131.662C143.91 128.103 142.684 126.151 140.812 126.151C138.979 126.151 137.727 128.103 137.727 131.662ZM149.909 145.426V121.432H153.284V130.476H156.817V133.271H153.284V145.426H149.909ZM163.607 123.119C167.272 123.119 169.922 126.428 169.935 131.662C169.922 136.936 167.272 140.231 163.607 140.231C159.929 140.231 157.266 136.936 157.279 131.662C157.266 126.428 159.929 123.119 163.607 123.119ZM160.522 131.662C160.522 135.235 161.774 137.186 163.607 137.173C165.479 137.186 166.705 135.235 166.718 131.662C166.705 128.103 165.479 126.151 163.607 126.151C161.774 126.151 160.522 128.103 160.522 131.662ZM172.704 145.426V121.432H176.079V130.476H179.612V133.271H176.079V145.426H172.704ZM186.402 123.119C190.067 123.119 192.717 126.428 192.73 131.662C192.717 136.936 190.067 140.231 186.402 140.231C182.724 140.231 180.061 136.936 180.074 131.662C180.061 126.428 182.724 123.119 186.402 123.119ZM183.317 131.662C183.317 135.235 184.569 137.186 186.402 137.173C188.274 137.186 189.5 135.235 189.513 131.662C189.5 128.103 188.274 126.151 186.402 126.151C184.569 126.151 183.317 128.103 183.317 131.662ZM195.499 145.426V121.432H198.874V130.476H202.407V133.271H198.874V145.426H195.499ZM209.197 123.119C212.862 123.119 215.512 126.428 215.525 131.662C215.512 136.936 212.862 140.231 209.197 140.231C205.519 140.231 202.856 136.936 202.869 131.662C202.856 126.428 205.519 123.119 209.197 123.119ZM206.112 131.662C206.112 135.235 207.364 137.186 209.197 137.173C211.069 137.186 212.295 135.235 212.308 131.662C212.295 128.103 211.069 126.151 209.197 126.151C207.364 126.151 206.112 128.103 206.112 131.662ZM218.294 145.426V121.432H221.669V130.476H225.202V133.271H221.669V145.426H218.294ZM231.992 123.119C235.657 123.119 238.307 126.428 238.32 131.662C238.307 136.936 235.657 140.231 231.992 140.231C228.314 140.231 225.65 136.936 225.664 131.662C225.65 126.428 228.314 123.119 231.992 123.119ZM228.907 131.662C228.907 135.235 230.159 137.186 231.992 137.173C233.864 137.186 235.09 135.235 235.103 131.662C235.09 128.103 233.864 126.151 231.992 126.151C230.159 126.151 228.907 128.103 228.907 131.662ZM241.088 145.426V121.432H244.463V130.476H247.997V133.271H244.463V145.426H241.088ZM254.787 123.119C258.452 123.119 261.102 126.428 261.115 131.662C261.102 136.936 258.452 140.231 254.787 140.231C251.109 140.231 248.445 136.936 248.459 131.662C248.445 126.428 251.109 123.119 254.787 123.119ZM251.702 131.662C251.702 135.235 252.954 137.186 254.787 137.173C256.659 137.186 257.885 135.235 257.898 131.662C257.885 128.103 256.659 126.151 254.787 126.151C252.954 126.151 251.702 128.103 251.702 131.662ZM263.883 145.426V121.432H267.258V130.476H270.792V133.271H267.258V145.426H263.883Z" fill="#5EC7B9"/>
</g>
<defs>
<clipPath id="clip0_144_6465">
<rect width="360" height="360" fill="white"/>
</clipPath>
</defs>
</svg>
