<svg width="270" height="282" viewBox="0 0 270 282" fill="none" xmlns="http://www.w3.org/2000/svg">
<g clip-path="url(#clip0_144_5827)">
<path d="M176.587 76.4416L196.166 95.1544C222.721 120.532 223.679 163.017 198.301 189.563L185.012 203.466C185.012 203.466 172.603 216.451 172.594 216.452C157.095 232.673 133.89 239.994 111.853 235.86C56.8259 225.537 12.8752 151.094 56.4723 105.474L68.8906 92.4882L82.1796 78.5853C107.557 52.0301 150.041 51.0631 176.587 76.4416Z" fill="#F8D169"/>
<path d="M185.364 67.2482C219.964 95.506 243.239 142.551 207.046 180.418L193.757 194.321L187.338 201.036C177.732 202.463 136.724 206.3 103.857 174.89C70.2954 142.815 71.66 97.9544 72.3093 88.9093L77.6264 83.3444L90.9153 69.4415C116.95 42.2006 156.699 44.1058 184.779 66.7803C184.977 66.933 185.166 67.0955 185.364 67.2572L185.364 67.2482Z" fill="#FDF5E0"/>
<path d="M181.958 74.519C212.122 99.1547 232.406 140.165 200.856 173.173L189.268 185.292L183.671 191.149C175.292 192.388 139.547 195.741 110.895 168.358C81.6382 140.4 82.8263 101.289 83.3935 93.3984L88.0286 88.5491L99.6168 76.4302C122.315 52.6778 156.963 54.3402 181.444 74.1167C181.613 74.2541 181.782 74.3915 181.95 74.5289L181.958 74.519Z" fill="#FDEDC4"/>
<path d="M176.121 79.9824C174.585 81.595 176.813 86.216 181.108 90.3255C185.403 94.426 190.121 96.4454 191.658 94.8419C193.196 93.2383 190.966 88.5993 186.671 84.4988C182.377 80.3983 177.658 78.3789 176.121 79.9824Z" fill="#F3DB9B"/>
<rect x="122.698" y="72" width="114" height="42" rx="10" transform="rotate(45 122.698 72)" fill="white" fill-opacity="0.79"/>
<path d="M125.458 97.395C122.732 100.102 119.817 101.702 114.882 100.063L115.133 98.4584C117.332 99.198 119.024 99.256 120.498 98.7775L117.656 96.4186L118.555 95.2102L121.871 98.1491C122.335 97.8687 122.794 97.5352 123.239 97.1485L120.392 94.3014L121.378 93.3153L125.458 97.395ZM118.633 106.444L127.411 97.6657L128.648 98.9031L125.274 102.277L126.521 103.524L125.506 104.539L124.259 103.292L119.87 107.681L118.633 106.444ZM137.76 108.015L128.962 116.812L127.773 115.623L136.571 106.826L137.76 108.015ZM124.196 105.994L124.931 106.729L128.711 102.949L128.141 102.379L129.136 101.383L133.168 105.414L132.172 106.41L131.611 105.849L127.952 109.509C128.223 109.731 128.484 109.944 128.74 110.132L127.938 111.109C126.251 110.011 124.419 108.247 123.317 107.145L124.196 105.994ZM126.043 107.802C126.275 108.025 126.512 108.242 126.753 108.464L130.49 104.728L129.804 104.042L126.043 107.802ZM129.659 108.518L130.761 107.416L131.611 108.266L134.637 105.24L135.807 106.41L127.599 114.618L126.43 113.448L130.509 109.368L129.659 108.518ZM144.353 114.937C146.316 116.89 146.901 118.78 145.833 119.858C144.759 120.921 142.884 120.322 140.931 118.36C138.978 116.416 138.355 114.517 139.423 113.448C140.496 112.375 142.41 112.984 144.353 114.937ZM135.421 115.846L136.407 114.86L144.431 122.884L143.445 123.87L135.421 115.846ZM132.733 120.39L135.73 117.393L141.869 123.532L138.872 126.529L132.733 120.39ZM140.709 114.734C140.206 115.218 140.656 116.17 141.888 117.402C143.102 118.616 144.063 119.075 144.556 118.582C145.064 118.074 144.61 117.108 143.396 115.894C142.164 114.662 141.207 114.217 140.709 114.734ZM134.937 120.622L138.65 124.334L139.684 123.3L135.972 119.587L134.937 120.622ZM150.111 133.978L149.096 134.993L141.043 126.94L142.058 125.925L144.117 127.984L145.461 126.64L144.329 125.509L147.288 122.551L152.266 127.529L153.214 126.582L148.225 121.593L149.212 120.607L155.418 126.814L152.498 129.733L147.539 124.774L146.563 125.75L151.725 130.913L150.729 131.909L149.482 130.662L148.138 132.005L150.111 133.978ZM145.316 129.182L146.93 130.797L148.274 129.453L146.659 127.839L145.316 129.182ZM160.552 134.79C158.971 136.361 158.053 138.623 158.783 140.716L157.052 140.958C156.579 139.546 156.811 138.038 157.507 136.617C155.984 137.366 154.374 137.623 152.886 137.12L153.118 135.36C155.298 136.168 157.681 135.186 159.314 133.553L160.629 132.238L161.867 133.475L160.552 134.79ZM156.211 144.061L165.009 135.264L166.246 136.501L162.853 139.894L164.148 141.19L163.104 142.234L161.809 140.938L157.449 145.299L156.211 144.061ZM170.833 150.795L169.847 151.781L166.425 148.358L163.467 151.317L162.249 150.099L165.207 147.14L161.823 143.757L162.809 142.771L170.833 150.795ZM164.685 141.688C166.681 143.249 168.528 143.375 169.524 142.64L166.957 140.073L167.924 139.107L174.507 145.69L173.54 146.657L170.974 144.09C170.234 145.081 170.345 146.913 171.936 148.939L170.524 149.461C169.185 147.706 168.736 145.942 169.108 144.506C167.667 144.873 165.913 144.433 164.173 143.109L164.685 141.688ZM183.416 153.671L174.618 162.468L173.371 161.221L182.169 152.424L183.416 153.671ZM169.746 152.608C173.091 153.806 175.484 153.415 177.635 151.66L174.638 148.663L175.605 147.696L179.858 151.95C177.185 154.614 174.034 155.899 169.408 154.241L169.746 152.608Z" fill="#E4B843"/>
</g>
<defs>
<clipPath id="clip0_144_5827">
<rect width="204" height="204" fill="white" transform="translate(96.6697 282) rotate(-122)"/>
</clipPath>
</defs>
</svg>
