<svg width="214" height="214" viewBox="0 0 214 214" fill="none" xmlns="http://www.w3.org/2000/svg">
<circle cx="104.86" cy="107" r="68.48" fill="#DFF4F2"/>
<path d="M128.866 132.998L116.016 140.419L114.976 139.666L114.203 135.326L116.016 134.138L128.866 126.707V132.998Z" fill="black"/>
<path d="M73.3842 99.1248L60.5342 106.545L59.494 105.793L58.7212 101.453L60.5342 100.264L73.3842 92.8336V99.1248Z" fill="black"/>
<path d="M129.619 143.49C129.619 145.066 129.103 146.661 127.746 147.443C127.181 147.77 126.627 148.087 126.062 148.414C125.299 148.85 124.427 148.939 123.555 148.781C119.285 147.968 115.263 141.301 116.472 136.971C116.739 136.01 117.284 135.178 118.136 134.683C118.701 134.356 119.256 134.039 119.82 133.712C121.227 132.899 122.931 133.305 124.328 134.157C127.3 135.971 129.619 140.072 129.619 143.5V143.49ZM126.121 146.948C126.627 146.076 126.637 145.016 126.518 144.015C126.22 141.499 125.002 139.161 123.278 137.417C122.574 136.714 121.792 136.099 120.861 135.703C120.167 135.406 119.374 135.227 118.671 135.416C117.958 135.594 117.324 136.139 116.947 136.793C116.442 137.665 116.432 138.715 116.551 139.725C116.848 142.242 118.067 144.58 119.791 146.324C120.494 147.027 121.277 147.641 122.208 148.038C122.901 148.335 123.684 148.513 124.397 148.325C125.111 148.147 125.745 147.602 126.121 146.948Z" fill="#0D2527"/>
<path d="M126.518 144.025C126.637 145.026 126.617 146.086 126.121 146.958C125.745 147.602 125.111 148.147 124.397 148.335C123.684 148.513 122.901 148.335 122.208 148.048C121.267 147.651 120.484 147.037 119.791 146.334C118.067 144.58 116.848 142.242 116.551 139.735C116.432 138.735 116.452 137.675 116.947 136.803C117.324 136.159 117.958 135.614 118.671 135.426C119.384 135.237 120.167 135.426 120.86 135.713C121.802 136.109 122.584 136.723 123.278 137.427C125.002 139.171 126.22 141.509 126.518 144.025ZM125.091 145.818C125.477 145.145 125.497 144.322 125.398 143.55C125.279 142.569 125.002 141.647 124.566 140.785C123.833 139.309 122.515 137.734 120.999 137.09C120.454 136.862 119.85 136.723 119.295 136.862C118.74 137.001 118.245 137.427 117.958 137.932C117.571 138.606 117.561 139.428 117.651 140.201C117.769 141.182 118.047 142.103 118.483 142.965C119.216 144.441 120.534 146.017 122.049 146.661C122.594 146.888 123.199 147.027 123.753 146.888C124.308 146.75 124.804 146.324 125.091 145.818Z" fill="#0D2527"/>
<path d="M125.408 143.54C125.497 144.322 125.487 145.135 125.101 145.809C124.814 146.314 124.318 146.73 123.763 146.879C123.209 147.017 122.604 146.879 122.059 146.651C120.543 146.007 119.236 144.431 118.493 142.955C118.067 142.093 117.779 141.172 117.66 140.191C117.571 139.418 117.581 138.596 117.967 137.922C118.255 137.417 118.75 137.001 119.305 136.852C119.86 136.714 120.464 136.852 121.009 137.08C122.525 137.724 123.833 139.299 124.576 140.776C125.002 141.638 125.289 142.559 125.408 143.54ZM125.22 143.946C125.289 141.667 123.575 138.715 121.574 137.645C121.019 137.348 120.365 137.07 119.82 137.387C119.642 137.486 119.493 137.625 119.364 137.793C119.037 138.229 118.839 138.725 118.839 139.557C118.839 140.855 119.384 142.133 120.088 143.252C120.642 144.144 121.306 144.927 122.277 145.422C123 145.789 123.902 145.987 124.566 145.61C124.843 145.452 125.002 145.194 125.091 144.897C125.18 144.6 125.21 144.263 125.22 143.946Z" fill="#113438"/>
<path d="M121.574 137.645C123.575 138.715 125.289 141.667 125.22 143.946C125.21 144.263 125.18 144.6 125.091 144.897C125.002 145.194 124.843 145.452 124.566 145.61C123.902 145.997 123 145.789 122.277 145.422C121.306 144.927 120.643 144.144 120.088 143.252C119.384 142.133 118.839 140.855 118.839 139.557C118.839 138.725 119.028 138.229 119.364 137.793C119.493 137.625 119.652 137.486 119.82 137.387C120.365 137.07 121.019 137.348 121.574 137.645Z" fill="#E5E5E5"/>
<path d="M74.6325 111.053C74.6325 112.629 74.1173 114.224 72.7599 115.006C72.1952 115.333 71.6404 115.65 71.0757 115.977C70.3128 116.413 69.441 116.502 68.5691 116.344C64.299 115.532 60.2766 108.864 61.4853 104.534C61.7528 103.573 62.2977 102.741 63.1498 102.246C63.7145 101.919 64.2693 101.602 64.834 101.275C66.2409 100.462 67.945 100.869 69.3419 101.721C72.3141 103.524 74.6325 107.635 74.6325 111.063V111.053ZM71.1351 114.511C71.6404 113.639 71.6503 112.579 71.5314 111.578C71.2342 109.062 70.0156 106.724 68.2917 104.98C67.5883 104.277 66.8056 103.662 65.8743 103.266C65.1808 102.969 64.3981 102.791 63.6848 102.979C62.9714 103.157 62.3374 103.702 61.9609 104.356C61.4556 105.228 61.4457 106.278 61.5547 107.289C61.8519 109.805 63.0705 112.143 64.7944 113.887C65.4978 114.59 66.2805 115.205 67.2118 115.601C67.9053 115.898 68.688 116.076 69.4013 115.888C70.1147 115.71 70.7487 115.165 71.1252 114.511H71.1351Z" fill="#0D2527"/>
<path d="M71.5414 111.578C71.6603 112.579 71.6405 113.639 71.1451 114.511C70.7686 115.155 70.1345 115.7 69.4212 115.888C68.7079 116.066 67.9252 115.888 67.2317 115.601C66.2905 115.205 65.5078 114.59 64.8143 113.887C63.0904 112.133 61.8718 109.795 61.5745 107.289C61.4556 106.288 61.4755 105.228 61.9807 104.356C62.3572 103.712 62.9913 103.167 63.7046 102.979C64.418 102.791 65.2006 102.979 65.8942 103.266C66.8354 103.662 67.6181 104.277 68.3116 104.98C70.0355 106.724 71.2541 109.062 71.5513 111.578H71.5414ZM70.1147 113.372C70.5011 112.698 70.5209 111.876 70.4218 111.103C70.303 110.122 70.0256 109.201 69.5896 108.339C68.8565 106.863 67.5388 105.287 66.023 104.643C65.478 104.415 64.8737 104.277 64.3189 104.415C63.7641 104.554 63.2687 104.98 62.9814 105.485C62.595 106.159 62.5851 106.981 62.6743 107.754C62.7931 108.735 63.0706 109.656 63.5065 110.518C64.2396 111.995 65.5573 113.57 67.0731 114.214C67.6181 114.442 68.2224 114.58 68.7772 114.442C69.332 114.303 69.8274 113.877 70.1147 113.372Z" fill="#0D2527"/>
<path d="M70.4217 111.103C70.5109 111.886 70.501 112.698 70.1146 113.372C69.8273 113.877 69.3319 114.293 68.7771 114.442C68.2223 114.58 67.618 114.442 67.073 114.214C65.5572 113.57 64.2494 111.995 63.5064 110.518C63.0804 109.656 62.793 108.735 62.6742 107.754C62.585 106.981 62.5949 106.159 62.9813 105.485C63.2686 104.98 63.764 104.564 64.3188 104.415C64.8736 104.277 65.4779 104.415 66.0229 104.643C67.5387 105.287 68.8465 106.863 69.5895 108.339C70.0155 109.201 70.3029 110.122 70.4217 111.103ZM70.2335 111.509C70.3029 109.23 68.5889 106.278 66.5876 105.208C66.0328 104.911 65.3789 104.633 64.834 104.95C64.6556 105.049 64.507 105.188 64.3782 105.357C64.0513 105.793 63.8531 106.288 63.8531 107.12C63.8531 108.418 64.398 109.696 65.1015 110.816C65.6563 111.707 66.3201 112.49 67.291 112.985C68.0142 113.352 68.9158 113.55 69.5796 113.174C69.857 113.015 70.0155 112.757 70.1047 112.46C70.1939 112.163 70.2236 111.826 70.2335 111.509Z" fill="#113438"/>
<path d="M66.5877 105.208C68.589 106.278 70.303 109.23 70.2336 111.509C70.2237 111.826 70.194 112.163 70.1048 112.46C70.0157 112.757 69.8572 113.015 69.5798 113.174C68.916 113.56 68.0144 113.352 67.2911 112.985C66.3202 112.49 65.6564 111.707 65.1016 110.816C64.3982 109.696 63.8533 108.418 63.8533 107.12C63.8533 106.288 64.0415 105.793 64.3784 105.357C64.5072 105.188 64.6657 105.049 64.8341 104.95C65.379 104.633 66.0329 104.911 66.5877 105.208Z" fill="#E5E5E5"/>
<path d="M179.512 125.746C179.512 125.934 179.324 126.073 179.324 126.073L177.759 126.975C177.65 127.034 177.57 126.975 177.57 126.866V122.358C177.57 122.239 177.65 122.09 177.759 122.031L179.324 121.129L179.512 121.02V125.746Z" fill="#0D2527"/>
<path d="M179.126 120.802L177.57 121.704L177.125 121.456L178.69 120.545L179.126 120.802Z" fill="#284D6C"/>
<path d="M179.265 126.202C178.74 126.499 178.224 126.806 177.699 127.103C177.57 127.173 177.422 127.193 177.293 127.113C177.144 127.034 177.006 126.945 176.857 126.866C176.857 126.866 176.748 126.826 176.748 126.618L177.184 126.866V122.358L176.748 122.11C176.748 121.872 176.917 121.575 177.125 121.456L177.561 121.704L179.126 120.802L178.69 120.555C178.799 120.495 178.888 120.485 178.958 120.525C179.106 120.614 179.245 120.693 179.393 120.773C179.502 120.842 179.582 120.961 179.582 121.129V125.637C179.582 125.845 179.453 126.083 179.255 126.202H179.265ZM177.57 126.866C177.57 126.975 177.65 127.044 177.759 126.975L179.324 126.073C179.324 126.073 179.522 125.934 179.512 125.746V121.02L179.324 121.129L177.759 122.031C177.65 122.09 177.57 122.239 177.57 122.358V126.866Z" fill="#113438"/>
<path d="M177.184 122.358V126.866L176.748 126.618V122.11L177.184 122.358Z" fill="#0D2527"/>
<path d="M178.086 145.204C178.076 145.373 177.957 145.531 177.739 145.66C172.805 148.523 173.072 148.365 173.043 148.375C172.954 148.404 172.864 148.384 172.835 148.295C172.775 148.077 172.954 147.899 173.707 145.818C174.033 144.947 174.321 144.055 174.628 143.173C174.737 142.846 174.955 142.529 175.212 142.321C175.341 142.222 175.054 142.39 177.848 140.785C178.086 140.647 178.195 140.478 178.195 140.3V142.965C178.155 143.827 178.125 144.53 178.086 145.204Z" fill="#E5E5E5"/>
<path d="M169.238 106.704C169.446 106.813 169.644 106.942 169.833 107.08L170.041 107.219C170.566 107.586 171.071 107.992 171.537 108.438C172.716 109.557 173.736 110.895 174.529 112.391C174.668 112.629 174.608 112.886 174.301 113.055C166.484 117.553 158.697 122.06 150.9 126.568C150.404 126.856 149.582 126.747 149.067 126.449C148.007 124.052 146.748 122.1 146.273 120.99C146.233 120.901 146.204 120.812 146.184 120.763C145.926 120.049 145.778 118.959 145.748 118.286C145.678 116.592 146.332 115.314 147.402 113.926C148.68 112.262 150.474 110.578 152.425 109.399C155.616 107.477 161.025 105.941 164.176 105.773C165.89 105.684 167.722 105.882 169.218 106.694L169.238 106.704Z" fill="#0D2527"/>
<path d="M178.195 134.415C178.195 134.524 178.145 134.623 178.086 134.702C178.026 134.782 177.937 134.851 177.848 134.9L159.143 145.7L158.231 146.225L154.288 148.503C153.822 148.771 153.079 148.771 152.604 148.503C152.604 147.146 152.505 145.719 152.307 144.233C152.158 143.134 150.9 133.702 150.642 131.72C150.404 129.858 149.79 128.064 149.087 126.469C149.602 126.766 150.424 126.875 150.92 126.588C157.666 122.695 164.404 118.791 171.16 114.897C171.467 114.719 171.765 114.551 172.072 114.372C172.825 113.936 173.568 113.51 174.321 113.074C174.598 112.916 174.668 112.688 174.578 112.47C175.381 114.006 175.956 115.7 176.223 117.493C176.798 121.654 177.343 125.835 177.897 130.006C178.096 131.522 178.205 133.008 178.205 134.435L178.195 134.415Z" fill="#19696F"/>
<path d="M172.983 143.728C173.043 143.797 173.033 143.946 173.003 144.045C171.844 147.374 172.498 145.64 171.23 148.91C171.101 149.246 170.873 149.554 170.625 149.752C170.497 149.861 171.24 149.415 161.491 155.042C161.451 155.062 161.352 155.112 161.322 155.122C161.263 155.141 161.144 155.161 161.094 155.161C161.035 155.161 160.946 155.131 160.906 155.102C160.857 155.072 160.797 155.013 160.767 154.953C159.806 153.19 160.361 154.17 159.133 152.05C159.044 151.902 159.162 151.624 159.311 151.495C159.371 151.446 158.4 152.011 172.765 143.718C172.845 143.669 172.934 143.659 173.003 143.718L172.983 143.728Z" fill="#0D2527"/>
<path d="M171.626 140.835C171.675 140.894 171.666 141.013 171.646 141.112C171.576 141.36 168.565 143.857 167.366 144.788C165.899 145.927 165.335 146.106 163.898 146.562C163.462 146.7 161.223 147.443 160.975 147.532C160.817 147.592 160.599 147.681 160.51 147.602C160.45 147.552 160.45 147.423 160.47 147.324C160.549 146.968 160.787 146.978 163.046 145.115C166.217 142.499 166.633 142.529 168.287 141.935C168.872 141.717 171.497 140.657 171.636 140.825L171.626 140.835Z" fill="#2CA798"/>
<path d="M160.609 147.691C160.55 147.691 160.5 147.681 160.47 147.641C160.391 147.572 160.391 147.423 160.411 147.305C160.46 147.067 160.579 146.978 161.154 146.532C161.53 146.244 162.105 145.799 163.007 145.065C165.85 142.717 166.494 142.499 167.782 142.044C167.931 141.994 168.089 141.935 168.267 141.875C168.386 141.836 168.585 141.756 168.822 141.667C170.903 140.865 171.577 140.657 171.686 140.785C171.765 140.885 171.735 141.053 171.715 141.122C171.636 141.41 168.426 144.045 167.415 144.838C165.939 145.987 165.355 146.175 163.928 146.621C163.512 146.75 161.253 147.503 161.015 147.592H160.995C160.877 147.651 160.738 147.701 160.629 147.701L160.609 147.691ZM171.557 140.875C171.24 140.875 169.585 141.509 168.862 141.786C168.614 141.875 168.426 141.955 168.307 141.994C168.129 142.054 167.97 142.113 167.822 142.163C166.553 142.608 165.91 142.826 163.086 145.155C162.184 145.898 161.61 146.334 161.233 146.631C160.678 147.057 160.579 147.136 160.53 147.334C160.51 147.433 160.52 147.523 160.55 147.552C160.609 147.602 160.817 147.523 160.936 147.483H160.956C161.204 147.384 163.433 146.641 163.879 146.502C165.335 146.046 165.88 145.868 167.326 144.739C168.644 143.708 171.497 141.33 171.586 141.093C171.606 141.003 171.606 140.914 171.586 140.875C171.586 140.875 171.567 140.875 171.557 140.875Z" fill="#4E312B"/>
<path d="M169.238 106.704C167.742 105.882 165.909 105.684 164.195 105.783C161.045 105.951 155.635 107.487 152.445 109.409C150.493 110.588 148.7 112.272 147.422 113.936C146.352 115.324 145.708 116.592 145.768 118.296C145.797 118.96 145.946 120.059 146.204 120.773C146.223 120.822 146.253 120.911 146.293 121C146.758 122.1 148.027 124.062 149.087 126.459C50.8448 69.7494 37.0933 61.8136 35.1812 60.6841C35.2604 60.5157 35.3595 60.3473 35.4487 60.1789C35.6171 59.8816 36.4691 58.4154 36.5781 58.2073C36.8357 57.7119 37.0338 57.3156 37.3905 56.8995C37.9552 56.2456 38.8667 55.6809 39.6098 55.245C40.0061 55.0171 47.6744 50.8461 48.7642 50.2318C53.3811 47.6262 57.8394 44.5648 59.2958 43.9505C59.5534 43.8416 59.9199 43.7326 60.1974 43.7722C60.2568 43.792 60.3063 43.8217 60.3658 43.8614H60.3856C96.6665 64.8155 132.957 85.7598 169.238 106.714V106.704Z" fill="#43D0BE"/>
<path d="M159.133 155.964C159.192 156.073 159.133 156.37 158.915 156.528C158.875 156.558 159.133 156.409 154.219 159.233C153.763 159.501 153.02 159.501 152.554 159.233C152.574 158.302 152.614 157.014 152.614 157.004C152.614 157.004 152.614 155.845 152.614 154.369C152.98 154.577 153.515 154.616 153.941 154.507C154.209 154.438 154.02 154.527 156.755 152.942C157.032 152.783 157.349 152.773 157.508 153.041C158.608 154.943 158.043 153.933 159.133 155.944V155.964Z" fill="#E5E5E5"/>
<path d="M152.604 148.503C153.069 148.771 153.822 148.771 154.288 148.503L177.848 134.901C177.937 134.851 178.026 134.782 178.086 134.702C178.145 134.623 178.195 134.524 178.195 134.415V140.29C178.195 140.468 178.076 140.647 177.848 140.776C175.064 142.381 175.341 142.212 175.213 142.311C174.955 142.529 174.737 142.846 174.628 143.163C174.321 144.045 174.034 144.937 173.707 145.809C172.944 147.879 172.765 148.058 172.835 148.285C172.864 148.375 172.954 148.404 173.043 148.365C173.082 148.355 172.805 148.503 177.739 145.65C177.957 145.521 178.066 145.363 178.086 145.194C178.066 145.511 178.046 145.828 178.016 146.155C178.016 146.155 178.016 146.155 178.016 146.165C178.006 146.334 177.888 146.492 177.67 146.621L154.209 160.164C153.763 160.432 153 160.442 152.525 160.164V160.145C152.525 160.055 152.534 159.689 152.544 159.233C153.01 159.491 153.753 159.491 154.209 159.233C159.123 156.4 158.875 156.558 158.905 156.528C159.123 156.36 159.182 156.073 159.123 155.964C158.033 153.952 158.588 154.963 157.498 153.061C157.34 152.783 157.023 152.793 156.745 152.962C154.001 154.547 154.199 154.458 153.931 154.527C153.505 154.636 152.97 154.596 152.604 154.388V148.513V148.503ZM173.003 144.045C173.033 143.946 173.053 143.797 172.983 143.728C172.924 143.659 172.835 143.669 172.746 143.728C158.38 152.021 159.351 151.456 159.291 151.505C159.143 151.634 159.024 151.912 159.113 152.06C160.341 154.18 159.787 153.199 160.748 154.963C160.777 155.022 160.837 155.082 160.886 155.112C160.936 155.141 161.015 155.171 161.075 155.171C161.124 155.171 161.243 155.151 161.302 155.131C161.342 155.122 161.441 155.072 161.471 155.052C171.23 149.425 170.477 149.861 170.606 149.762C170.853 149.563 171.081 149.256 171.21 148.919C172.468 145.64 171.824 147.384 172.983 144.055L173.003 144.045Z" fill="#2CA798"/>
<path d="M152.604 154.378C152.604 155.845 152.604 157.004 152.604 157.014C152.604 157.024 152.574 158.322 152.544 159.243C152.544 159.243 152.534 159.243 152.524 159.243H152.505C152.128 159.035 151.94 158.649 151.94 158.104V154.894C151.94 154.894 151.94 154.844 151.94 154.824C151.96 154.289 152.178 154.151 152.594 154.388L152.604 154.378Z" fill="#C2241E"/>
<path d="M152.604 148.503V154.378C152.188 154.141 151.97 154.279 151.95 154.814L147.313 152.139C147.313 144.194 147.333 127.45 147.343 127.084C141.914 123.953 136.485 120.812 131.055 117.681C124.467 113.877 117.888 110.132 111.3 106.337L91.5247 94.8647C86.0954 91.7339 80.6662 88.5933 75.2369 85.4625L37.351 63.6662C36.5386 65.1424 36.2612 66.8862 36.2612 68.5605V79.1911C49.2399 86.6811 62.2186 94.1811 75.1973 101.671H75.2171C75.2171 104.95 75.2171 108.121 75.2171 110.508H75.1973L72.6511 109.042C71.8089 106.863 70.5012 104.851 68.8764 103.256C67.4299 101.839 65.4484 100.492 63.4372 100.443C62.278 100.413 61.3665 100.829 60.7126 101.522L34.2698 86.2452C34.2698 81.4599 34.2698 66.0143 34.2698 64.8948C34.2698 63.369 34.5472 61.9721 35.1813 60.6841C37.0934 61.8136 50.835 69.7395 149.077 126.459C150.702 134.098 151.326 147.83 152.594 148.493L152.604 148.503Z" fill="#43D0BE"/>
<path d="M152.534 159.243H152.515C152.406 159.184 152.307 159.104 152.227 159.015C150.86 158.252 147.303 156.251 147.303 156.251C141.874 153.11 136.445 149.98 131.025 146.849L128.965 145.68C128.975 146.007 128.985 146.304 128.994 146.601C133.274 149.068 149.651 158.52 152.485 160.164H152.515C152.515 160.085 152.525 159.709 152.534 159.253C152.534 159.253 152.525 159.253 152.515 159.253L152.534 159.243Z" fill="#0D2527"/>
<path d="M131.025 146.839L128.965 145.68C128.935 144.768 128.856 143.669 128.35 142.054C128.241 141.697 128.113 141.34 127.984 140.984L131.006 142.727H131.025C131.025 145.145 131.025 146.75 131.025 146.839Z" fill="#0D2527"/>
<path d="M152.307 144.233C152.505 145.719 152.604 147.146 152.604 148.493C151.346 147.83 150.721 134.098 149.087 126.459C149.79 128.054 150.404 129.848 150.642 131.71C150.9 133.692 152.158 143.124 152.307 144.223V144.233Z" fill="#0D2527"/>
<path d="M151.068 156.033V157.608L148.908 156.36V154.785L151.068 156.033Z" fill="#17A24A"/>
<path d="M131.045 123.923C131.045 120.327 131.045 117.741 131.045 117.681C136.475 120.812 141.904 123.953 147.333 127.084C147.333 127.45 147.313 144.194 147.303 152.139C147.303 154.557 147.303 156.152 147.303 156.241C141.874 153.11 136.445 149.97 131.016 146.839C131.016 146.789 131.016 145.175 131.016 142.727C131.016 140.35 131.016 137.179 131.016 133.9C131.016 130.432 131.016 126.846 131.016 123.923H131.045ZM141.042 151.654C146.372 154.735 145.996 154.517 146.105 154.527C146.342 154.557 146.461 154.378 146.461 154.131C146.461 153.982 146.461 145.353 146.461 138.091C146.461 132.909 146.461 128.421 146.461 128.223C146.461 127.866 146.223 127.43 145.906 127.242C143.132 125.637 140.923 124.369 139.169 123.348C131.887 119.138 132.353 119.405 132.224 119.386C132.036 119.366 131.858 119.495 131.858 119.782C131.858 119.841 131.858 124.389 131.858 129.66C131.858 136.902 131.858 145.511 131.858 145.69C131.858 146.056 132.125 146.492 132.422 146.661C134.285 147.731 135.89 148.662 137.277 149.464C137.961 149.861 138.585 150.217 139.16 150.554C139.853 150.951 140.477 151.317 141.042 151.644V151.654Z" fill="#0D2527"/>
<path d="M145.916 127.262C146.223 127.44 146.471 127.876 146.471 128.243C146.471 128.441 146.471 132.929 146.471 138.111C145.867 138.081 145.282 138.101 144.658 138.031C144.222 137.982 143.776 137.902 143.37 138.011C143.142 138.081 142.914 138.21 142.756 138.378C142.508 138.646 142.369 139.002 142.221 139.339C141.844 140.161 141.24 140.954 141.081 141.806C140.992 142.282 141.052 142.777 141.072 143.262C141.101 143.877 141.072 144.481 141.052 145.085C141.032 146.056 141.052 147.037 141.052 148.008C141.052 149.227 141.052 150.435 141.052 151.654C140.487 151.327 139.863 150.97 139.169 150.564C139.169 150.247 139.179 123.666 139.189 123.358C140.943 124.369 143.152 125.647 145.926 127.252L145.916 127.262Z" fill="#113438"/>
<path d="M146.461 138.101C146.461 145.363 146.461 153.992 146.461 154.141C146.461 154.378 146.342 154.567 146.105 154.537C145.996 154.527 146.362 154.735 141.042 151.664C141.042 150.445 141.062 149.236 141.042 148.018C141.042 147.047 141.012 146.066 141.042 145.095C141.052 144.491 141.082 143.886 141.062 143.272C141.042 142.787 140.992 142.291 141.072 141.816C141.22 140.964 141.825 140.171 142.211 139.349C142.36 139.012 142.498 138.655 142.746 138.388C142.914 138.21 143.132 138.081 143.36 138.021C143.766 137.902 144.212 137.992 144.648 138.041C145.262 138.101 145.847 138.081 146.461 138.12V138.101Z" fill="#113438"/>
<path d="M139.179 123.368C139.179 123.675 139.159 150.267 139.159 150.574C138.585 150.237 137.951 149.881 137.277 149.484C137.277 147.998 137.317 146.512 137.297 145.026C137.287 143.986 137.237 142.945 137.267 141.905C137.297 140.578 137.376 139.805 136.98 138.368C136.782 137.655 136.514 136.961 136.276 136.258C135.989 135.406 135.761 134.524 135.335 133.761C134.909 132.988 134.275 132.325 133.671 131.671C133.066 131.017 132.472 130.353 131.877 129.699C131.877 124.428 131.877 119.881 131.877 119.821C131.877 119.524 132.056 119.395 132.244 119.425C132.373 119.445 131.907 119.178 139.189 123.388L139.179 123.368Z" fill="#113438"/>
<path d="M137.287 145.026C137.307 146.512 137.267 147.998 137.267 149.484C135.88 148.682 134.275 147.76 132.413 146.68C132.115 146.512 131.848 146.076 131.848 145.709C131.848 145.531 131.848 136.922 131.848 129.679C132.442 130.333 133.037 130.997 133.641 131.651C134.245 132.315 134.879 132.969 135.305 133.741C135.731 134.514 135.959 135.396 136.247 136.238C136.484 136.951 136.752 137.635 136.95 138.348C137.346 139.785 137.277 140.558 137.237 141.885C137.208 142.925 137.257 143.966 137.267 145.006L137.287 145.026Z" fill="#113438"/>
<path d="M131.045 123.923C131.045 126.846 131.045 130.432 131.045 133.9H131.025L111.27 122.496V112.49C117.858 116.294 124.467 120.129 131.055 123.923H131.045Z" fill="#113438"/>
<path d="M131.006 133.89H131.025C131.025 137.169 131.025 140.34 131.025 142.717H131.006L127.984 140.974C127.142 138.794 125.834 136.783 124.209 135.188C122.763 133.771 120.781 132.424 118.77 132.374C117.492 132.344 116.422 132.859 115.699 133.88L91.4949 119.911C91.4949 117.533 91.4949 114.362 91.4949 111.083L111.25 122.486L131.006 133.89Z" fill="#43D0BE"/>
<path d="M115.699 133.89C116.422 132.879 117.492 132.354 118.77 132.384C120.781 132.434 122.773 133.771 124.209 135.198C125.834 136.793 127.142 138.804 127.984 140.984C128.123 141.33 128.241 141.687 128.35 142.054C129.024 144.243 128.935 145.482 128.994 146.601C128.588 146.363 128.291 146.195 128.123 146.096C128.123 146.007 128.093 145.283 128.093 145.155C128.033 141.984 126.399 138.566 124.189 136.258C123.327 135.356 122.376 134.623 121.405 134.138C120.088 133.484 118.522 133.216 117.284 134.029C116.045 134.851 115.59 136.486 115.629 137.962C115.629 138.101 115.659 138.814 115.659 138.903C115.679 139.26 115.709 139.815 115.827 140.132C115.877 140.26 115.946 140.359 116.036 140.429C101.749 132.186 87.4725 123.943 73.1959 115.69L73.1562 115.67C73.0671 115.601 73.0076 115.502 72.9581 115.383C72.8392 115.056 72.7996 114.511 72.7897 114.154C72.8987 114.224 73.2058 114.392 73.6615 114.66C79.5663 118.068 111.894 136.733 114.787 138.408C114.718 137.13 114.718 135.97 115.233 134.762C115.362 134.445 115.52 134.157 115.709 133.91L115.699 133.89Z" fill="#0D2527"/>
<path d="M116.046 140.419C116.046 140.419 116.065 140.419 116.074 140.429C116.074 140.429 116.055 140.429 116.046 140.419Z" fill="#D9A303"/>
<path d="M91.4949 119.911L115.699 133.88C115.52 134.138 115.362 134.425 115.223 134.732C114.718 135.941 114.718 137.1 114.777 138.378C111.884 136.714 79.5565 118.048 73.6517 114.63C73.6021 113.58 73.6913 112.302 73.0077 110.082C72.8987 109.726 72.7699 109.369 72.6411 109.012L75.1873 110.479H75.2071C75.2071 112.926 75.2071 114.541 75.2071 114.59C80.6364 117.721 86.0656 120.862 91.4949 123.992C91.4949 123.903 91.4949 122.308 91.4949 119.891V119.911ZM95.6461 125.607V124.032L93.4863 122.784V124.359L95.6461 125.607Z" fill="#0D2527"/>
<path d="M91.5246 94.8547L111.3 106.337C111.29 106.863 111.26 111.747 111.26 112.48V122.467L91.5048 111.073C91.5048 103.395 91.5246 95.1024 91.5246 94.8448V94.8547Z" fill="#113438"/>
<path d="M95.6461 124.032V125.607L93.4863 124.359V122.784L95.6461 124.032Z" fill="#F8A11E"/>
<path d="M91.5048 111.083C91.5048 114.362 91.5048 117.533 91.5048 119.911C91.5048 122.318 91.5048 123.923 91.5048 124.012C86.0756 120.881 80.6463 117.741 75.217 114.61C75.217 114.561 75.217 112.946 75.217 110.499C75.217 108.121 75.217 104.95 75.217 101.661C75.217 93.9433 75.2369 85.6111 75.2369 85.4526C80.6661 88.5833 86.0954 91.724 91.5246 94.8547C91.5246 95.1123 91.5048 103.405 91.5048 111.083ZM85.2235 119.435C90.524 122.496 90.1772 122.298 90.2862 122.318C90.4844 122.338 90.6429 122.219 90.6429 121.922C90.6429 121.773 90.6429 113.144 90.6429 105.882C90.6429 100.7 90.6429 96.2121 90.6429 96.0139C90.6429 95.6969 90.4546 95.3204 90.207 95.1123C90.0682 94.9934 87.0663 93.2993 83.351 91.1593C81.211 89.9308 78.8233 88.5536 76.614 87.2458C76.3168 87.0675 76.0493 87.2062 76.0493 87.5728C76.0493 87.6322 76.0493 92.1797 76.0493 97.4505C76.0493 104.693 76.0493 113.302 76.0493 113.481C76.0493 113.827 76.287 114.263 76.614 114.452C78.4766 115.522 80.0816 116.453 81.4686 117.255C82.1522 117.652 82.7764 118.008 83.351 118.345C84.0445 118.741 84.6687 119.108 85.2334 119.435H85.2235Z" fill="#0D2527"/>
<path d="M90.2168 95.1123C90.4744 95.3204 90.6626 95.6968 90.6527 96.0139C90.6527 96.212 90.6527 100.7 90.6527 105.882C90.0484 105.852 87.9678 105.674 87.5517 105.792C87.3238 105.862 87.1059 105.991 86.9374 106.159C86.6897 106.417 85.4216 108.735 85.2631 109.587C85.1739 110.063 85.2334 110.558 85.2532 111.043C85.2829 111.658 85.2334 118.216 85.2334 119.435C84.6686 119.108 84.0445 118.751 83.351 118.345C83.351 118.038 83.3609 92.0509 83.3708 91.1592C87.086 93.2893 90.0781 94.9934 90.2267 95.1123H90.2168Z" fill="#113438"/>
<path d="M90.6428 105.882C90.6428 113.144 90.6428 121.773 90.6428 121.922C90.6428 122.219 90.4843 122.338 90.2861 122.318C90.1772 122.308 90.5239 122.506 85.2235 119.435C85.2235 118.216 85.2433 117.008 85.2235 115.789C85.2235 114.808 85.1937 113.837 85.2235 112.866C85.2334 112.262 85.2631 111.658 85.2433 111.043C85.2235 110.558 85.1739 110.063 85.2532 109.587C85.4018 108.735 86.0161 107.942 86.3925 107.12C86.5411 106.783 86.6798 106.427 86.9275 106.159C87.096 105.981 87.3139 105.852 87.5418 105.793C87.948 105.674 88.3938 105.763 88.8298 105.812C89.444 105.872 90.0285 105.852 90.6329 105.892L90.6428 105.882Z" fill="#113438"/>
<path d="M83.361 91.1593C83.361 92.0509 83.3412 118.038 83.3412 118.345C82.7665 118.008 82.1325 117.652 81.4588 117.255C81.4588 115.769 81.4191 110.716 81.4489 109.676C81.4786 108.339 81.5578 107.566 81.1615 106.139C80.9634 105.426 79.9429 102.295 79.507 101.522C79.081 100.75 76.6438 98.1143 76.0493 97.4604C76.0493 92.1896 76.0493 87.6421 76.0493 87.5827C76.0493 87.2161 76.3168 87.0774 76.614 87.2558C78.8234 88.5635 81.2111 89.9308 83.3511 91.1692L83.361 91.1593Z" fill="#113438"/>
<path d="M81.4686 112.797C81.4884 114.283 81.4488 115.769 81.4488 117.255C80.0617 116.453 78.4567 115.531 76.5941 114.452C76.2672 114.263 76.0294 113.827 76.0294 113.481C76.0294 113.302 76.0294 104.693 76.0294 97.4505C76.6239 98.1044 77.2183 98.7682 77.8227 99.422C78.4369 100.086 79.0611 100.74 79.4871 101.513C79.9131 102.285 80.141 103.167 80.4283 104.009C80.6661 104.723 80.9336 105.406 81.1317 106.119C81.528 107.556 81.4587 108.329 81.419 109.656C81.3893 110.697 81.4389 111.737 81.4488 112.777L81.4686 112.797Z" fill="#113438"/>
<path d="M75.2369 85.4526C75.2369 85.621 75.2269 93.9532 75.217 101.661H75.1972C62.2185 94.1711 49.2398 86.6712 36.2611 79.1812V68.5506C36.2611 66.8663 36.5484 65.1226 37.3509 63.6563L75.2369 85.4526Z" fill="#113438"/>
<path d="M73.6616 114.65C73.2058 114.382 72.9086 114.214 72.7897 114.144C72.7897 114.055 72.76 113.332 72.76 113.203C72.6906 109.379 70.2732 105.079 67.2911 102.929C66.8948 102.642 66.4886 102.394 66.0725 102.186C62.7535 100.532 60.237 102.345 60.2965 106.01C60.2965 106.278 60.3856 106.456 60.5343 106.545C60.2469 106.377 59.9596 106.209 59.6723 106.05C55.5013 103.643 51.3402 101.235 47.1692 98.8375L47.1295 98.8078C43.1963 95.6573 39.2928 92.4869 35.3694 89.3264C34.8443 88.9004 34.3985 88.3555 34.0716 87.771C33.8041 87.2756 33.6852 86.701 33.6852 86.156V85.522C33.814 85.9282 34.2301 86.2254 34.2697 86.2452V87.6422C34.5273 88.0979 34.884 88.5338 35.2902 88.8707C36.8357 90.119 46.9215 98.2629 46.9908 98.3223C47.1196 98.3917 57.3441 104.297 59.4246 105.505C59.3949 103.92 59.8209 102.454 60.7126 101.513C61.3665 100.819 62.278 100.413 63.4371 100.433C65.4483 100.482 67.4298 101.82 68.8763 103.246C70.5011 104.841 71.8089 106.853 72.651 109.032C72.7897 109.379 72.9086 109.736 73.0176 110.102C73.7012 112.312 73.6021 113.6 73.6616 114.65Z" fill="#0D2527"/>
<path d="M34.5669 65.0136C34.5669 66.1332 34.2697 81.4698 34.2697 86.2452C34.24 86.2254 33.814 85.9381 33.6852 85.522C33.6852 82.1535 33.6852 66.5889 33.6852 64.0923C33.705 62.5071 33.9428 60.9813 34.5669 59.5844C34.458 59.8717 34.5372 60.1887 34.8642 60.476C34.8939 60.5058 34.7651 60.4364 35.1713 60.6841C34.5372 61.9721 34.557 63.478 34.5471 65.0136H34.5669Z" fill="#43D0BE"/>
<path d="M34.2698 86.2452L60.7226 101.512C59.8309 102.454 59.4049 103.91 59.4346 105.495C57.354 104.306 47.1296 98.4016 47.0008 98.3223C46.9314 98.2629 36.8457 90.119 35.3001 88.8706C34.8939 88.5437 34.5472 88.1078 34.2797 87.6421V86.2452H34.2698Z" fill="#0D2527"/>
<path d="M59.2463 43.5938C59.5732 43.5839 59.8903 43.6334 60.1974 43.7721C59.92 43.7325 59.5534 43.8415 59.2958 43.9504C57.8394 44.5647 53.3811 47.6261 48.7741 50.2317C47.6843 50.846 40.016 55.017 39.6197 55.2449C38.8667 55.6907 37.9652 56.2455 37.4004 56.8994C37.0438 57.3155 36.8456 57.7118 36.588 58.2072C36.4791 58.4153 35.627 59.8816 35.4586 60.1788C35.3595 60.3472 35.2704 60.5156 35.1911 60.6841C34.7849 60.4463 34.9137 60.5057 34.884 60.476C34.557 60.1887 34.4778 59.8617 34.5867 59.5843C34.7651 59.1979 34.9632 58.8215 35.201 58.4549V58.4351C35.6666 57.7713 36.2809 56.8103 36.8952 56.2951C37.2221 56.0375 37.4104 55.8393 38.7578 55.0567C44.94 51.49 51.142 47.9134 57.3342 44.3368C57.7602 44.0792 58.2258 43.8217 58.6816 43.6929C58.85 43.6433 59.0085 43.6136 59.2066 43.6037H59.2364L59.2463 43.5938Z" fill="#2CA798"/>
<path d="M111.3 106.337C117.888 110.132 124.467 113.877 131.055 117.681C131.055 117.741 131.055 120.317 131.055 123.923C124.467 120.119 117.858 116.284 111.27 112.49C111.27 111.757 111.3 106.872 111.31 106.347L111.3 106.337Z" fill="#0D2527"/>
<path d="M111.3 106.337C111.29 106.872 111.26 111.757 111.26 112.49C117.849 116.294 124.457 120.129 131.045 123.923C131.045 120.327 131.045 117.741 131.045 117.681C124.457 113.877 117.878 110.132 111.29 106.337H111.3Z" fill="#0D2527"/>
<path d="M177.813 134.876L154.249 148.453L154.308 148.556L177.872 134.979L177.813 134.876Z" fill="#0D2527"/>
<path d="M177.818 134.99L177.759 134.891L177.808 134.861C177.907 134.801 177.977 134.742 178.026 134.683C178.086 134.603 178.115 134.514 178.125 134.435V134.375H178.244V134.435C178.244 134.544 178.195 134.653 178.115 134.752C178.056 134.831 177.967 134.9 177.858 134.96L177.808 134.99H177.818Z" fill="#0D2527"/>
<path d="M153.446 148.761C153.129 148.761 152.812 148.692 152.574 148.553L152.634 148.454C153.079 148.711 153.813 148.711 154.258 148.454L154.318 148.553C154.08 148.692 153.763 148.761 153.446 148.761Z" fill="#0D2527"/>
<path d="M91.5643 124.121L91.4751 124.072C86.0458 120.941 80.6166 117.8 75.1873 114.67L75.1576 114.65V114.62C75.1576 114.62 75.1576 112.956 75.1576 110.508C75.1576 108.418 75.1576 105.713 75.1576 102.86V101.671C75.1576 95.6969 75.1774 85.6409 75.1774 85.4625V85.3635L75.2666 85.413L91.5841 94.8349V94.8746C91.5841 95.1223 91.5643 103.425 91.5643 111.103C91.5643 113.51 91.5643 115.849 91.5643 117.87V119.93C91.5643 122.298 91.5643 123.943 91.5643 124.032V124.141V124.121ZM75.2765 114.58C80.6661 117.691 86.0557 120.802 91.4454 123.913C91.4454 123.507 91.4454 121.991 91.4454 119.921V117.86C91.4454 115.839 91.4454 113.501 91.4454 111.093C91.4454 103.613 91.4652 95.5483 91.4652 94.9043L75.2963 85.5715C75.2963 86.6712 75.2864 96.0139 75.2765 101.681V102.87C75.2765 105.723 75.2765 108.418 75.2765 110.518C75.2765 112.797 75.2765 114.343 75.2765 114.59V114.58Z" fill="#0D2527"/>
<path d="M83.2222 118.345C83.2222 118.246 83.2321 92.1599 83.242 91.1593V91.1395H83.4798V91.1593C83.4798 92.1599 83.4599 118.246 83.4599 118.345H83.2222Z" fill="#0D2527"/>
<path d="M139.041 150.495C139.041 149.999 139.05 123.626 139.06 123.358H139.298C139.298 123.626 139.278 150.128 139.278 150.624L139.041 150.485V150.495Z" fill="#0D2527"/>
<path d="M75.1675 101.721C62.1888 94.2306 49.2101 86.7307 36.2314 79.2407L36.2017 79.2209V68.5605C36.2017 66.6187 36.5682 64.9641 37.3014 63.6365L37.4104 63.696C36.6871 65.0038 36.3305 66.6484 36.3305 68.5605V79.1515C49.2993 86.6415 62.268 94.1216 75.2368 101.612L75.1774 101.711L75.1675 101.721Z" fill="#0D2527"/>
<path d="M37.3841 63.6116L37.3248 63.7146L75.2058 85.5059L75.2651 85.4029L37.3841 63.6116Z" fill="#0D2527"/>
<path d="M111.27 106.387L91.4949 94.9142L91.5543 94.8052L111.339 106.288V106.298L111.3 106.347L111.27 106.387Z" fill="#0D2527"/>
<path d="M152.485 159.302C152.089 159.075 151.891 158.668 151.891 158.104V154.894C151.891 154.894 151.891 154.844 151.891 154.824C151.891 154.517 151.97 154.339 152.108 154.26C152.237 154.19 152.406 154.22 152.624 154.339L152.564 154.438C152.386 154.339 152.257 154.309 152.168 154.359C152.069 154.408 152.019 154.577 152.009 154.824C152.009 154.844 152.009 154.864 152.009 154.894V158.104C152.009 158.629 152.188 158.995 152.544 159.203L152.485 159.302Z" fill="#0D2527"/>
<path d="M147.373 156.34L130.966 146.869V146.839C130.966 146.839 130.966 145.789 130.966 144.114V142.727C130.966 141.321 130.966 139.626 130.966 137.803V133.89C130.966 131.403 130.966 128.847 130.966 126.519V123.913C130.966 121.615 130.966 117.751 130.976 117.672V117.572L131.065 117.622C136.494 120.753 141.924 123.893 147.353 127.024L147.383 127.044V127.084C147.373 127.45 147.353 144.531 147.353 152.139C147.353 154.646 147.353 156.162 147.353 156.241V156.35L147.373 156.34ZM131.085 146.799L147.254 156.132C147.254 155.716 147.254 154.17 147.254 152.139C147.254 144.669 147.274 128.064 147.284 127.123C141.894 124.012 136.504 120.901 131.115 117.79C131.115 118.276 131.115 120.456 131.115 123.923V126.529C131.115 128.857 131.115 131.403 131.115 133.9V137.813C131.115 139.636 131.115 141.321 131.115 142.737V144.124C131.115 145.601 131.115 146.611 131.115 146.809L131.085 146.799Z" fill="#0D2527"/>
<path d="M130.976 133.949L91.4553 111.123L91.5148 111.024L91.5346 111.034L131.045 133.84L130.976 133.949Z" fill="#0D2527"/>
<path d="M137.406 147.75C137.406 148.325 137.396 148.91 137.396 149.484V149.544L137.158 149.415V149.276C137.158 148.692 137.158 148.305 137.168 147.74C137.168 146.849 137.188 145.927 137.168 145.026C137.168 144.719 137.158 144.402 137.148 144.095C137.128 143.371 137.119 142.638 137.138 141.905C137.138 141.766 137.138 141.638 137.148 141.509C137.178 140.399 137.198 139.666 136.851 138.398C136.722 137.932 136.554 137.467 136.395 137.021C136.306 136.783 136.227 136.535 136.138 136.288C136.078 136.109 136.019 135.921 135.959 135.743C135.751 135.089 135.533 134.405 135.206 133.811C134.81 133.097 134.226 132.463 133.651 131.849L133.552 131.74C133.136 131.294 132.73 130.838 132.323 130.393C132.165 130.214 132.006 130.036 131.848 129.868V129.511L131.937 129.61C132.125 129.818 132.313 130.026 132.502 130.234C132.898 130.67 133.314 131.126 133.72 131.582L133.819 131.69C134.394 132.315 134.988 132.959 135.405 133.702C135.751 134.316 135.969 135.009 136.177 135.683C136.237 135.862 136.296 136.05 136.356 136.228C136.435 136.476 136.524 136.714 136.603 136.951C136.762 137.407 136.93 137.873 137.059 138.348C137.416 139.656 137.396 140.439 137.366 141.529C137.366 141.657 137.366 141.786 137.356 141.925C137.336 142.648 137.356 143.391 137.366 144.104C137.366 144.422 137.376 144.729 137.386 145.046C137.396 145.957 137.386 146.879 137.386 147.77L137.406 147.75Z" fill="#0D2527"/>
<path d="M140.923 151.585C140.923 151.099 140.923 150.693 140.923 150.217C140.923 149.494 140.923 148.751 140.923 148.008C140.923 147.77 140.923 147.532 140.923 147.295C140.923 146.571 140.903 145.819 140.923 145.085C140.923 144.947 140.923 144.798 140.933 144.659C140.943 144.204 140.963 143.738 140.933 143.272C140.933 143.173 140.933 143.084 140.923 142.985C140.903 142.589 140.883 142.182 140.953 141.786C141.062 141.202 141.369 140.637 141.676 140.092C141.825 139.825 141.973 139.557 142.102 139.29C142.132 139.23 142.152 139.181 142.181 139.121C142.31 138.834 142.439 138.537 142.667 138.299C142.845 138.111 143.083 137.972 143.34 137.893C143.707 137.794 144.093 137.833 144.46 137.883C144.529 137.883 144.599 137.902 144.678 137.902C145.054 137.942 145.421 137.952 145.778 137.952C146.005 137.952 146.243 137.952 146.471 137.972V138.21C146.223 138.2 145.996 138.19 145.768 138.19C145.401 138.19 145.025 138.18 144.648 138.14C144.579 138.14 144.5 138.12 144.43 138.111C144.083 138.071 143.717 138.021 143.4 138.111C143.192 138.17 142.984 138.289 142.835 138.447C142.637 138.646 142.518 138.933 142.399 139.2C142.369 139.26 142.35 139.319 142.32 139.379C142.191 139.656 142.043 139.934 141.884 140.201C141.587 140.726 141.29 141.271 141.19 141.816C141.121 142.182 141.141 142.579 141.161 142.965C141.161 143.064 141.171 143.153 141.171 143.252C141.19 143.728 141.171 144.204 141.171 144.659C141.171 144.798 141.171 144.937 141.161 145.085C141.141 145.819 141.161 146.562 141.161 147.295C141.161 147.532 141.161 147.77 141.161 148.008C141.161 148.751 141.161 149.494 141.161 150.217C141.161 150.693 141.161 151.238 141.161 151.723L140.923 151.585Z" fill="#0D2527"/>
<path d="M81.3398 117.265C81.3398 116.681 81.3398 116.096 81.3497 115.522C81.3497 114.63 81.3695 113.709 81.3497 112.807C81.3497 112.49 81.3398 112.183 81.3299 111.876C81.3101 111.162 81.3002 110.419 81.32 109.686C81.32 109.547 81.32 109.409 81.3299 109.29C81.3596 108.18 81.3795 107.447 81.0327 106.189C80.9039 105.723 80.7355 105.258 80.577 104.812C80.4878 104.574 80.4085 104.326 80.3194 104.079C80.2599 103.9 80.2005 103.712 80.141 103.534C79.933 102.88 79.715 102.196 79.3881 101.602C78.9918 100.878 78.3973 100.244 77.8326 99.6301L77.7434 99.531C77.3471 99.0951 76.9508 98.6691 76.5645 98.2332C76.3564 98.0053 76.1583 97.7774 75.9502 97.5595L76.0493 97.4604L76.1186 97.4009C76.3267 97.6288 76.5347 97.8567 76.7428 98.0845C77.1292 98.5106 77.5255 98.9465 77.9218 99.3824L78.0109 99.4815C78.5856 100.106 79.1899 100.75 79.5961 101.503C79.9429 102.117 80.1608 102.81 80.3689 103.484C80.4283 103.662 80.4878 103.851 80.5472 104.029C80.6265 104.277 80.7157 104.514 80.7949 104.752C80.9534 105.208 81.1219 105.674 81.2507 106.149C81.6073 107.447 81.5875 108.24 81.5578 109.329C81.5578 109.458 81.5578 109.587 81.5479 109.726C81.5281 110.449 81.5479 111.192 81.5578 111.905C81.5578 112.222 81.5677 112.53 81.5776 112.847C81.5875 113.758 81.5776 114.679 81.5776 115.571C81.5776 116.136 81.5677 116.73 81.5677 117.305H81.3299L81.3398 117.265Z" fill="#0D2527"/>
<path d="M85.1046 119.435C85.1046 118.95 85.1046 118.474 85.1046 117.998C85.1046 117.275 85.1046 116.532 85.1046 115.789C85.1046 115.551 85.1046 115.304 85.1046 115.056C85.1046 114.323 85.0947 113.57 85.1046 112.837C85.1046 112.708 85.1046 112.569 85.1145 112.44C85.1244 111.965 85.1442 111.519 85.1145 111.043C85.1145 110.944 85.1145 110.855 85.1046 110.756C85.0848 110.36 85.065 109.954 85.1343 109.557C85.2433 108.963 85.5505 108.408 85.8576 107.863C86.0062 107.596 86.1548 107.328 86.2836 107.061C86.3133 107.001 86.3331 106.952 86.3629 106.892C86.4917 106.605 86.6205 106.308 86.8483 106.07C87.0267 105.882 87.2644 105.733 87.522 105.664C87.8886 105.565 88.2651 105.604 88.6317 105.654C88.701 105.654 88.7803 105.674 88.8496 105.674C89.2162 105.713 89.5927 105.723 89.9394 105.723C90.1673 105.723 90.4051 105.723 90.6528 105.743V105.981C90.4051 105.971 90.1673 105.961 89.9394 105.961C89.5828 105.961 89.2063 105.941 88.8298 105.911C88.7605 105.911 88.6812 105.892 88.6118 105.882C88.2651 105.842 87.9084 105.802 87.5914 105.882C87.3833 105.941 87.1753 106.06 87.0267 106.219C86.8285 106.417 86.7096 106.704 86.5907 106.971C86.561 107.031 86.5412 107.09 86.5115 107.15C86.3827 107.427 86.2341 107.705 86.0855 107.972C85.7882 108.497 85.491 109.042 85.3919 109.587C85.3226 109.954 85.3424 110.35 85.3622 110.736C85.3622 110.835 85.3721 110.925 85.3721 111.024C85.3919 111.509 85.3721 111.985 85.3721 112.44C85.3721 112.569 85.3721 112.708 85.3721 112.837C85.3523 113.56 85.3721 114.313 85.3721 115.046C85.3721 115.294 85.3721 115.531 85.3721 115.779C85.3721 116.512 85.3721 117.265 85.3721 117.989C85.3721 118.464 85.3721 118.95 85.3721 119.425H85.1343L85.1046 119.435Z" fill="#0D2527"/>
<path d="M152.584 148.553H152.574C151.841 148.167 151.355 143.936 150.741 138.576C150.276 134.494 149.75 129.877 149.027 126.489L148.869 125.994L149.087 126.469H149.146C149.869 129.868 150.404 134.494 150.87 138.576C151.435 143.47 151.96 148.097 152.633 148.464L152.643 148.474L152.604 148.513L152.584 148.573V148.553Z" fill="#0D2527"/>
<path d="M111.32 112.49H111.201V122.477H111.32V112.49Z" fill="#0D2527"/>
<path d="M151.95 158.094V154.884C151.95 154.884 151.95 154.834 151.95 154.814L147.313 152.139C147.313 154.557 147.313 156.152 147.313 156.241C147.313 156.241 150.86 158.252 152.237 159.015C152.049 158.797 151.96 158.49 151.96 158.104L151.95 158.094ZM151.068 157.608L148.908 156.36V154.785L151.068 156.033V157.608Z" fill="#0D2527"/>
<path d="M148.908 154.785L151.068 156.033V157.608L148.908 156.36V154.785Z" fill="#F8A11E"/>
<path d="M56.3335 74.4851H56.2146V90.7134H56.3335V74.4851Z" fill="#0D2527"/>
<path d="M151.603 100.492L137.584 108.586C135.395 106.645 131.689 103.435 129.173 101.988L106.742 89.0391C105.028 88.0483 103.146 87.4539 101.135 87.5431L115.154 79.4487C117.165 79.3595 119.038 79.9441 120.761 80.9447L143.192 93.8937C145.708 95.3501 149.433 98.5601 151.603 100.492Z" fill="#2CA798"/>
<path d="M137.584 108.586C137.029 108.903 135.504 108.408 134.899 108.19C133.056 107.536 131.075 106.446 129.381 105.466L103.939 90.7828C103.067 90.2775 100.937 89.0886 100.818 88.1078C100.788 87.8601 100.907 87.662 101.125 87.5431C103.136 87.4539 105.018 88.0484 106.732 89.0391L129.163 101.988C131.679 103.444 135.385 106.645 137.574 108.586H137.584Z" fill="#113438"/>
<path d="M150.622 98.6889C148.819 97.1335 146.204 94.9836 144.172 93.7947C136.692 89.475 129.222 85.1554 121.742 80.8457C119.761 79.7063 117.868 79.2407 115.946 79.2704C115.748 79.2704 115.144 79.4487 115.144 79.4487C117.155 79.3596 119.027 79.9441 120.751 80.9448L143.182 93.8937C145.698 95.3501 149.423 98.5601 151.593 100.492C151.781 100.383 151.801 100.195 151.732 99.9868C151.534 99.4419 150.711 98.7484 150.256 98.3917L150.622 98.6988V98.6889Z" fill="#113438"/>
<path d="M154.575 138.566C153.753 139.042 152.931 139.517 152.108 139.993C152.108 139.993 152.168 139.953 152.188 139.924C152.356 139.735 152.356 139.299 152.356 139.032C152.346 138.348 152.178 136.406 152.148 136.159C152.079 135.435 151.97 134.365 151.762 133.741C151.603 133.236 151.346 132.83 150.87 132.404H150.85C151.048 132.067 150.85 131.641 150.632 131.324C149.919 130.323 147.769 128.936 146.659 128.233C147.016 128.035 147.373 127.817 147.729 127.619C147.729 127.619 147.828 127.599 147.898 127.638C151.811 129.897 152.891 130.531 153.515 131.155C154.159 131.799 154.328 132.453 154.476 133.513C154.625 134.564 154.744 136.03 154.803 137.149C154.843 137.843 154.853 138.408 154.585 138.576L154.575 138.566Z" fill="#43D0BE"/>
<path d="M151.871 139.032C151.871 139.24 151.871 139.636 151.752 139.785C151.623 139.924 151.375 139.834 151.207 139.755C151.187 139.567 150.642 134.484 150.622 134.375C150.602 134.296 150.593 134.217 150.573 134.138V132.77C150.979 133.127 151.177 133.454 151.306 133.86C151.494 134.435 151.603 135.505 151.672 136.188C151.692 136.426 151.861 138.358 151.871 139.032Z" fill="#0D2527"/>
<path d="M151.128 139.834C150.721 135.743 150.622 134.673 150.484 134.078V133.999C150.484 133.573 150.484 133.147 150.484 132.731V132.642L150.513 132.562C151.009 131.79 148.859 130.284 148.106 129.759C147.591 129.402 146.976 128.996 146.431 128.649V128.58C146.431 128.52 146.441 128.461 146.481 128.411C146.481 128.411 146.53 128.332 146.61 128.282C146.639 128.272 146.659 128.253 146.689 128.243C147.799 128.946 149.949 130.333 150.662 131.334C150.88 131.641 151.078 132.077 150.88 132.404H150.9C151.375 132.84 151.633 133.246 151.791 133.751C151.999 134.375 152.108 135.455 152.178 136.169C152.207 136.416 152.366 138.358 152.386 139.042C152.386 139.309 152.386 139.745 152.217 139.933C152.188 139.963 152.168 139.983 152.138 140.003C151.831 140.171 151.474 140.003 151.167 139.844L151.128 139.834ZM150.563 134.138C150.583 134.217 150.602 134.296 150.612 134.375C150.632 134.484 151.177 139.567 151.197 139.755C151.375 139.834 151.623 139.924 151.742 139.785C151.871 139.636 151.871 139.24 151.861 139.032C151.851 138.348 151.682 136.426 151.663 136.188C151.593 135.505 151.484 134.445 151.296 133.86C151.167 133.454 150.969 133.127 150.563 132.77V134.138Z" fill="#20415E"/>
<path d="M150.464 132.632V132.721C150.325 132.325 150.048 131.978 149.721 131.651C148.899 130.809 147.561 129.907 146.57 129.273C146.481 129.214 146.451 129.144 146.451 129.144C146.422 129.095 146.412 129.045 146.412 128.986V128.629C146.957 128.976 147.571 129.382 148.086 129.739C148.839 130.264 150.989 131.77 150.494 132.543L150.464 132.622V132.632Z" fill="#0D2527"/>
<path d="M60.1975 43.7721C59.6427 43.7424 59.1473 44.0495 58.6717 44.317C58.1962 44.5945 57.7404 44.8917 57.2748 45.1889L54.5007 46.9821C52.648 48.1809 50.7656 49.3302 48.8634 50.4299L43.0478 53.5607L40.1251 55.0963C39.1541 55.6016 38.1634 56.1168 37.3906 56.9094C38.9065 55.2647 41.0167 54.4226 42.8793 53.2733L48.6454 50.0534C50.5675 48.9834 52.44 47.8342 54.3224 46.7047L57.1658 45.0205C57.6414 44.753 58.1268 44.4855 58.6222 44.2378C59.1077 44 59.6427 43.7226 60.1975 43.792V43.7721Z" fill="white"/>
<path d="M146.293 121C145.807 119.762 145.569 118.405 145.748 117.057C145.976 115.7 146.758 114.531 147.581 113.491C149.255 111.41 151.346 109.617 153.783 108.438C156.22 107.308 158.796 106.526 161.411 106.01C163.997 105.505 166.88 105.357 169.248 106.704C168.059 106.1 166.722 105.882 165.404 105.872C164.086 105.842 162.769 106.03 161.471 106.298C158.885 106.853 156.349 107.685 153.971 108.834C151.583 109.934 149.503 111.648 147.809 113.669C146.976 114.679 146.204 115.799 145.956 117.087C145.718 118.365 145.877 119.742 146.293 120.99V121Z" fill="white"/>
<path d="M52.2814 98.5997V100.175L50.1216 98.9267V97.3514L52.2814 98.5997Z" fill="#F8A11E"/>
<path style="mix-blend-mode:screen" opacity="0.6" d="M178.195 134.415C178.195 134.524 178.145 134.623 178.086 134.702C178.026 134.782 177.937 134.851 177.848 134.9L159.143 145.7L158.231 146.225L168.218 122.031L171.17 114.888C171.477 114.709 171.775 114.541 172.082 114.362C172.835 113.926 173.578 113.5 174.331 113.065C174.608 112.906 174.677 112.678 174.588 112.46C175.391 113.996 175.965 115.69 176.233 117.483C176.808 121.644 177.353 125.825 177.907 129.996C178.105 131.512 178.214 132.998 178.214 134.425L178.195 134.415Z" fill="url(#paint0_linear_208_2021)"/>
<path fill-rule="evenodd" clip-rule="evenodd" d="M38.583 56.4722L141.171 116.644C141.336 114.993 142.26 111.294 144.638 109.709C144.886 109.543 145.179 109.34 145.514 109.108C148.533 107.012 154.93 102.571 162.157 102.576C164.614 103.995 167.072 105.414 169.529 106.833C168.07 106.097 166.321 105.92 164.681 106.014C161.53 106.183 156.121 107.718 152.931 109.64C150.979 110.819 149.186 112.504 147.908 114.168C146.838 115.555 146.194 116.823 146.253 118.527C146.283 119.191 146.431 120.291 146.689 121.004C146.695 121.02 146.703 121.04 146.711 121.063C146.729 121.111 146.751 121.172 146.778 121.232C146.975 121.698 147.316 122.317 147.724 123.059C148.28 124.07 148.961 125.308 149.572 126.691L128.14 114.32C49.262 68.7874 37.43 61.9574 35.6666 60.9159C35.7195 60.8036 35.7811 60.6913 35.8428 60.579C35.8736 60.5229 35.9044 60.4667 35.9341 60.4106C35.9924 60.3078 36.1324 60.0652 36.2951 59.7832C36.603 59.2497 36.9923 58.5751 37.0636 58.439C37.0768 58.4136 37.0898 58.3885 37.1027 58.3636C37.3419 57.903 37.5376 57.526 37.876 57.1312C38.0758 56.8998 38.3191 56.6796 38.583 56.4722ZM169.529 106.833C169.594 106.871 169.659 106.908 169.724 106.946V106.936C169.659 106.9 169.594 106.866 169.529 106.833Z" fill="#2CA798"/>
<defs>
<linearGradient id="paint0_linear_208_2021" x1="163.135" y1="113.857" x2="168.743" y2="138.447" gradientUnits="userSpaceOnUse">
<stop stop-color="white"/>
<stop offset="1"/>
</linearGradient>
</defs>
</svg>
