<svg xmlns="http://www.w3.org/2000/svg" width="28" height="28" viewBox="0 0 28 28" fill="none">
  <rect x="3.5" y="6.125" width="21" height="15.75" fill="#F8D169"/>
  <path d="M3.5 9.33325L12.705 15.4699C13.0884 15.7257 13.5391 15.8623 14 15.8623C14.4609 15.8623 14.9116 15.7257 15.295 15.4699L24.5 9.33325M5.83333 22.1666H22.1667C22.7855 22.1666 23.379 21.9207 23.8166 21.4832C24.2542 21.0456 24.5 20.4521 24.5 19.8333V8.16658C24.5 7.54775 24.2542 6.95425 23.8166 6.51667C23.379 6.07908 22.7855 5.83325 22.1667 5.83325H5.83333C5.21449 5.83325 4.621 6.07908 4.18342 6.51667C3.74583 6.95425 3.5 7.54775 3.5 8.16658V19.8333C3.5 20.4521 3.74583 21.0456 4.18342 21.4832C4.621 21.9207 5.21449 22.1666 5.83333 22.1666Z" stroke="#FDF5E0" stroke-width="1.75" stroke-linecap="round" stroke-linejoin="round"/>
</svg>