<svg xmlns="http://www.w3.org/2000/svg" width="24" height="24" viewBox="0 0 24 24" fill="none">
  <path d="M21.6771 20.0994L17.8995 16.3329C19.1183 14.7801 19.7797 12.8626 19.7772 10.8886C19.7772 9.13061 19.2559 7.41209 18.2792 5.95036C17.3025 4.48864 15.9143 3.34937 14.2901 2.67661C12.6659 2.00385 10.8787 1.82783 9.15453 2.1708C7.43031 2.51376 5.84651 3.36032 4.60342 4.60342C3.36032 5.84651 2.51376 7.43031 2.1708 9.15453C1.82783 10.8787 2.00385 12.6659 2.67661 14.2901C3.34937 15.9143 4.48864 17.3025 5.95036 18.2792C7.41209 19.2559 9.13061 19.7772 10.8886 19.7772C12.8626 19.7797 14.7801 19.1183 16.3329 17.8995L20.0994 21.6771C20.2027 21.7813 20.3256 21.8639 20.461 21.9204C20.5964 21.9768 20.7416 22.0058 20.8883 22.0058C21.035 22.0058 21.1802 21.9768 21.3156 21.9204C21.451 21.8639 21.5739 21.7813 21.6771 21.6771C21.7813 21.5739 21.8639 21.451 21.9204 21.3156C21.9768 21.1802 22.0058 21.035 22.0058 20.8883C22.0058 20.7416 21.9768 20.5964 21.9204 20.461C21.8639 20.3256 21.7813 20.2027 21.6771 20.0994ZM4.22215 10.8886C4.22215 9.57011 4.61314 8.28122 5.34565 7.18492C6.07817 6.08863 7.11933 5.23418 8.33747 4.72961C9.5556 4.22504 10.896 4.09302 12.1892 4.35025C13.4823 4.60748 14.6702 5.24239 15.6025 6.17471C16.5348 7.10703 17.1697 8.29488 17.427 9.58805C17.6842 10.8812 17.5522 12.2216 17.0476 13.4397C16.543 14.6579 15.6886 15.699 14.5923 16.4316C13.496 17.1641 12.2071 17.5551 10.8886 17.5551C9.12055 17.5551 7.42492 16.8527 6.17471 15.6025C4.92451 14.3523 4.22215 12.6567 4.22215 10.8886Z" fill="#202020"/>
</svg>