<svg width="118" height="53" viewBox="0 0 118 53" fill="none" xmlns="http://www.w3.org/2000/svg">
    <rect x="4.2793" y="0.512695" width="114" height="42" rx="10" transform="rotate(5.1 4.2793 0.512695)" fill="white" fill-opacity="0.79"/>
    <path d="M41.6076 19.8038L41.4994 21.0158C41.3577 22.5268 41.2064 24.2222 40.5272 26.6803L38.8383 26.3786C39.443 24.1403 39.6067 22.4597 39.7417 21.0237L32.3201 20.3613L32.4428 18.9859L41.6076 19.8038ZM30.4511 28.691L30.5775 27.2748L32.9878 27.4899L33.3354 23.5952L35.0649 23.7496L34.7173 27.6442L36.0791 27.7658L36.4267 23.8711L38.1425 24.0242L37.7949 27.9189L41.8802 28.2835L41.7538 29.6998L30.4511 28.691ZM53.9277 26.2566L53.8062 27.6184L42.4762 26.6072L42.5978 25.2454L47.3912 25.6732L47.4593 24.9106L44.0821 24.6092L44.5573 19.2847L53.1501 20.0516L53.031 21.3861L46.1812 20.7748L46.1192 21.4693L52.683 22.0551L52.5712 23.3079L46.0074 22.7221L45.9442 23.4303L52.9029 24.0513L52.7838 25.3858L49.2023 25.0662L49.1343 25.8288L53.9277 26.2566ZM43.565 29.3261C43.6817 28.0188 45.3133 27.4232 48.0902 27.6847C50.8217 27.9148 52.329 28.7905 52.2259 30.099C52.0932 31.4324 50.4565 32.0069 47.7268 31.7564C44.9481 31.5153 43.4459 30.6606 43.565 29.3261ZM45.3081 29.4816C45.2471 30.0115 46.0571 30.3172 47.841 30.4764C49.5841 30.6319 50.4286 30.474 50.4828 29.9435C50.5222 29.4254 49.7196 29.1136 47.9759 28.9648C46.1926 28.7988 45.3406 28.963 45.3081 29.4816ZM65.3445 20.8379L64.2361 33.2573L62.4794 33.1005L63.5878 20.6811L65.3445 20.8379ZM54.7311 29.4853L55.4931 20.947L57.2362 21.1026L56.9664 24.1257L59.6354 24.3639L59.9052 21.3408L61.6211 21.4939L60.8591 30.0322L54.7311 29.4853ZM56.5993 28.2383L59.2684 28.4765L59.5151 25.7121L56.846 25.4739L56.5993 28.2383ZM71.5006 28.3054L71.1189 32.5813L69.1035 32.4015L69.7634 25.007L71.6836 25.1784L71.5681 26.4721L71.6498 26.4794C72.0594 25.658 72.8972 25.1906 73.9935 25.2885C75.5391 25.4264 76.4526 26.5717 76.292 28.2937L75.8715 33.0055L73.8697 32.8268L74.2586 28.4691C74.3333 27.5562 73.8916 26.9677 73.0541 26.8929C72.2166 26.8182 71.5875 27.3317 71.5006 28.3054ZM88.0121 22.861L87.752 25.7752L89.0048 25.887L88.8784 27.3032L87.6256 27.1914L87.3449 30.3371L85.6563 30.1864L86.3235 22.7103L88.0121 22.861ZM77.2837 28.643L77.8063 22.7874L79.209 22.9126L79.0656 24.5195L79.869 24.5912L80.0124 22.9843L81.4151 23.1095L80.8925 28.9651L77.2837 28.643ZM78.8079 27.4065L79.6114 27.4782L79.7487 25.9394L78.9452 25.8676L78.8079 27.4065ZM78.4703 32.1119C78.6028 30.6275 80.3475 29.9185 83.0507 30.1597C85.7334 30.3992 87.3318 31.4066 87.1993 32.8909C87.065 34.3957 85.3122 35.1177 82.6301 34.8715C79.9264 34.637 78.336 33.6166 78.4703 32.1119ZM80.2542 32.2711C80.1867 32.9514 81.0322 33.3974 82.748 33.5506C84.4366 33.7013 85.375 33.4144 85.4426 32.7341C85.4972 32.0458 84.6208 31.6382 82.9328 31.4807C81.2163 31.3343 80.3088 31.5828 80.2542 32.2711ZM81.4235 29.0125L81.9461 23.1569L83.3488 23.2821L83.2054 24.889L83.9816 24.9582L84.125 23.3513L85.5412 23.4777L85.0186 29.3334L81.4235 29.0125ZM82.9477 27.7759L83.7239 27.8452L83.8613 26.3064L83.085 26.2371L82.9477 27.7759Z" fill="#5EC7B9"/>
</svg>
