<svg width="214" height="214" viewBox="0 0 214 214" fill="none" xmlns="http://www.w3.org/2000/svg">
<circle cx="109.14" cy="107" r="68.48" fill="#E5EBFF"/>
<g style="mix-blend-mode:multiply" opacity="0.3">
<path d="M201.717 168.601L201.646 168.562L27.2113 66.8256L20.6166 70.6356L20.5377 70.5883L13.8563 74.4457L11.4898 75.8104L11.4583 75.8262L11.4977 75.8498C11.4977 75.8498 11.4977 75.8814 11.4977 75.8972C11.4977 75.8972 11.5214 76.0076 11.6081 76.1338C11.6555 76.189 17.272 82.4208 17.556 82.7127C17.7374 82.902 17.9109 83.0598 18.1239 83.186C19.7962 84.1484 21.4686 85.1187 23.1409 86.081L169.02 170.281C170.693 171.244 172.365 172.214 174.037 173.176C174.274 173.318 174.582 173.413 174.85 173.5C175.362 173.665 186.154 176.908 186.248 176.931C186.643 177.042 187.163 177.018 187.518 176.813L201.741 168.601H201.717Z" fill="#353535"/>
</g>
<path d="M152.384 104.966C151.887 105.116 150.64 105.234 150.333 105.384C150.333 105.384 134.398 114.582 134.359 114.605C134.209 114.7 133.42 115.284 132.884 115.749L124.238 110.338C124.719 109.92 125.358 109.446 125.902 109.06C125.981 109.005 127.22 108.16 127.496 107.979C127.985 107.664 128.466 107.356 128.955 107.048C129.563 106.67 132.237 105.06 132.97 104.634C133.215 104.492 137.964 101.826 138.445 101.566C138.752 101.408 140.456 100.54 140.638 100.454C140.78 100.383 141.687 99.9724 141.726 99.9566C142.176 99.7594 142.72 99.5385 143.202 99.4044L143.604 99.507L152.399 104.966H152.384Z" fill="#102844"/>
<path d="M131.661 147.176L123.165 142.049C122.992 141.812 122.913 141.481 122.85 141.142C122.605 139.864 122.503 137.986 122.439 136.598C122.4 135.738 122.266 120.553 122.282 119.441C122.29 118.66 122.313 117.879 122.353 117.082C122.479 114.637 122.755 112.255 124.23 110.346L132.876 115.757C131.409 117.666 131.125 120.009 130.998 122.415C130.959 123.204 130.935 123.977 130.927 124.75C130.912 125.846 131.038 140.834 131.069 141.686C131.117 142.901 131.251 146.048 131.653 147.192L131.661 147.176Z" fill="#091B32"/>
<path d="M79.1087 64.246L63.1506 73.4596C56.8241 69.8073 31.5262 55.1981 25.1997 51.5458C23.3775 50.4966 21.2398 50.0312 19.1494 49.6683L37.4898 39.0743C38.6257 40.3759 39.4303 41.3382 41.15 42.3322C47.4764 45.9845 72.7744 60.5937 79.1009 64.246H79.1087Z" fill="#E6E0DE"/>
<path d="M80.5997 63.6702C80.9625 63.7254 81.3096 63.8438 81.6251 64.0252L89.2453 68.2455C88.7641 68.3875 88.2356 68.6004 87.7702 68.8055C87.7307 68.8213 86.8236 69.2394 86.6816 69.3025C86.5001 69.3893 84.7963 70.257 84.4886 70.4148C83.9995 70.6751 79.2586 73.3414 79.0141 73.4833C78.2805 73.9093 75.6063 75.5185 74.9989 75.8972C74.5098 76.2048 74.0287 76.5125 73.5396 76.828C73.2635 77.0094 72.025 77.8535 71.9461 77.9087C71.4018 78.2952 70.7629 78.7764 70.2817 79.1866L61.636 74.6114C62.1882 74.1381 62.985 73.5543 63.1191 73.4676C63.1585 73.4439 79.0851 64.2461 79.093 64.2461C79.4085 64.0883 80.0948 63.8201 80.5918 63.6702H80.5997Z" fill="#102844"/>
<path d="M69.2326 110.89L60.4292 106.031C60.0269 104.895 59.8928 101.731 59.8454 100.532C59.8139 99.6805 59.6877 84.7005 59.7034 83.5962C59.735 81.6083 59.806 79.1235 60.3424 77.246C60.6422 76.2127 61.0681 75.3607 61.6519 74.6113L70.2975 79.1866C68.8145 81.1113 68.5384 83.5015 68.4201 85.9232C68.3806 86.72 68.3649 87.5009 68.3491 88.2819C68.3333 89.3941 68.4674 104.579 68.5069 105.439C68.57 106.827 68.6725 108.705 68.917 109.983C68.9802 110.33 69.059 110.661 69.2326 110.89Z" fill="#091B32"/>
<path d="M30.8163 85.2764C40.519 90.8772 50.2217 96.4779 59.9243 102.087C59.9401 102.386 59.9559 102.639 59.9638 102.765C60.019 103.57 60.1531 105.305 60.4292 106.046C50.7265 100.446 41.0238 94.845 31.3212 89.2443C31.0529 88.5107 30.8952 86.7594 30.8084 85.2843L30.8163 85.2764Z" fill="#102844"/>
<path d="M30.7532 84.0458C40.4559 89.6465 50.1585 95.2473 59.8612 100.848C59.877 101.258 59.9007 101.708 59.9243 102.071C50.2216 96.4699 40.519 90.8692 30.8163 85.2606C30.7926 84.811 30.769 84.3929 30.7532 84.0379V84.0458Z" fill="#95AAF4"/>
<path d="M59.8612 100.856C50.1585 95.2552 40.4558 89.6545 30.7532 84.0537C30.7453 83.7776 30.7295 83.5489 30.7216 83.3595C30.7137 83.1229 30.7058 82.7443 30.6979 82.2631C40.4006 87.8638 50.0954 93.4645 59.7981 99.0653H59.8139C59.8139 99.4518 59.8139 99.7121 59.8217 99.8146C59.8217 99.9961 59.8454 100.398 59.8691 100.856H59.8612Z" fill="#102844"/>
<path d="M33.6245 37.82C32.5438 37.6544 31.4394 37.7648 30.4928 38.2618C31.5341 37.7096 32.7568 37.5518 33.9085 37.7017C34.7446 37.8043 35.5729 37.9384 36.417 38.0961C36.5274 38.1198 36.6299 38.1513 36.7325 38.2066C36.8745 38.2854 37.0086 38.3564 37.1427 38.4353C37.1427 38.4353 37.1427 38.4353 37.1506 38.4353C51.815 46.8995 66.4716 55.3637 81.136 63.8279C80.9862 63.7412 80.8126 63.6859 80.6154 63.6544C80.1658 63.7885 79.6373 63.9936 79.2113 64.1829C79.1797 64.1987 79.1482 64.2145 79.1166 64.2302C72.7902 60.5779 47.4922 45.9687 41.1657 42.3164C39.4461 41.3225 38.6336 40.3601 37.5055 39.0585C37.3636 38.9717 37.2216 38.885 37.0875 38.7982C36.4485 38.3959 35.7386 38.1356 34.9892 38.0093C34.5395 37.9305 34.0899 37.8674 33.6324 37.8043L33.6245 37.82Z" fill="#D7CDCA"/>
<path d="M14.298 47.6016C19.6542 44.5093 25.0025 41.4171 30.3587 38.3328C30.3587 38.3328 30.3587 38.3328 30.3666 38.3328C30.4061 38.3091 30.4455 38.2854 30.4928 38.2618C31.4394 37.7648 32.5438 37.6622 33.6245 37.82C34.0741 37.8752 34.5317 37.9462 34.9813 38.0251C35.7228 38.1513 36.4406 38.4195 37.0796 38.8139C37.2216 38.9007 37.3636 38.9875 37.4977 39.0743L19.1494 49.6604C18.542 49.4474 16.3884 48.3194 15.9704 48.0039C15.4813 47.6805 14.866 47.428 14.3138 47.6173L14.298 47.5937V47.6016Z" fill="#102844"/>
<path d="M23.4486 63.2443C23.5038 63.2285 23.5196 63.2285 23.5906 63.2443C23.6537 63.26 23.6774 63.2679 23.7405 63.3074C25.5706 64.3644 27.4007 65.4214 29.2308 66.4785C29.5069 66.6362 29.7356 67.0307 29.7356 67.362C29.7356 67.8195 29.7672 79.0683 29.8224 81.2139C29.8461 82.1526 29.8855 83.2965 29.9328 84.2194C29.9328 84.3535 29.9092 84.4482 29.8461 84.5034C29.8145 84.5349 29.7908 84.5428 29.7435 84.5586C29.6883 84.5665 29.6725 84.5665 29.6094 84.5586C29.5463 84.5428 29.5226 84.5349 29.4595 84.4955C23.5748 81.0956 23.9535 81.3165 23.9219 81.3007C23.63 81.1035 23.4407 80.7406 23.4249 80.4645C23.3776 79.581 23.3539 78.8238 23.3303 77.9324C23.2356 74.7613 23.2277 64.2461 23.2277 63.6071C23.2277 63.473 23.2672 63.3784 23.3382 63.3074C23.3776 63.2758 23.4013 63.26 23.4486 63.2521V63.2443Z" fill="#102844"/>
<path d="M29.6882 84.6138C29.6882 84.6138 29.6409 84.6138 29.6014 84.598C29.5304 84.5822 29.5068 84.5743 29.4358 84.527L26.9273 83.0834C24.9078 81.9212 23.8955 81.3348 23.8902 81.3243C23.5668 81.1035 23.3854 80.7169 23.3775 80.4566C23.3381 79.6441 23.3065 78.9105 23.2828 77.9245C23.1882 74.7691 23.1803 64.2618 23.1803 63.5992C23.1803 63.4493 23.2197 63.3389 23.3065 63.2679C23.3538 63.2284 23.3854 63.2127 23.4406 63.1969C23.5037 63.1811 23.5274 63.1811 23.5984 63.1969C23.6694 63.2127 23.693 63.2206 23.764 63.26L25.4679 64.246C26.7301 64.9718 27.9922 65.7054 29.2543 66.4311C29.5462 66.5968 29.7829 67.0149 29.7829 67.3541C29.7829 67.8274 29.8144 79.0762 29.8696 81.206C29.9012 82.3025 29.9406 83.399 29.9801 84.2115C29.9801 84.3613 29.9564 84.4639 29.8775 84.5349C29.8381 84.5743 29.8065 84.5901 29.7513 84.598C29.7197 84.598 29.704 84.6059 29.6803 84.6059L29.6882 84.6138ZM23.5116 63.2837C23.5116 63.2837 23.4801 63.2837 23.4564 63.2916C23.4169 63.2994 23.4012 63.3073 23.3696 63.3389C23.3065 63.3941 23.275 63.4809 23.275 63.5992C23.275 64.2618 23.2828 74.7691 23.3775 77.9245C23.4091 78.9105 23.4327 79.6441 23.4722 80.4566C23.4801 80.6933 23.6536 81.0482 23.9455 81.2533C23.9455 81.2533 24.2452 81.4348 26.9667 83.0046L29.4752 84.4481C29.5383 84.4797 29.5541 84.4955 29.6172 84.5033C29.6724 84.5191 29.6803 84.5191 29.7276 84.5033C29.7671 84.4955 29.7829 84.4876 29.8065 84.4639C29.8617 84.4087 29.8854 84.3298 29.8775 84.2115C29.8381 83.399 29.7986 82.3025 29.7671 81.206C29.7119 79.084 29.6803 67.8274 29.6803 67.3541C29.6803 67.0464 29.4673 66.6678 29.1991 66.5179C27.937 65.7843 26.6748 65.0585 25.4127 64.3328L23.7088 63.3468C23.6457 63.3073 23.6299 63.3073 23.5668 63.2916C23.5353 63.2916 23.5195 63.2837 23.5037 63.2837H23.5116Z" fill="#102844"/>
<path d="M14.3138 47.6252C14.866 47.4359 15.4813 47.6804 15.9703 48.0118C16.3884 48.3194 18.542 49.4553 19.1494 49.6683C21.2398 50.0391 23.3775 50.4966 25.1997 51.5457C31.5262 55.198 56.8241 69.8073 63.1506 73.4596L63.056 73.5227C62.5905 73.8619 62.0857 74.2405 61.6518 74.6192C60.5553 76.0549 60.1215 77.7114 59.9164 79.4942C21.9024 57.533 19.2519 56.0184 19.102 55.9001C19.102 55.9001 19.102 55.8922 19.102 55.8843C19.102 55.8843 19.102 55.8843 19.102 55.8764C18.7313 54.5039 18.187 53.1786 17.3824 51.7666C16.8302 50.7885 16.0887 49.9365 15.1894 49.2581C15.1894 49.2581 15.1894 49.2581 15.1815 49.2502C14.1166 48.5639 13.5013 48.2721 13.1384 48.84C13.3514 48.3904 13.6591 47.996 14.1008 47.7357C14.1718 47.6962 14.2428 47.6489 14.3138 47.6094L14.3296 47.6331L14.3138 47.6252Z" fill="#D7CDCA"/>
<path d="M45.3071 88.3765C45.3071 88.7078 45.5517 89.0865 45.8278 89.2442C57.2265 95.8231 56.6033 95.4839 56.7374 95.5076C56.9109 95.5313 57.0529 95.4208 57.0529 95.1526C57.0056 92.4627 57.0056 82.7442 57.0135 82.0974C57.0135 81.7582 56.7847 81.3717 56.5165 81.2139C45.1336 74.6429 45.7331 74.9663 45.599 74.9505C45.4255 74.9269 45.2677 75.0452 45.2677 75.3134C45.2677 75.8735 45.2677 86.1757 45.3071 88.3686V88.3765ZM32.0547 67.7011C32.0547 67.8826 32.0547 69.0895 32.0547 70.7145C32.0547 74.0907 32.0705 79.2734 32.0942 80.7564C32.0942 81.0877 32.3387 81.4742 32.6148 81.6241C44.0135 88.203 43.3982 87.8717 43.5244 87.8874C43.6979 87.9111 43.8478 87.8007 43.8399 87.5325C43.8084 85.726 43.8005 80.7564 43.8005 77.4827C43.8005 75.8814 43.8005 74.6902 43.8005 74.4772C43.8005 74.138 43.5717 73.7515 43.3035 73.5937C31.9127 67.0149 32.528 67.3462 32.386 67.3304C32.2125 67.3067 32.0547 67.4251 32.0547 67.6933V67.7011ZM19.102 55.9002C19.2519 56.0185 21.9103 57.5409 59.9164 79.4863C59.8691 79.8965 59.8375 80.3146 59.8059 80.7406C59.7823 81.0561 59.7823 95.476 59.8059 99.0653H59.7902C50.0875 93.4645 40.3927 87.8638 30.69 82.263C30.6269 78.453 30.5717 68.0088 30.5796 67.4487C30.5796 66.794 30.1378 66.0051 29.5857 65.6817C22.7543 61.7375 23.3539 62.0689 23.1803 62.0136C22.6912 61.8638 22.3836 62.1951 22.3836 62.7078C22.3836 63.3468 22.3836 70.257 22.3836 71.7558C22.3915 73.0573 22.4073 77.2539 22.6045 80.5434C18.96 78.4372 19.1967 78.5871 19.0941 78.4845C19.3387 77.2066 19.4965 75.6289 19.599 74.0907C19.6858 74.1775 19.6937 74.1696 20.4588 74.6113C20.5219 74.6508 20.5535 74.6587 20.6087 74.6744C20.6718 74.6902 20.6876 74.6902 20.7428 74.6744C20.7901 74.6666 20.8138 74.6508 20.8532 74.6192C20.9242 74.5561 20.9558 74.4615 20.9558 74.3274C20.9164 72.1344 20.9085 61.8322 20.9164 61.2721C20.9164 60.9803 20.7428 60.6174 20.4588 60.4123C20.4273 60.3886 20.4115 60.3807 19.8751 60.0731C19.8041 60.0337 19.7647 60.0021 19.7094 59.9548C19.6148 58.4875 19.4255 57.1702 19.0784 55.8923L19.102 55.9002Z" fill="#6687FC"/>
<path d="M17.5402 81.1271C17.6743 81.1744 17.7453 81.2297 17.8794 81.1902C18.0766 81.135 18.2344 80.9457 18.3527 80.78C18.6682 80.2988 18.9127 79.4784 19.1021 78.4766C19.2046 78.5792 18.9601 78.4293 22.6124 80.5355C22.7228 82.3261 22.8806 83.8486 23.1172 84.4876C21.4449 83.5252 19.7726 82.5549 18.1002 81.5925C17.8873 81.4663 17.7137 81.3085 17.5323 81.1192L17.5402 81.1271Z" fill="#102844"/>
<path d="M15.1816 49.2581C16.073 49.9365 16.8224 50.7885 17.3746 51.7666C18.1792 53.1786 18.7235 54.5039 19.0942 55.8765C18.9364 55.7187 18.1082 54.8746 17.84 54.5985C17.2483 53.9754 13.2726 49.6368 13.1701 49.5106C13.0438 49.3686 12.9886 49.195 13.036 49.0373C13.0596 48.9663 13.0912 48.9032 13.1227 48.8322C13.4856 48.2721 14.1088 48.564 15.1658 49.2423C15.1658 49.2423 15.1658 49.2423 15.1737 49.2502L15.1816 49.2581Z" fill="#102844"/>
<path d="M11.0953 69.6338C11.261 69.8941 11.5134 70.2096 11.7185 70.4542C12.7756 71.7242 17.2562 76.6623 19.102 78.4845C18.9127 79.4863 18.6682 80.2988 18.3526 80.7879C18.2422 80.9615 18.0765 81.1508 17.8793 81.1981C17.7452 81.2375 17.6742 81.1823 17.5401 81.135C17.2562 80.8352 11.6396 74.6113 11.5923 74.5561C11.5055 74.4299 11.4819 74.3195 11.4819 74.3195C11.3399 73.1047 11.2216 72.2685 11.0953 70.5488C11.0717 70.186 11.048 69.8152 11.0244 69.4445C11.0244 69.5076 11.048 69.5707 11.0953 69.6338Z" fill="#102844"/>
<path d="M11.0008 66.2102C11.2059 66.581 11.6082 67.0543 11.8764 67.3777C12.0499 67.5828 12.1919 67.5197 12.2156 67.2357C12.2708 66.2891 12.5706 62.5027 12.6573 61.635C12.965 58.5191 13.32 56.3971 13.5882 55.0246C13.8327 53.8019 14.0062 53.1787 14.022 52.9894C14.0457 52.7369 13.9747 52.453 13.8721 52.2242C13.7538 51.956 13.7617 52.0112 12.7914 50.9226C12.6889 50.8043 12.6573 50.6781 12.6731 50.5676C12.7204 50.3073 12.7757 50.0549 12.823 49.7946C12.8703 49.5343 12.9413 49.2818 13.036 49.0373C12.9808 49.2029 13.036 49.3686 13.1701 49.5185C13.2805 49.6368 17.2484 53.9833 17.84 54.6065C18.1082 54.8826 18.9365 55.7266 19.0942 55.8844C19.0942 55.8844 19.0942 55.8844 19.0942 55.8923C19.0942 55.8923 19.0863 55.8923 19.0942 55.9081C19.4413 57.186 19.6227 58.5033 19.7253 59.9706C19.6937 59.939 19.6543 59.9074 19.607 59.8601C17.6112 57.9511 15.1264 55.1271 15.0002 55.0561C14.874 54.9851 14.7951 55.0561 14.7635 55.1823C14.022 58.3613 13.6039 62.1162 13.3515 65.3583C13.2411 66.8334 13.249 66.7388 13.2647 66.8808C13.2884 67.1411 13.4225 67.5276 13.596 67.7248C15.1579 69.476 17.9031 72.4815 19.5991 74.0986C19.4965 75.6368 19.3388 77.2145 19.0942 78.4924C17.2484 76.6702 12.7678 71.7242 11.7107 70.4621C11.5135 70.2175 11.2611 69.9099 11.0875 69.6417C11.0481 69.5786 11.0244 69.5155 11.0166 69.4524H11.0323C10.9771 68.3322 10.9456 67.1805 10.9456 66.0367C10.9456 66.0998 10.9613 66.1629 11.0008 66.2181V66.2102Z" fill="#95AAF4"/>
<path d="M23.3302 77.9244C23.3538 78.8158 23.3854 79.5731 23.4248 80.4566C23.4406 80.7248 23.6299 81.0876 23.9218 81.2927C23.9534 81.3164 23.5747 81.0955 29.4594 84.4875C29.5225 84.527 29.5462 84.5349 29.6093 84.5506C29.6724 84.5664 29.6882 84.5664 29.7434 84.5506C29.7907 84.5427 29.8144 84.527 29.846 84.4954C29.9091 84.4323 29.9406 84.3376 29.9327 84.2114C29.8854 83.2885 29.846 82.1447 29.8223 81.206C29.7671 79.0603 29.7355 67.8115 29.7355 67.354C29.7355 67.0227 29.5068 66.6362 29.2307 66.4705C27.4006 65.4135 25.5705 64.3564 23.7404 63.2994C23.6694 63.26 23.6536 63.2521 23.5905 63.2363C23.5274 63.2205 23.5116 63.2205 23.4485 63.2363C23.4012 63.2442 23.3775 63.26 23.3381 63.2915C23.2671 63.3546 23.2276 63.4572 23.2276 63.5913C23.2276 64.2302 23.2276 74.7454 23.3302 77.9165V77.9244ZM23.1882 62.0057C23.3617 62.0609 22.7622 61.7296 29.5935 65.6738C30.1457 65.9972 30.5953 66.7861 30.5875 67.4408C30.5875 68.0087 30.6348 78.445 30.6979 82.2551C30.7058 82.7442 30.7137 83.1228 30.7216 83.3516C30.7216 83.533 30.7373 83.7697 30.7531 84.0458C30.7689 84.4008 30.7847 84.8267 30.8162 85.2685C30.903 86.7357 31.0529 88.4948 31.329 89.2205C28.5917 87.6429 25.8623 86.0652 23.1251 84.4875C22.8805 83.8407 22.7228 82.3182 22.6202 80.5355C22.423 77.246 22.4072 73.0573 22.3993 71.7478C22.3915 70.249 22.3915 63.3388 22.3993 62.6999C22.3993 62.1793 22.7149 61.8558 23.1961 62.0057H23.1882Z" fill="#95AAF4"/>
<path d="M31.4157 89.3389L31.2974 89.2758C28.5602 87.6981 25.8308 86.1204 23.0935 84.5428H23.0777V84.5191C22.8648 83.9432 22.6912 82.6022 22.565 80.5513C22.3757 77.4354 22.352 73.4754 22.3441 71.9924V71.7636C22.3362 70.3358 22.3284 63.3783 22.3441 62.7157C22.3441 62.4159 22.4467 62.1714 22.6281 62.0452C22.7859 61.9347 22.9831 61.9111 23.204 61.9742C23.2118 61.9742 23.2197 61.9742 23.2276 61.9742C23.2802 61.9847 24.0743 62.4343 25.6099 63.3231C26.525 63.8516 27.8186 64.601 29.6251 65.6423C30.193 65.9736 30.6506 66.7782 30.6427 67.4487C30.6427 67.9378 30.6821 78.3977 30.7531 82.263C30.761 82.7758 30.7689 83.1308 30.7768 83.3595C30.7768 83.5409 30.7926 83.7776 30.8083 84.0458C30.8241 84.4875 30.8478 84.8899 30.8714 85.2685C30.9898 87.2958 31.1633 88.621 31.3763 89.2127L31.4236 89.3389H31.4157ZM23.1566 84.4639C25.8466 86.0179 28.5444 87.5719 31.2343 89.1259C31.0371 88.4791 30.8714 87.1854 30.761 85.2764C30.7373 84.8977 30.7216 84.4954 30.6979 84.0537C30.69 83.7776 30.6742 83.5488 30.6663 83.3595C30.6585 83.1308 30.6506 82.7679 30.6427 82.2551C30.5796 78.3898 30.5244 67.9299 30.5322 67.4408C30.5322 66.8019 30.0984 66.0288 29.562 65.7211C27.7555 64.6799 26.4697 63.9305 25.5468 63.402C23.346 62.1319 23.2592 62.0767 23.1961 62.0688C23.1882 62.0688 23.1803 62.0688 23.1645 62.061C22.9673 61.9978 22.8017 62.0215 22.6676 62.1162C22.5098 62.2266 22.423 62.4396 22.423 62.7157C22.423 63.3783 22.423 70.3358 22.423 71.7636V71.9924C22.4309 73.4833 22.4546 77.4354 22.6439 80.5513C22.7622 82.5786 22.9358 83.8959 23.1409 84.4797L23.1566 84.4639ZM29.6882 84.6138C29.6882 84.6138 29.6409 84.6138 29.6014 84.598C29.5304 84.5822 29.5068 84.5743 29.4358 84.527L26.9273 83.0834C24.9078 81.9212 23.8955 81.3348 23.8902 81.3243C23.5668 81.1034 23.3854 80.7169 23.3775 80.4566C23.3381 79.6441 23.3065 78.9105 23.2828 77.9244C23.1882 74.7691 23.1803 64.2618 23.1803 63.5992C23.1803 63.4493 23.2197 63.3389 23.3065 63.2679C23.3538 63.2284 23.3854 63.2127 23.4406 63.1969C23.5037 63.1811 23.5274 63.1811 23.5984 63.1969C23.6694 63.2127 23.693 63.2205 23.764 63.26L25.4679 64.246C26.7301 64.9718 27.9922 65.7054 29.2543 66.4311C29.5462 66.5968 29.7829 67.0148 29.7829 67.354C29.7829 67.8273 29.8144 79.0761 29.8696 81.206C29.9012 82.3025 29.9406 83.399 29.9801 84.2115C29.9801 84.3613 29.9564 84.4639 29.8775 84.5349C29.8381 84.5743 29.8065 84.5901 29.7513 84.598C29.7197 84.598 29.704 84.6059 29.6803 84.6059L29.6882 84.6138ZM23.5116 63.2836C23.5116 63.2836 23.4801 63.2836 23.4564 63.2915C23.4169 63.2994 23.4012 63.3073 23.3696 63.3389C23.3065 63.3941 23.275 63.4809 23.275 63.5992C23.275 64.2618 23.2828 74.7691 23.3775 77.9244C23.4091 78.9105 23.4327 79.6441 23.4722 80.4566C23.4801 80.6932 23.6536 81.0482 23.9455 81.2533C23.9455 81.2533 24.2452 81.4348 26.9667 83.0045L29.4752 84.4481C29.5383 84.4797 29.5541 84.4954 29.6172 84.5033C29.6724 84.5191 29.6803 84.5191 29.7276 84.5033C29.7671 84.4954 29.7828 84.4875 29.8065 84.4639C29.8617 84.4087 29.8854 84.3298 29.8775 84.2115C29.8381 83.399 29.7986 82.3025 29.7671 81.206C29.7119 79.084 29.6803 67.8273 29.6803 67.354C29.6803 67.0464 29.4673 66.6678 29.1991 66.5179C27.937 65.7843 26.6748 65.0585 25.4127 64.3328L23.7088 63.3468C23.6457 63.3073 23.6299 63.3073 23.5668 63.2915C23.5353 63.2915 23.5195 63.2836 23.5037 63.2836H23.5116Z" fill="#102844"/>
<path d="M45.599 74.9584C45.7331 74.9742 45.1336 74.6508 56.5165 81.2218C56.7847 81.3796 57.0214 81.7661 57.0135 82.1053C57.0056 82.7442 57.0056 92.4706 57.0529 95.1605C57.0529 95.4287 56.9109 95.5392 56.7374 95.5155C56.6033 95.4997 57.2186 95.831 45.8278 89.2521C45.5517 89.0944 45.315 88.7078 45.3071 88.3844C45.2677 86.1915 45.2598 75.8893 45.2677 75.3292C45.2677 75.061 45.4255 74.9427 45.599 74.9663V74.9584Z" fill="#102844"/>
<path d="M56.7767 95.5628C56.7767 95.5628 56.7452 95.5628 56.7215 95.5628C56.7215 95.5628 56.7215 95.5628 56.7136 95.5628C56.661 95.5628 55.2227 94.745 52.3987 93.1095C50.8447 92.2103 48.7148 90.9797 45.7961 89.2916C45.4964 89.118 45.2597 88.7157 45.2518 88.3844C45.2124 86.2467 45.2045 75.9366 45.2124 75.3292C45.2124 75.1399 45.2834 75.0452 45.3465 74.99C45.4175 74.9269 45.5043 74.9032 45.5989 74.919C45.5989 74.919 45.5989 74.919 45.6068 74.919C45.6594 74.919 47.1004 75.7367 49.9296 77.3723C51.4836 78.2715 53.6135 79.5021 56.5243 81.1823C56.8241 81.3559 57.0528 81.7582 57.0449 82.1053C57.0371 82.831 57.037 92.4863 57.0844 95.1526C57.0844 95.3419 57.0213 95.4366 56.9661 95.4839C56.9108 95.5313 56.8477 95.5549 56.7688 95.5549L56.7767 95.5628ZM45.5595 75.0058C45.5043 75.0058 45.4491 75.0215 45.4096 75.061C45.3465 75.1162 45.315 75.2108 45.315 75.3292C45.3071 75.9366 45.315 86.2467 45.3544 88.3844C45.3544 88.6842 45.5832 89.0628 45.8514 89.2127C48.7701 90.9008 50.8999 92.1314 52.4539 93.0306C56.3508 95.2867 56.6742 95.4681 56.7215 95.4681C56.7215 95.4681 56.7373 95.4681 56.7452 95.4681C56.8162 95.476 56.8714 95.4681 56.9187 95.4208C56.9739 95.3656 57.0055 95.2788 57.0055 95.1605C56.9582 92.4942 56.9582 82.831 56.9661 82.1053C56.9661 81.7976 56.761 81.419 56.4928 81.2612C53.5819 79.581 51.4521 78.3504 49.8981 77.4511C45.9934 75.1951 45.6699 75.0058 45.6226 75.0058C45.6226 75.0058 45.6068 75.0058 45.5989 75.0058C45.5832 75.0058 45.5753 75.0058 45.5674 75.0058H45.5595Z" fill="#102844"/>
<path d="M43.8399 87.5325C43.8399 87.7928 43.6979 87.9111 43.5244 87.8874C43.3903 87.8717 44.0055 88.203 32.6148 81.6241C32.3466 81.4663 32.102 81.0877 32.0941 80.7564C32.0705 79.2733 32.0547 74.0986 32.0547 70.7145C35.9673 72.9705 39.872 75.2266 43.7847 77.4906H43.7926C43.7926 80.7564 43.8004 85.7339 43.832 87.5403L43.8399 87.5325Z" fill="#102844"/>
<path d="M43.5717 87.9347C43.5717 87.9347 43.5402 87.9347 43.5165 87.9347C43.4639 87.9347 42.0282 87.1196 39.2095 85.4893C37.6476 84.5901 35.5177 83.3516 32.5911 81.6635C32.2914 81.4899 32.0547 81.0876 32.0468 80.7484C32.0232 79.2497 32.0074 73.925 32.0074 70.7066V70.6277L32.0784 70.6671C34.6894 72.1738 37.3005 73.6805 39.9115 75.1872L43.8005 77.4274H43.8478V77.4748C43.8478 81.0324 43.8636 85.797 43.8872 87.5167C43.8872 87.6981 43.8241 87.8006 43.7689 87.848C43.7137 87.8953 43.6427 87.919 43.5717 87.919V87.9347ZM32.102 70.7933C32.102 74.0118 32.1178 79.2654 32.1415 80.7484C32.1415 81.0561 32.3702 81.4268 32.6385 81.5767C35.565 83.2648 37.7028 84.5033 39.2568 85.4026C43.1457 87.6508 43.4613 87.8322 43.5086 87.8322C43.5086 87.8322 43.5244 87.8322 43.5323 87.8322C43.6033 87.8401 43.6585 87.8322 43.7058 87.7849C43.761 87.7296 43.7926 87.6429 43.7926 87.5245C43.761 85.8049 43.7531 81.064 43.7531 77.5142L39.8721 75.2739C37.2847 73.783 34.6973 72.2842 32.1099 70.7933H32.102Z" fill="#102844"/>
<path d="M32.3939 67.3382C32.528 67.354 31.9206 67.0227 43.3114 73.6016C43.5796 73.7593 43.8084 74.1459 43.8084 74.4851C43.8084 74.6981 43.8084 75.8892 43.8084 77.4905H43.8005C39.8879 75.2345 35.9831 72.9784 32.0705 70.7144C32.0705 69.0894 32.0705 67.8825 32.0705 67.7011C32.0705 67.4329 32.2283 67.3146 32.4018 67.3382H32.3939Z" fill="#102844"/>
<path d="M43.8479 77.53H43.7769L39.8721 75.2739C37.2611 73.7673 34.65 72.2606 32.039 70.7539L32.0153 70.7381V70.7145C32.0153 69.1289 32.0153 67.8904 32.0153 67.7011C32.0153 67.5118 32.0863 67.4171 32.1494 67.3619C32.2204 67.2988 32.3072 67.2752 32.4097 67.2909C32.4097 67.2909 32.4097 67.2909 32.4176 67.2909C32.4702 67.2909 33.919 68.1139 36.7641 69.76C38.3181 70.6593 40.4401 71.8819 43.343 73.5622C43.6428 73.7357 43.8636 74.138 43.8636 74.4851C43.8636 74.6981 43.8636 75.905 43.8636 77.4906V77.5379L43.8479 77.53ZM32.1021 70.6829C34.7052 72.1896 37.3084 73.6884 39.9116 75.1951L43.7453 77.4117C43.7453 75.8577 43.7453 74.6902 43.7453 74.4772C43.7453 74.1696 43.5402 73.7909 43.272 73.6332C40.3691 71.9608 38.2471 70.7302 36.6931 69.831C32.7726 67.567 32.4492 67.3777 32.394 67.3777C32.394 67.3777 32.3782 67.3777 32.3703 67.3777C32.2993 67.3698 32.2362 67.3856 32.1889 67.425C32.1258 67.4802 32.0942 67.5749 32.0942 67.6932C32.0942 67.8747 32.0942 69.1289 32.0942 70.675L32.1021 70.6829Z" fill="#102844"/>
<path d="M12.6651 50.5598C12.6494 50.6781 12.6809 50.8044 12.7835 50.9227C13.7537 52.0192 13.7458 51.9639 13.8642 52.2243C13.9667 52.453 14.0377 52.737 14.0141 52.9894C13.9904 53.1787 13.8168 53.8019 13.5802 55.0246C13.3278 54.7406 12.4837 53.794 12.2865 53.5653C12.1918 53.4548 12.1524 53.3286 12.1682 53.2182C12.3259 52.3426 12.4916 51.4591 12.6651 50.5598Z" fill="#102844"/>
<path d="M13.6117 55.135L13.5486 55.064C13.2804 54.7642 12.4443 53.8255 12.2549 53.6047C12.1524 53.4863 12.1051 53.3522 12.1287 53.2181C12.2786 52.3583 12.4443 51.4906 12.6257 50.5519V50.4966L12.7282 50.5282V50.5676C12.7046 50.6781 12.744 50.7885 12.8308 50.8911C13.0832 51.175 13.2647 51.3801 13.4066 51.5379C13.8011 51.9797 13.8247 52.0033 13.9194 52.2084C14.0377 52.4766 14.0929 52.7685 14.0772 52.9973C14.0693 53.084 14.0298 53.2418 13.9667 53.51C13.8878 53.8413 13.7774 54.3462 13.6354 55.0324L13.6196 55.1271L13.6117 55.135ZM12.6651 50.8201C12.4995 51.6641 12.3575 52.453 12.2155 53.226C12.1997 53.3286 12.2392 53.439 12.3259 53.5337C12.4995 53.7388 13.2331 54.567 13.5565 54.922C13.6827 54.2752 13.7932 53.8019 13.8642 53.4863C13.9194 53.2339 13.9588 53.0604 13.9667 52.9815C13.9904 52.7606 13.9352 52.4924 13.8168 52.24C13.7301 52.0506 13.7143 52.0349 13.3199 51.5931C13.1779 51.4354 12.9965 51.2303 12.744 50.9463C12.7046 50.9068 12.6809 50.8595 12.6573 50.8122L12.6651 50.8201Z" fill="#102844"/>
<path d="M20.9241 61.2722C20.9241 60.9803 20.7506 60.6174 20.4666 60.4123C20.4351 60.3887 20.4193 60.3808 19.8829 60.0731C19.8119 60.0337 19.7725 60.0021 19.7172 59.9548C19.6857 59.9233 19.6462 59.8917 19.5989 59.8444C17.6032 57.9354 15.1183 55.1114 14.9921 55.0404C14.8659 54.9694 14.787 55.0404 14.7555 55.1666C14.014 58.3456 13.5959 62.1005 13.3434 65.3426C13.233 66.8177 13.2409 66.723 13.2567 66.865C13.2803 67.1253 13.4144 67.5119 13.588 67.7091C15.1499 69.4603 17.895 72.4657 19.591 74.0829C19.6778 74.1696 19.6857 74.1617 20.4508 74.6035C20.514 74.6429 20.5455 74.6508 20.6007 74.6666C20.6638 74.6824 20.6796 74.6824 20.7348 74.6666C20.7822 74.6587 20.8058 74.6429 20.8453 74.6114C20.9163 74.5483 20.9478 74.4536 20.9478 74.3195C20.9084 72.1266 20.9005 61.8244 20.9084 61.2643L20.9241 61.2722Z" fill="#102844"/>
<path d="M20.6955 74.7296C20.6955 74.7296 20.6482 74.7296 20.6166 74.7217C20.5535 74.706 20.5141 74.6902 20.4509 74.6507L20.1039 74.4456C19.6779 74.2011 19.6621 74.1932 19.5832 74.1222C17.6821 72.3 14.5031 68.7818 13.5802 67.7405C13.3909 67.5276 13.2568 67.1331 13.2331 66.8728V66.8413C13.2173 66.7387 13.2173 66.7072 13.3199 65.3425C13.6354 61.2405 14.1087 57.817 14.7319 55.1586C14.7556 55.064 14.795 55.0008 14.8581 54.9772C14.8975 54.9614 14.9607 54.9535 15.0395 55.0008C15.0869 55.0245 15.2999 55.2612 15.8205 55.8291C16.7513 56.8388 18.3053 58.5269 19.6463 59.8127L19.6779 59.8443C19.6779 59.8443 19.741 59.8995 19.7647 59.9232C19.812 59.9705 19.8514 60.0021 19.9224 60.0415C20.4588 60.3492 20.4746 60.357 20.5062 60.3807C20.7823 60.5779 20.9874 60.9566 20.9795 61.28C20.9716 61.8953 20.9795 72.229 21.0189 74.3273C21.0189 74.4772 20.9795 74.5876 20.9006 74.6586C20.8611 74.6981 20.8296 74.7138 20.7744 74.7217C20.7428 74.7217 20.7192 74.7296 20.7034 74.7296H20.6955ZM14.9133 55.064C14.9133 55.064 14.8975 55.064 14.8897 55.064C14.8581 55.0797 14.8344 55.1192 14.8187 55.1823C14.1955 57.8328 13.7222 61.2563 13.4066 65.3583C13.3041 66.7072 13.3041 66.7387 13.312 66.8413V66.8728C13.3356 67.1174 13.4619 67.4881 13.6354 67.6853C14.5583 68.7187 17.7374 72.2448 19.6384 74.0591C19.7094 74.1222 19.7252 74.1301 20.1433 74.3746L20.4983 74.5797C20.5535 74.6113 20.585 74.6271 20.6403 74.635C20.6955 74.6507 20.7113 74.6429 20.7586 74.635C20.798 74.6271 20.8138 74.6192 20.8454 74.5876C20.9085 74.5324 20.9321 74.4535 20.9321 74.3273C20.8927 72.2211 20.8848 61.8874 20.8927 61.2721C20.8927 60.9802 20.7113 60.6331 20.4588 60.4517C20.4273 60.428 20.4115 60.4201 19.883 60.1125C19.812 60.0731 19.7647 60.0336 19.7094 59.9863C19.6858 59.9626 19.6542 59.939 19.6227 59.9074L19.5911 59.8759C18.2422 58.5822 16.6882 56.8941 15.7574 55.8922C15.3551 55.4584 15.0395 55.1113 14.9922 55.0797C14.9685 55.064 14.9449 55.0561 14.9212 55.0561L14.9133 55.064Z" fill="#102844"/>
<path d="M12.1761 53.226C12.1604 53.3365 12.1998 53.4627 12.2945 53.5731C12.4917 53.794 13.3278 54.7485 13.5882 55.0324C13.32 56.405 12.965 58.527 12.6573 61.6429C12.5706 62.5106 12.2787 66.297 12.2156 67.2436C12.1998 67.5197 12.0499 67.5828 11.8764 67.3856C11.6003 67.0622 11.2059 66.5889 11.0008 66.2181C10.9692 66.155 10.9456 66.0998 10.9456 66.0367C10.9456 65.2715 10.9613 64.5064 10.985 63.7649C11.1112 60.081 11.5608 56.7206 12.1683 53.2418L12.1761 53.226Z" fill="#102844"/>
<path d="M12.0577 67.5434C12.0025 67.5434 11.9236 67.5118 11.8368 67.4093C11.5134 67.0227 11.1506 66.5889 10.9534 66.2339C10.9139 66.1629 10.8981 66.0998 10.8981 66.0288C10.8981 65.2794 10.9139 64.5142 10.9376 63.757C11.048 60.4754 11.4188 57.2333 12.1287 53.226L12.2234 53.2418C12.2076 53.3443 12.247 53.4627 12.3338 53.5573C12.5231 53.7782 13.3593 54.7169 13.6275 55.0167L13.6433 55.0324V55.0561C13.2725 56.9178 12.957 59.1423 12.7046 61.6587C12.6178 62.5422 12.3259 66.3286 12.2628 67.2515C12.2549 67.4093 12.1997 67.5197 12.1129 67.5434C12.0972 67.5434 12.0814 67.5434 12.0656 67.5434H12.0577ZM12.176 53.4863C11.4976 57.3753 11.1427 60.5464 11.0322 63.7491C11.0086 64.5064 10.9928 65.2715 10.9928 66.013C10.9928 66.0683 11.0086 66.1235 11.0401 66.1787C11.2373 66.5258 11.5923 66.9596 11.9157 67.3383C11.9788 67.4172 12.0419 67.4487 12.0814 67.4408C12.1287 67.4251 12.1603 67.3462 12.1682 67.2278C12.2234 66.3049 12.5152 62.5106 12.6099 61.6271C12.8623 59.1107 13.17 56.8941 13.5407 55.0324C13.2568 54.7169 12.4521 53.8098 12.2628 53.5889C12.2313 53.5494 12.2076 53.51 12.1839 53.4706L12.176 53.4863Z" fill="#102844"/>
<path d="M202.561 159.806C202.561 160.137 202.561 160.468 202.561 160.8C202.546 161.604 202.522 162.314 202.483 162.961C202.467 163.127 202.348 163.269 202.167 163.371C202.214 162.653 202.238 161.864 202.246 160.965C202.246 160.729 202.246 160.484 202.246 160.239C202.443 160.121 202.404 160.129 202.435 160.097C202.506 160.019 202.554 159.916 202.554 159.813L202.561 159.806Z" fill="#95AAF4"/>
<path d="M202.254 160.239C202.254 160.484 202.254 160.721 202.254 160.965C202.246 161.864 202.214 162.661 202.175 163.371C191.644 169.453 189.183 170.889 188.536 171.244C188.662 170.439 188.733 169.619 188.757 168.759C188.757 168.522 188.765 168.278 188.765 168.041C199.374 161.92 201.709 160.579 202.262 160.239H202.254Z" fill="#95AAF4"/>
<path d="M201.71 167.023C201.915 165.903 202.072 164.783 202.159 163.371C202.333 163.269 202.459 163.127 202.475 162.961C202.388 164.381 202.23 165.501 202.017 166.645C201.994 166.787 201.883 166.929 201.71 167.023Z" fill="#102844"/>
<path d="M202.167 163.371C202.08 164.783 201.923 165.903 201.717 167.023L187.495 175.235C187.968 173.902 188.315 172.593 188.528 171.236C189.175 170.881 191.636 169.445 202.167 163.363V163.371Z" fill="#102844"/>
<path d="M202.569 159.806C202.569 159.908 202.522 160.011 202.451 160.09C202.42 160.121 202.451 160.113 202.262 160.232C201.82 160.5 200.227 161.415 194.121 164.941C192.622 165.809 190.855 166.826 188.765 168.033C188.757 165.414 188.299 162.622 187.771 160.058C187.313 157.794 186.722 155.404 186.099 153.045C189.498 151.089 192.89 149.133 196.282 147.168C197.868 146.253 199.453 145.33 201.039 144.415C201.252 144.289 201.37 144.108 201.347 143.918C202.009 149.164 202.569 154.718 202.577 159.798L202.569 159.806Z" fill="#425082"/>
<path d="M188.71 168.12V168.041C188.694 165.193 188.142 162.133 187.716 160.074C187.29 157.999 186.73 155.641 186.043 153.061L186.028 152.998H186.075C189.491 151.034 192.914 149.062 196.251 147.129C197.836 146.214 199.422 145.299 201 144.376H201.008C201.205 144.258 201.315 144.092 201.292 143.926V143.871H201.378V143.911C201.954 148.423 202.609 154.307 202.609 159.798V159.845C202.593 159.94 202.554 160.034 202.475 160.121C202.475 160.121 202.475 160.129 202.467 160.137C202.451 160.161 202.427 160.184 202.278 160.279C201.938 160.484 200.944 161.06 197.647 162.961L194.137 164.988C193.269 165.493 192.307 166.045 191.242 166.661L188.71 168.12ZM186.146 153.069C186.832 155.641 187.392 157.991 187.81 160.05C188.228 162.093 188.781 165.122 188.804 167.954L191.194 166.574C192.259 165.958 193.214 165.406 194.089 164.901L197.6 162.874C200.897 160.973 201.891 160.405 202.222 160.192C202.372 160.105 202.38 160.09 202.388 160.074C202.388 160.074 202.396 160.058 202.404 160.05C202.475 159.971 202.514 159.884 202.514 159.798V159.75C202.514 154.386 201.883 148.651 201.323 144.195C201.268 144.289 201.181 144.376 201.055 144.447H201.047C199.461 145.37 197.876 146.285 196.29 147.208C192.961 149.133 189.546 151.105 186.138 153.061L186.146 153.069Z" fill="#102844"/>
<path d="M200.842 140.156C201.008 141.386 201.173 142.648 201.339 143.926C201.363 144.116 201.244 144.297 201.031 144.423C200.874 143.145 200.7 141.883 200.534 140.645C200.747 140.519 200.866 140.345 200.842 140.156Z" fill="#102844"/>
<path d="M200.487 137.907C200.574 138.31 200.645 138.704 200.7 139.106C200.747 139.454 200.794 139.801 200.842 140.156C200.865 140.337 200.747 140.519 200.534 140.645C200.479 140.242 200.424 139.84 200.368 139.438C200.321 139.106 200.258 138.775 200.187 138.436C200.408 138.31 200.534 138.12 200.487 137.907Z" fill="#95AAF4"/>
<path d="M187.637 146.924C187.716 147.318 188.023 147.445 188.284 147.295C191.258 145.575 194.239 143.855 197.213 142.136C197.505 141.97 197.655 141.528 197.584 141.181C197.545 140.992 197.529 140.889 197.466 140.755C197.347 140.534 197.095 140.408 196.85 140.55C193.877 142.27 190.895 143.989 187.921 145.709C187.692 145.843 187.582 146.143 187.574 146.411C187.566 146.593 187.605 146.711 187.645 146.932L187.637 146.924ZM200.369 139.438C200.424 139.84 200.479 140.235 200.534 140.645C195.415 143.619 190.272 146.585 185.12 149.543C185.01 149.164 184.907 148.793 184.797 148.431C184.71 148.123 184.6 147.815 184.474 147.508C189.704 144.479 194.949 141.457 200.187 138.436C200.258 138.775 200.321 139.114 200.369 139.438Z" fill="#95AAF4"/>
<path d="M196.842 140.55C197.087 140.408 197.339 140.534 197.458 140.755C197.521 140.881 197.537 140.984 197.576 141.181C197.647 141.528 197.505 141.97 197.205 142.136C194.231 143.855 191.25 145.575 188.276 147.295C188.015 147.445 187.708 147.318 187.629 146.924C187.582 146.711 187.542 146.585 187.558 146.403C187.566 146.135 187.676 145.835 187.905 145.701C190.879 143.982 193.861 142.262 196.835 140.542L196.842 140.55Z" fill="#091B32"/>
<path d="M197.544 132.441C197.387 132.536 180.056 142.538 179.89 142.633C179.133 142.262 178.171 141.82 177.405 141.481C176.948 141.039 176.49 140.621 176.025 140.211C174.952 138.602 174.053 137.466 172.365 136.48C166.038 132.827 140.74 118.218 134.414 114.566L150.372 105.352C156.699 109.005 181.996 123.614 188.323 127.266C190.177 128.339 192.236 128.915 194.373 129.617C194.981 129.94 195.588 130.279 196.203 130.627C196.582 131.116 197.126 131.833 197.552 132.433L197.544 132.441Z" fill="#E6E0DE"/>
<path d="M187.66 168.183C187.787 168.207 187.897 168.215 187.984 168.215C188.236 168.215 188.536 168.159 188.757 168.033C188.757 168.278 188.757 168.514 188.749 168.751C188.725 169.611 188.646 170.431 188.528 171.236C188.276 171.37 188.299 171.346 188.221 171.362C187.952 171.433 187.66 171.441 187.376 171.386C187.526 170.573 187.621 169.745 187.653 168.885C187.653 168.656 187.66 168.42 187.66 168.183Z" fill="#95AAF4"/>
<path d="M186.225 175.354C186.548 174.478 186.682 174.083 186.809 173.657C187.037 172.908 187.235 172.151 187.376 171.386C187.66 171.449 187.952 171.433 188.221 171.362C188.292 171.346 188.276 171.362 188.528 171.236C188.315 172.593 187.968 173.894 187.495 175.235C187.14 175.44 186.627 175.464 186.225 175.354Z" fill="#102844"/>
<path d="M185.12 149.543C190.271 146.585 195.415 143.619 200.534 140.645C200.7 141.875 200.873 143.137 201.031 144.423C196.061 147.303 191.084 150.182 186.091 153.045C185.775 151.862 185.452 150.687 185.12 149.543Z" fill="#102844"/>
<path d="M183.827 149.645C184.008 149.693 184.048 149.701 184.134 149.708C184.442 149.74 184.836 149.709 185.12 149.543C185.444 150.687 185.775 151.862 186.091 153.045C185.815 153.203 185.42 153.25 185.12 153.219C185.042 153.211 184.994 153.211 184.813 153.156C184.489 151.965 184.158 150.789 183.835 149.645H183.827Z" fill="#102844"/>
<path d="M182.091 149.133C183.148 149.448 183.598 149.582 183.827 149.645C184.15 150.781 184.482 151.957 184.805 153.156C184.521 153.077 183.992 152.919 182.375 152.438L182.21 152.367C181.752 150.758 181.445 149.716 181.437 149.637C181.437 149.59 181.421 149.511 181.429 149.456C181.46 149.204 181.713 149.022 182.091 149.133Z" fill="#102844"/>
<path d="M183.085 147.587C183.196 147.618 183.259 147.642 183.275 147.642C183.661 147.713 184.142 147.697 184.474 147.508C184.6 147.807 184.71 148.115 184.797 148.431C184.907 148.801 185.01 149.172 185.12 149.543C184.836 149.708 184.442 149.748 184.134 149.708C184.048 149.701 184.008 149.693 183.827 149.645C183.74 149.353 183.661 149.07 183.574 148.786C183.456 148.375 183.29 147.973 183.077 147.579L183.085 147.587Z" fill="#95AAF4"/>
<path d="M179.891 142.633C180.048 142.538 197.387 132.536 197.545 132.441C198.783 134.066 199.73 136.33 200.187 138.436C194.949 141.457 189.712 144.479 184.474 147.508C183.614 145.472 181.87 143.666 179.891 142.633Z" fill="#D7CDCA"/>
<path d="M172.073 144.179C172.657 143.469 173.532 143.003 174.834 142.854C175.473 142.783 176.151 142.79 176.79 142.838C177.413 143.106 178.439 143.564 179.236 143.95C180.805 144.707 182.257 146.033 183.077 147.587C181.594 147.145 172.16 144.21 172.065 144.179H172.073Z" fill="#C4C4C4"/>
<path d="M168.492 164.744C172.144 166.85 171.876 166.708 172.049 166.771C172.381 168.088 172.815 169.287 173.367 170.266C173.595 170.676 173.887 171.094 174.211 171.433C174.455 171.693 174.566 171.741 174.826 171.922C174.558 171.835 174.25 171.733 174.014 171.599C172.341 170.636 170.669 169.666 168.997 168.704C168.752 168.057 168.594 166.534 168.492 164.752V164.744Z" fill="#102844"/>
<path d="M172.049 166.763C172.278 166.842 187.116 171.33 187.376 171.386C187.234 172.151 187.045 172.9 186.808 173.658C186.674 174.084 186.548 174.478 186.225 175.354C186.13 175.33 175.339 172.088 174.826 171.922C174.558 171.741 174.455 171.685 174.211 171.433C173.887 171.102 173.603 170.676 173.367 170.266C172.815 169.287 172.381 168.088 172.049 166.771V166.763Z" fill="#102844"/>
<path d="M172.065 144.179C171.844 144.108 174.818 145.804 131.172 120.608C131.377 118.818 131.811 117.169 132.907 115.733C133.341 115.355 133.846 114.976 134.311 114.637L134.406 114.574C140.733 118.226 166.031 132.835 172.357 136.488C174.053 137.466 174.944 138.61 176.017 140.219C176.483 140.621 176.94 141.047 177.398 141.489C178.171 141.828 179.125 142.27 179.883 142.641C181.863 143.674 183.606 145.48 184.466 147.516C184.134 147.705 183.653 147.728 183.267 147.65C183.251 147.65 183.188 147.626 183.077 147.594C182.249 146.04 180.805 144.715 179.236 143.958C178.439 143.571 177.413 143.114 176.79 142.846C176.143 142.798 175.473 142.79 174.834 142.861C173.532 143.003 172.657 143.477 172.073 144.187L172.065 144.179Z" fill="#D7CDCA"/>
<path d="M171.198 161.588C171.316 161.628 179.938 164.365 182.241 165.051C182.454 165.114 182.699 165.099 182.833 164.917C182.88 164.862 182.88 164.854 182.896 164.775C182.904 164.728 182.92 164.657 182.912 164.602C182.494 160.989 181.855 157.273 180.924 153.716C180.616 152.533 180.072 150.695 179.977 150.474C179.875 150.237 179.638 150.024 179.37 149.945C177.761 149.456 171.063 147.295 171 147.271C171.142 146.009 171.442 144.952 172.081 144.179C172.176 144.21 181.618 147.153 183.093 147.587C183.298 147.973 183.464 148.375 183.59 148.793C183.669 149.077 183.756 149.361 183.843 149.653C183.614 149.59 183.172 149.456 182.107 149.141C181.728 149.03 181.476 149.212 181.444 149.464C181.444 149.511 181.444 149.59 181.452 149.645C181.46 149.716 181.768 150.766 182.225 152.375C182.391 152.959 182.636 153.661 182.809 154.355C183.874 158.559 184.497 162.677 184.978 166.968C185.01 167.26 185.286 167.584 185.649 167.686C186.028 167.797 187.061 168.088 187.676 168.191C187.676 168.428 187.676 168.664 187.668 168.893C187.637 169.753 187.542 170.581 187.392 171.394C187.132 171.338 172.286 166.85 172.065 166.771C171.655 165.146 171.387 163.355 171.213 161.588H171.198Z" fill="#6687FC"/>
<path d="M146.854 136.969C146.854 140.242 146.862 145.204 146.893 147.011C146.893 147.295 147.083 147.658 147.367 147.855C147.406 147.878 146.83 147.547 158.142 154.079C158.205 154.11 158.237 154.126 158.292 154.142C158.355 154.158 158.371 154.158 158.426 154.142C158.474 154.134 158.497 154.118 158.537 154.087C158.608 154.023 158.639 153.929 158.639 153.795C158.616 152.312 158.6 147.129 158.6 143.745C158.6 142.128 158.6 140.921 158.6 140.739C158.6 140.448 158.426 140.077 158.142 139.88C158.111 139.856 158.671 140.179 147.367 133.656C147.296 133.616 147.28 133.608 147.217 133.593C147.146 133.577 147.138 133.577 147.075 133.593C147.028 133.608 147.004 133.616 146.964 133.648C146.893 133.719 146.854 133.813 146.854 133.948C146.854 134.161 146.854 135.352 146.854 136.961V136.969ZM133.688 139.383C133.688 139.659 133.878 140.029 134.17 140.227C134.17 140.227 134.359 140.337 144.937 146.451C145 146.482 145.032 146.498 145.087 146.514C145.15 146.529 145.166 146.529 145.221 146.514C145.268 146.506 145.292 146.49 145.332 146.459C145.403 146.395 145.434 146.301 145.434 146.167C145.395 143.974 145.387 133.671 145.395 133.111C145.395 132.82 145.221 132.449 144.937 132.252C144.906 132.228 145.466 132.551 134.162 126.028C134.091 125.988 134.075 125.98 134.012 125.965C133.949 125.949 133.933 125.949 133.87 125.965C133.822 125.98 133.799 125.988 133.759 126.02C133.68 126.083 133.649 126.185 133.649 126.32C133.641 126.958 133.641 136.685 133.688 139.375V139.383ZM131.172 120.608C174.818 145.804 171.852 144.108 172.065 144.179C171.426 144.952 171.134 146.017 170.984 147.271C170.913 147.247 170.842 147.216 170.779 147.176C170.259 146.877 170.227 146.853 170.196 146.845C169.904 146.711 169.722 146.884 169.722 147.168C169.722 147.729 169.722 158.031 169.762 160.224C169.762 160.555 170.006 160.942 170.282 161.091C171.04 161.533 171.04 161.533 171.19 161.588C171.363 163.347 171.631 165.146 172.042 166.771C171.868 166.716 172.136 166.858 168.484 164.744C168.287 161.446 168.271 157.25 168.263 155.956C168.255 154.457 168.255 147.547 168.263 146.908C168.263 146.372 167.963 145.701 167.498 145.307C167.332 145.165 167.955 145.543 161.092 141.576C160.54 141.26 160.067 141.513 160.059 142.167C160.059 142.735 160.106 153.164 160.17 156.982H160.162C150.467 151.381 140.764 145.78 131.069 140.179C131.046 136.606 131.046 122.162 131.069 121.847C131.101 121.421 131.132 121.003 131.18 120.593L131.172 120.608Z" fill="#6687FC"/>
<path d="M182.904 164.602C182.486 160.989 181.847 157.273 180.916 153.716C180.608 152.532 180.064 150.694 179.969 150.474C179.867 150.237 179.63 150.024 179.362 149.945C177.753 149.456 171.055 147.295 170.992 147.271C170.921 147.247 170.85 147.216 170.787 147.176C170.267 146.877 170.235 146.853 170.204 146.845C169.912 146.711 169.73 146.884 169.73 147.168C169.73 147.728 169.73 158.031 169.77 160.224C169.77 160.555 170.014 160.941 170.29 161.091C171.048 161.533 171.048 161.533 171.197 161.588C171.316 161.628 179.938 164.365 182.241 165.051C182.454 165.114 182.699 165.099 182.833 164.917C182.88 164.862 182.88 164.854 182.896 164.775C182.904 164.728 182.92 164.657 182.912 164.602H182.904Z" fill="#102844"/>
<path d="M182.454 165.13C182.375 165.13 182.296 165.114 182.225 165.099C179.89 164.404 171.481 161.73 171.19 161.636H171.182C171.055 161.588 171.032 161.573 170.629 161.336L170.274 161.131C169.975 160.957 169.738 160.563 169.73 160.224C169.691 158.086 169.683 147.776 169.691 147.168C169.691 147.003 169.754 146.869 169.856 146.806C169.927 146.758 170.046 146.727 170.227 146.806C170.251 146.821 170.274 146.829 170.685 147.066L170.819 147.145C170.874 147.176 170.945 147.208 171.016 147.232C171.04 147.239 177.729 149.401 179.386 149.898C179.662 149.977 179.906 150.198 180.024 150.458C180.127 150.695 180.671 152.54 180.971 153.708C181.831 157.021 182.501 160.681 182.959 164.602C182.959 164.657 182.959 164.728 182.943 164.791C182.927 164.87 182.92 164.886 182.872 164.949C182.77 165.083 182.62 165.13 182.462 165.13H182.454ZM171.205 161.541C171.261 161.565 179.882 164.302 182.249 165.012C182.423 165.067 182.659 165.059 182.785 164.894C182.825 164.838 182.825 164.838 182.841 164.775C182.841 164.736 182.864 164.665 182.856 164.617C182.399 160.705 181.728 157.045 180.869 153.732C180.545 152.493 180.017 150.71 179.93 150.497C179.827 150.269 179.599 150.071 179.354 149.992C177.658 149.48 171.008 147.334 170.984 147.318C170.906 147.295 170.835 147.255 170.771 147.224L170.637 147.145C170.259 146.924 170.211 146.9 170.196 146.892C170.085 146.837 169.983 146.837 169.912 146.884C169.833 146.932 169.793 147.034 169.785 147.168C169.778 147.776 169.785 158.078 169.825 160.224C169.825 160.531 170.054 160.902 170.322 161.052L170.677 161.257C171.079 161.486 171.095 161.502 171.213 161.541H171.205Z" fill="#102844"/>
<path d="M168.949 168.672C166.228 167.102 163.506 165.533 160.793 163.963C163.514 165.533 166.236 167.102 168.949 168.672Z" fill="#A1DFF0"/>
<path d="M161.1 159.932C161.116 160.255 161.361 160.634 161.637 160.792C167.537 164.199 167.182 164.01 167.308 164.034C167.442 164.057 167.553 163.986 167.592 163.844C167.632 163.702 167.584 163.726 167.506 161.154C167.411 157.983 167.403 147.468 167.403 146.829C167.403 146.49 167.174 146.103 166.898 145.946C165.068 144.889 163.238 143.824 161.408 142.775C161.132 142.617 160.895 142.743 160.895 143.066C160.895 143.524 160.927 154.773 160.982 156.918C161.006 157.857 161.045 159.001 161.092 159.924L161.1 159.932ZM160.28 160.003C160.256 159.553 160.233 159.135 160.217 158.78C160.201 158.504 160.193 158.275 160.193 158.086C160.185 157.849 160.177 157.471 160.169 156.982C160.106 153.164 160.051 142.735 160.059 142.167C160.059 141.512 160.54 141.252 161.092 141.576C167.955 145.543 167.332 145.165 167.498 145.307C167.963 145.701 168.271 146.372 168.263 146.908C168.263 147.547 168.263 154.457 168.263 155.956C168.271 157.25 168.287 161.446 168.484 164.744C168.586 166.534 168.752 168.057 168.989 168.696C168.973 168.688 168.957 168.68 168.941 168.672C166.22 167.102 163.498 165.532 160.785 163.963C160.517 163.229 160.359 161.478 160.272 160.003H160.28Z" fill="#95AAF4"/>
<path d="M169.083 168.806L168.926 168.719L160.753 164.002V163.986C160.524 163.395 160.359 162.062 160.233 160.019C160.209 159.616 160.185 159.206 160.17 158.796C160.154 158.528 160.146 158.291 160.146 158.11C160.138 157.881 160.13 157.51 160.122 156.997C160.059 153.242 160.004 142.838 160.012 142.183C160.012 141.852 160.13 141.599 160.343 141.481C160.556 141.363 160.824 141.386 161.108 141.552C162.891 142.577 164.169 143.319 165.084 143.847C166.646 144.752 167.45 145.223 167.498 145.259C167.498 145.259 167.514 145.275 167.521 145.283C167.987 145.685 168.31 146.356 168.302 146.924C168.302 147.587 168.302 154.544 168.302 155.972V156.201C168.31 157.684 168.334 161.636 168.523 164.752C168.642 166.795 168.815 168.12 169.028 168.696L169.075 168.822L169.083 168.806ZM160.832 163.931L168.91 168.593C168.713 167.962 168.555 166.668 168.444 164.744C168.255 161.62 168.231 157.676 168.224 156.185V155.956C168.216 154.528 168.208 147.571 168.224 146.908C168.224 146.38 167.916 145.717 167.474 145.338C167.458 145.33 167.45 145.315 167.443 145.315C167.387 145.259 167.34 145.236 165.052 143.911C164.137 143.382 162.859 142.648 161.077 141.615C160.824 141.465 160.58 141.441 160.406 141.544C160.225 141.647 160.122 141.867 160.122 142.167C160.122 142.822 160.17 153.227 160.233 156.974C160.241 157.479 160.248 157.849 160.256 158.078C160.256 158.267 160.272 158.496 160.28 158.764C160.296 159.175 160.319 159.585 160.343 159.987C160.461 161.999 160.627 163.324 160.848 163.915L160.832 163.931ZM167.364 164.081C167.364 164.081 167.324 164.081 167.308 164.081H167.293C167.24 164.076 166.496 163.658 165.06 162.827C164.256 162.361 163.143 161.722 161.621 160.839C161.321 160.665 161.077 160.271 161.061 159.94C161.021 159.127 160.982 158.031 160.95 156.934C160.895 154.804 160.864 143.556 160.864 143.082C160.864 142.909 160.927 142.775 161.037 142.712C161.148 142.648 161.298 142.656 161.447 142.743C162.662 143.437 163.893 144.147 165.084 144.841C165.699 145.204 166.322 145.559 166.946 145.914C167.245 146.088 167.474 146.49 167.474 146.837C167.474 147.5 167.482 158.007 167.577 161.162C167.616 162.511 167.648 163.15 167.663 163.466C167.679 163.766 167.679 163.797 167.663 163.868C167.624 164.01 167.521 164.097 167.387 164.097L167.364 164.081ZM161.187 142.751C161.148 142.751 161.108 142.759 161.077 142.783C160.998 142.83 160.95 142.932 160.95 143.074C160.95 143.548 160.982 154.796 161.037 156.926C161.069 158.023 161.108 159.119 161.148 159.932C161.163 160.232 161.392 160.594 161.66 160.752C163.191 161.636 164.295 162.275 165.1 162.74C167.119 163.908 167.237 163.979 167.293 163.979C167.293 163.979 167.308 163.979 167.316 163.979C167.435 163.994 167.514 163.939 167.545 163.829C167.561 163.773 167.561 163.75 167.545 163.458C167.529 163.15 167.498 162.503 167.458 161.154C167.364 157.999 167.356 147.492 167.356 146.829C167.356 146.522 167.143 146.143 166.875 145.993C166.251 145.638 165.636 145.275 165.013 144.92C163.822 144.234 162.591 143.516 161.376 142.822C161.305 142.783 161.234 142.759 161.171 142.759L161.187 142.751Z" fill="#102844"/>
<path d="M161.416 142.775C163.254 143.824 165.076 144.889 166.906 145.946C167.174 146.103 167.411 146.49 167.411 146.829C167.411 147.468 167.411 157.983 167.514 161.154C167.585 163.726 167.64 163.702 167.6 163.844C167.561 163.986 167.458 164.049 167.316 164.034C167.19 164.018 167.545 164.199 161.645 160.792C161.369 160.634 161.124 160.255 161.108 159.932C161.061 159.009 161.021 157.865 160.998 156.926C160.943 154.781 160.911 143.532 160.911 143.074C160.911 142.743 161.148 142.625 161.424 142.782L161.416 142.775Z" fill="#102844"/>
<path d="M167.364 164.081C167.364 164.081 167.324 164.081 167.308 164.081H167.293C167.24 164.076 166.496 163.658 165.06 162.827C164.256 162.361 163.143 161.722 161.621 160.839C161.321 160.665 161.077 160.271 161.061 159.94C161.021 159.127 160.982 158.031 160.95 156.934C160.895 154.804 160.864 143.556 160.864 143.082C160.864 142.909 160.927 142.775 161.037 142.712C161.148 142.648 161.298 142.656 161.447 142.743C162.662 143.437 163.893 144.147 165.084 144.841C165.699 145.204 166.322 145.559 166.946 145.914C167.245 146.088 167.474 146.49 167.474 146.837C167.474 147.5 167.482 158.007 167.577 161.162C167.616 162.511 167.648 163.15 167.663 163.466C167.679 163.766 167.679 163.797 167.663 163.868C167.624 164.01 167.521 164.097 167.387 164.097L167.364 164.081ZM161.187 142.751C161.148 142.751 161.108 142.759 161.077 142.783C160.998 142.83 160.95 142.932 160.95 143.074C160.95 143.548 160.982 154.796 161.037 156.926C161.069 158.023 161.108 159.119 161.148 159.932C161.163 160.232 161.392 160.594 161.66 160.752C163.191 161.636 164.295 162.275 165.1 162.74C167.119 163.908 167.237 163.979 167.293 163.979C167.293 163.979 167.308 163.979 167.316 163.979C167.435 163.994 167.514 163.939 167.545 163.829C167.561 163.773 167.561 163.75 167.545 163.458C167.529 163.15 167.498 162.503 167.458 161.154C167.364 157.999 167.356 147.492 167.356 146.829C167.356 146.522 167.143 146.143 166.875 145.993C166.251 145.638 165.636 145.275 165.013 144.92C163.822 144.234 162.591 143.516 161.376 142.822C161.305 142.783 161.234 142.759 161.171 142.759L161.187 142.751Z" fill="#102844"/>
<path d="M160.793 163.963C151.09 158.362 141.387 152.761 131.685 147.161C131.409 146.419 131.274 144.684 131.219 143.879C131.211 143.753 131.196 143.508 131.18 143.208C140.882 148.809 150.577 154.41 160.28 160.011C160.367 161.478 160.517 163.237 160.793 163.971V163.963Z" fill="#102844"/>
<path d="M160.225 158.78C160.241 159.135 160.256 159.561 160.288 160.003C150.585 154.402 140.89 148.801 131.188 143.201C131.164 142.83 131.148 142.38 131.125 141.978C140.827 147.579 150.522 153.179 160.225 158.78Z" fill="#95AAF4"/>
<path d="M160.225 158.78C150.522 153.179 140.827 147.579 131.125 141.978C131.101 141.52 131.085 141.11 131.077 140.929C131.077 140.826 131.077 140.566 131.069 140.187C140.764 145.788 150.467 151.389 160.162 156.989H160.17C160.177 157.479 160.185 157.857 160.193 158.094C160.193 158.275 160.209 158.512 160.217 158.788L160.225 158.78Z" fill="#102844"/>
<path d="M158.434 154.142C158.379 154.157 158.363 154.15 158.3 154.142C158.245 154.126 158.205 154.118 158.15 154.079C146.846 147.555 147.414 147.878 147.375 147.855C147.083 147.657 146.901 147.287 146.901 147.011C146.87 145.204 146.862 140.242 146.862 136.969C150.774 139.225 154.687 141.489 158.592 143.745H158.608C158.608 147.121 158.623 152.312 158.647 153.795C158.647 153.929 158.615 154.023 158.544 154.086C158.513 154.118 158.489 154.134 158.434 154.142Z" fill="#102844"/>
<path d="M158.371 154.197C158.371 154.197 158.324 154.197 158.284 154.189C158.221 154.173 158.182 154.158 158.119 154.126L149.828 149.338C148.177 148.381 147.346 147.899 147.335 147.894C147.059 147.705 146.846 147.334 146.846 147.011C146.807 144.912 146.807 138.791 146.807 136.969V136.89L146.878 136.929C150.696 139.138 154.514 141.339 158.332 143.54L158.6 143.698H158.647V143.745C158.647 147.626 158.663 152.422 158.687 153.787C158.687 153.937 158.655 154.039 158.568 154.118C158.529 154.158 158.497 154.173 158.442 154.181C158.41 154.181 158.395 154.189 158.371 154.189V154.197ZM146.901 137.056C146.901 138.972 146.901 144.944 146.941 147.011C146.941 147.295 147.138 147.642 147.398 147.815H147.406C147.406 147.815 147.651 147.965 149.875 149.251L158.166 154.039C158.221 154.071 158.253 154.087 158.308 154.094C158.363 154.11 158.379 154.11 158.426 154.094C158.426 154.094 158.481 154.079 158.513 154.047C158.576 153.992 158.6 153.913 158.6 153.787C158.576 152.422 158.56 147.65 158.56 143.776L158.292 143.619C154.498 141.426 150.704 139.241 146.909 137.048L146.901 137.056Z" fill="#102844"/>
<path d="M150.459 105.313C150.767 105.179 151.129 105.037 151.477 104.911C151.729 104.824 152.005 104.824 152.257 104.911L152.407 104.966C167.08 113.438 181.752 121.91 196.424 130.382L196.669 130.532C196.779 130.603 196.874 130.69 196.945 130.784C197.395 131.368 197.836 131.968 198.27 132.599C199.201 133.932 200.045 135.896 200.487 137.908C200.526 138.121 200.408 138.31 200.187 138.436C199.722 136.33 198.783 134.066 197.545 132.441C197.119 131.841 196.582 131.124 196.196 130.634C195.58 130.287 194.973 129.956 194.366 129.625C192.228 128.923 190.169 128.347 188.315 127.274C181.989 123.622 156.691 109.012 150.364 105.36C150.396 105.344 150.427 105.329 150.459 105.313Z" fill="#D7CDCA"/>
<path d="M147.225 133.601C147.296 133.616 147.304 133.616 147.375 133.664C158.679 140.187 158.118 139.864 158.15 139.888C158.434 140.085 158.608 140.455 158.608 140.747C158.608 140.929 158.608 142.136 158.608 143.753H158.592C154.679 141.497 150.767 139.241 146.862 136.977C146.862 135.367 146.862 134.176 146.862 133.963C146.862 133.829 146.901 133.727 146.972 133.664C147.012 133.632 147.035 133.616 147.083 133.608C147.138 133.593 147.154 133.593 147.225 133.608V133.601Z" fill="#102844"/>
<path d="M158.647 143.792H158.576L158.284 143.627C154.466 141.426 150.648 139.217 146.83 137.016L146.807 137V136.977C146.807 135.454 146.807 134.184 146.807 133.963C146.807 133.813 146.854 133.703 146.933 133.624C146.972 133.585 147.004 133.569 147.067 133.553C147.13 133.537 147.154 133.537 147.225 133.553C147.296 133.569 147.319 133.577 147.39 133.616L150.885 135.636C157.211 139.288 158.048 139.769 158.166 139.848C158.442 140.037 158.647 140.416 158.639 140.739C158.639 140.929 158.639 142.159 158.639 143.745V143.792H158.647ZM146.901 136.945C150.711 139.146 154.522 141.347 158.332 143.548L158.552 143.674C158.552 142.128 158.552 140.929 158.552 140.739C158.552 140.448 158.371 140.1 158.119 139.927H158.111C158.024 139.872 157.219 139.398 150.846 135.722L147.351 133.703C147.28 133.664 147.272 133.664 147.209 133.648C147.146 133.632 147.138 133.632 147.091 133.648C147.051 133.656 147.028 133.671 147.004 133.695C146.941 133.75 146.909 133.837 146.909 133.963C146.909 134.184 146.909 135.438 146.909 136.945H146.901Z" fill="#102844"/>
<path d="M133.878 125.972C133.933 125.957 133.949 125.957 134.02 125.972C134.091 125.988 134.098 125.988 134.169 126.036C145.474 132.559 144.913 132.236 144.945 132.259C145.229 132.457 145.403 132.827 145.403 133.119C145.403 133.679 145.403 143.982 145.442 146.174C145.442 146.309 145.41 146.403 145.339 146.466C145.308 146.498 145.284 146.514 145.229 146.522C145.174 146.537 145.158 146.529 145.095 146.522C145.04 146.506 145.008 146.498 144.945 146.458C134.367 140.353 134.169 140.235 134.177 140.235C133.886 140.037 133.704 139.667 133.696 139.39C133.649 136.701 133.649 126.982 133.657 126.335C133.657 126.201 133.696 126.099 133.767 126.036C133.807 126.004 133.83 125.988 133.878 125.98V125.972Z" fill="#102844"/>
<path d="M145.166 146.569C145.166 146.569 145.119 146.569 145.079 146.561C145.016 146.545 144.977 146.529 144.913 146.498L137.27 142.088C135.763 141.221 134.982 140.771 134.58 140.534C134.296 140.369 134.185 140.306 134.146 140.274C133.822 140.061 133.657 139.667 133.649 139.398C133.602 136.732 133.602 127.069 133.609 126.343C133.609 126.193 133.657 126.083 133.736 126.004C133.775 125.965 133.807 125.949 133.87 125.933C133.933 125.917 133.957 125.917 134.028 125.933C134.106 125.949 134.122 125.957 134.193 125.996L137.853 128.11C144.038 131.676 144.858 132.149 144.969 132.228C145.245 132.417 145.45 132.796 145.442 133.119C145.434 133.727 145.442 144.029 145.481 146.167C145.481 146.316 145.45 146.419 145.363 146.498C145.324 146.537 145.292 146.553 145.237 146.561C145.205 146.561 145.19 146.569 145.166 146.569ZM134.209 140.203C134.296 140.25 134.801 140.55 137.325 142.002L144.969 146.411C145.024 146.443 145.055 146.458 145.111 146.466C145.166 146.482 145.182 146.482 145.229 146.466C145.268 146.458 145.284 146.451 145.316 146.419C145.379 146.364 145.403 146.285 145.403 146.159C145.363 144.021 145.355 133.711 145.363 133.103C145.363 132.812 145.182 132.465 144.929 132.291H144.921C144.842 132.236 144.054 131.778 137.822 128.181L134.162 126.067C134.099 126.028 134.091 126.028 134.02 126.012C133.957 125.996 133.957 125.996 133.901 126.012C133.862 126.02 133.838 126.036 133.807 126.059C133.744 126.114 133.712 126.201 133.712 126.327C133.704 127.053 133.704 136.716 133.751 139.383C133.751 139.627 133.917 139.99 134.209 140.187H134.225L134.209 140.203Z" fill="#102844"/>
<path d="M187.763 160.058C187.305 157.794 186.714 155.404 186.091 153.045C185.815 153.203 185.42 153.25 185.12 153.219C185.041 153.211 184.994 153.211 184.813 153.156C184.529 153.077 183.906 152.895 182.288 152.406C182.454 152.99 182.636 153.645 182.809 154.339C183.874 158.543 184.497 162.661 184.978 166.952C185.01 167.244 185.286 167.568 185.649 167.67C186.028 167.781 187.061 168.073 187.676 168.175C187.802 168.199 187.913 168.207 188 168.207C188.252 168.207 188.552 168.151 188.773 168.025C188.765 165.406 188.307 162.614 187.779 160.05L187.763 160.058Z" fill="#95AAF4"/>
<path d="M187.992 168.262C187.905 168.262 187.794 168.246 187.66 168.222C187.053 168.12 186.027 167.828 185.641 167.718C185.27 167.615 184.963 167.284 184.923 166.952C184.363 161.92 183.693 158.031 182.754 154.347C182.596 153.724 182.423 153.077 182.233 152.414L182.217 152.351H182.296C183.882 152.824 184.537 153.022 184.821 153.1C184.994 153.148 185.034 153.148 185.112 153.156H185.128C185.396 153.187 185.791 153.156 186.075 152.99L186.13 152.958L186.146 153.022C186.832 155.609 187.4 157.968 187.826 160.042C188.244 162.101 188.804 165.17 188.82 168.025V168.049L188.796 168.065C188.591 168.183 188.299 168.254 188.007 168.254L187.992 168.262ZM182.344 152.477C182.525 153.116 182.691 153.739 182.841 154.331C183.779 158.023 184.45 161.92 185.01 166.952C185.041 167.244 185.325 167.536 185.649 167.631C186.043 167.741 187.061 168.033 187.668 168.136C187.794 168.159 187.905 168.167 187.984 168.167C188.244 168.167 188.52 168.104 188.71 168.002C188.694 165.162 188.134 162.117 187.716 160.066C187.298 158.007 186.737 155.672 186.059 153.108C185.759 153.258 185.381 153.282 185.112 153.258H185.097C185.018 153.25 184.97 153.242 184.789 153.195C184.505 153.116 183.866 152.927 182.344 152.477Z" fill="#091B32"/>
<path d="M179.891 142.633C181.334 141.733 182.786 140.858 184.245 139.99C184.971 139.556 185.704 139.13 186.438 138.696L188.639 137.418L190.847 136.148C191.589 135.73 192.323 135.312 193.064 134.894C194.547 134.058 196.03 133.246 197.537 132.441C196.093 133.34 194.642 134.224 193.182 135.084C192.457 135.517 191.723 135.943 190.989 136.377L188.789 137.655L186.58 138.925C185.838 139.343 185.105 139.761 184.363 140.179C182.88 141.016 181.397 141.828 179.898 142.633H179.891Z" fill="white"/>
<path d="M68.5068 84.4639C68.7277 82.1684 69.2168 80.575 70.2817 79.1945L124.238 110.346C123.173 111.726 122.684 113.327 122.463 115.623C104.478 105.242 86.4923 94.8529 68.5068 84.4718V84.4639Z" fill="#D7CDCA"/>
<path d="M112.477 115.102C112.477 114.763 112.721 114.653 112.989 114.81C117.856 117.627 117.525 117.406 117.659 117.532C117.856 117.721 118.014 118.029 118.006 118.297C118.006 118.936 118.006 121.713 118.006 122.36C118.014 135.588 118.369 135.178 118.156 135.415C118.132 135.439 118.093 135.47 118.061 135.478C118.03 135.486 117.975 135.494 117.935 135.478C117.817 135.462 118.125 135.628 113.242 132.804C112.966 132.646 112.721 132.267 112.697 131.944C112.548 129.293 112.5 125.783 112.484 123.117C112.484 122.123 112.469 115.875 112.477 115.102Z" fill="#102844"/>
<path d="M117.975 135.533C117.975 135.533 117.943 135.533 117.927 135.533H117.912C117.859 135.533 117.131 135.126 115.727 134.31C115.096 133.948 114.275 133.474 113.21 132.859C112.91 132.685 112.666 132.291 112.642 131.96C112.524 129.846 112.453 126.951 112.429 123.133C112.429 122.083 112.414 115.867 112.421 115.11C112.421 114.937 112.485 114.802 112.595 114.739C112.705 114.676 112.855 114.692 113.005 114.771C114.764 115.789 115.853 116.412 116.515 116.798C117.241 117.214 117.625 117.442 117.667 117.485L117.683 117.5C117.904 117.705 118.046 118.029 118.046 118.297C118.046 118.936 118.046 121.681 118.046 122.36C118.046 130.65 118.196 133.577 118.243 134.673C118.264 135.12 118.246 135.378 118.188 135.446C118.188 135.446 118.109 135.509 118.069 135.525C118.046 135.533 118.006 135.541 117.975 135.541V135.533ZM112.524 115.102C112.524 115.852 112.524 122.068 112.532 123.117C112.555 126.935 112.626 129.822 112.745 131.944C112.761 132.244 112.997 132.607 113.265 132.764C114.33 133.38 115.151 133.853 115.782 134.216C117.754 135.352 117.872 135.423 117.927 135.431C117.927 135.431 117.943 135.431 117.951 135.431C117.983 135.431 118.03 135.431 118.054 135.431C118.077 135.423 118.109 135.399 118.133 135.383C118.175 135.331 118.185 135.097 118.164 134.681C118.109 133.577 117.967 130.658 117.967 122.36C117.967 121.681 117.967 118.944 117.967 118.297C117.967 118.052 117.833 117.761 117.636 117.571L117.62 117.556C117.565 117.5 117.557 117.5 116.492 116.885C115.821 116.498 114.741 115.875 112.981 114.858C112.863 114.787 112.753 114.779 112.666 114.826C112.587 114.873 112.54 114.976 112.54 115.118L112.524 115.102Z" fill="#102844"/>
<path d="M112.847 136.077C115.143 137.403 117.43 138.728 119.726 140.045C119.387 139.604 119.197 137.671 119.103 136.196C120.247 136.858 121.39 137.521 122.534 138.176C122.668 140.25 122.865 141.725 123.173 142.057L112.863 136.101C112.863 136.101 112.847 136.085 112.839 136.07L112.847 136.077Z" fill="#102844"/>
<path d="M106.158 110.969C106.213 110.953 106.237 110.953 106.292 110.969C106.402 110.992 106.008 110.772 110.962 113.635C111.238 113.793 111.467 114.187 111.467 114.519C111.467 115.299 111.467 121.547 111.475 122.533C111.49 125.176 111.538 128.725 111.688 131.36C111.703 131.684 111.49 131.794 111.214 131.636C106.331 128.812 106.639 129.009 106.513 128.883C106.331 128.71 106.174 128.426 106.158 128.173C105.913 123.85 105.913 115.781 105.937 111.324C105.937 111.19 105.976 111.087 106.047 111.024C106.087 110.992 106.111 110.977 106.158 110.969Z" fill="#102844"/>
<path d="M111.443 131.762C111.364 131.762 111.277 131.739 111.191 131.684C110.094 131.045 109.258 130.563 108.619 130.201C107.257 129.412 106.55 128.994 106.497 128.946L106.481 128.931C106.268 128.725 106.126 128.434 106.111 128.189C105.858 123.645 105.874 114.889 105.89 111.339C105.89 111.19 105.929 111.079 106.016 111.008C106.055 110.969 106.095 110.953 106.15 110.937C106.213 110.921 106.237 110.921 106.308 110.937C106.308 110.937 106.308 110.937 106.316 110.937C106.358 110.937 107.304 111.474 109.156 112.546L110.986 113.611C111.285 113.785 111.514 114.187 111.514 114.534C111.514 115.299 111.514 121.523 111.522 122.549C111.546 126.343 111.617 129.309 111.735 131.376C111.743 131.542 111.696 131.668 111.593 131.731C111.546 131.755 111.498 131.77 111.443 131.77V131.762ZM106.166 111.016C106.126 111.024 106.103 111.04 106.079 111.063C106.016 111.119 105.984 111.205 105.984 111.324C105.969 114.873 105.953 123.622 106.205 128.165C106.221 128.418 106.387 128.694 106.544 128.844L106.56 128.86C106.623 128.931 106.647 128.938 108.659 130.098C109.298 130.469 110.134 130.95 111.23 131.581C111.348 131.652 111.459 131.668 111.538 131.62C111.609 131.581 111.64 131.486 111.632 131.352C111.514 129.285 111.443 126.312 111.419 122.525C111.419 121.492 111.404 115.276 111.412 114.503C111.412 114.195 111.199 113.816 110.93 113.667L109.1 112.602C106.552 111.127 106.339 111.008 106.3 111C106.3 111 106.284 111 106.276 111C106.221 110.985 106.205 110.985 106.158 111L106.166 111.016Z" fill="#102844"/>
<path d="M89.4899 113.848C89.4899 114.108 89.6556 114.416 89.837 114.59C89.979 114.724 89.2296 114.274 100.739 120.916C100.825 120.971 100.873 120.979 100.936 120.987C100.975 120.987 101.046 120.987 101.094 120.955C101.149 120.924 101.196 120.861 101.22 120.782C101.236 120.735 101.236 120.687 101.236 120.632C101.196 118.715 101.18 108.011 101.188 107.585C101.188 107.253 100.96 106.859 100.691 106.701C89.269 100.107 89.9159 100.477 89.8606 100.454C89.766 100.422 89.7265 100.43 89.6713 100.438C89.6161 100.454 89.5767 100.469 89.5293 100.525C89.4583 100.604 89.4426 100.69 89.4426 100.801C89.4426 101.337 89.4741 112.838 89.4899 113.848ZM122.534 138.176C121.39 137.513 120.247 136.851 119.103 136.196C119.055 135.47 119.032 134.855 119.016 134.579C118.835 130.477 118.85 118.636 118.85 118.337C118.85 117.69 118.417 116.901 117.849 116.577C115.443 115.189 113.526 114.085 112.003 113.201C105.598 109.502 106.079 109.778 106.008 109.746C105.503 109.517 105.101 109.793 105.093 110.393C105.093 110.929 105.093 117.674 105.093 119.173C105.109 121.468 105.148 125.357 105.338 128.252C98.8139 124.482 92.2824 120.711 85.7508 116.948C85.7035 116.222 85.6798 115.607 85.664 115.331C85.4826 111.229 85.4984 99.3887 85.4984 99.0889C85.4984 98.45 85.0645 97.6533 84.4966 97.3298C82.0906 95.9415 80.1737 94.8371 78.6513 93.9536C72.2381 90.254 72.7193 90.5301 72.6561 90.4985C72.4984 90.4275 72.3485 90.4118 72.2302 90.4275C72.1434 90.4433 72.033 90.4906 71.9699 90.538C71.8989 90.5932 71.8358 90.6878 71.7963 90.7904C71.7569 90.9008 71.7411 91.0113 71.7411 91.1454C71.7411 91.6818 71.7411 98.4263 71.7411 99.9172C71.7569 102.205 71.7963 106.094 71.9856 109.005C70.8418 108.342 69.698 107.679 68.5542 107.025C68.2939 103.009 68.2939 96.7303 68.2939 92.0841C68.2939 88.8499 68.2939 86.4124 68.4832 84.4639C86.4687 94.845 104.454 105.234 122.44 115.615C122.25 117.556 122.25 120.001 122.25 123.235C122.25 127.881 122.25 134.153 122.511 138.176H122.534Z" fill="#6687FC"/>
<path d="M89.8526 100.461C89.9079 100.477 89.2531 100.107 100.683 106.709C100.952 106.867 101.188 107.261 101.18 107.593C101.18 108.011 101.196 118.723 101.228 120.64C101.228 120.695 101.228 120.742 101.212 120.79C101.188 120.869 101.141 120.932 101.086 120.963C101.038 120.987 100.967 121.003 100.928 120.995C100.865 120.987 100.817 120.979 100.731 120.924C89.2216 114.282 89.971 114.732 89.829 114.597C89.6475 114.424 89.4819 114.116 89.4819 113.856C89.4661 112.846 89.4267 101.345 89.4346 100.809C89.4346 100.698 89.4503 100.611 89.5213 100.532C89.5687 100.477 89.6081 100.461 89.6633 100.446C89.7107 100.438 89.7501 100.43 89.8526 100.461Z" fill="#102844"/>
<path d="M100.959 121.034C100.959 121.034 100.936 121.034 100.928 121.034C100.865 121.026 100.81 121.018 100.715 120.955C97.5123 119.109 95.2641 117.808 93.6785 116.893C91.149 115.436 89.8658 114.684 89.829 114.637C89.829 114.637 89.8211 114.629 89.8132 114.621C89.6397 114.455 89.4504 114.148 89.4504 113.848C89.4267 112.775 89.3951 101.29 89.403 100.801C89.403 100.698 89.4188 100.596 89.4977 100.493C89.545 100.438 89.5924 100.406 89.6633 100.39C89.7265 100.375 89.7738 100.375 89.8763 100.406C89.9394 100.43 90.3023 100.643 93.1106 102.26C94.7119 103.183 97.1178 104.571 100.723 106.654C101.015 106.819 101.251 107.238 101.243 107.577C101.243 108.018 101.259 118.723 101.291 120.624C101.291 120.687 101.291 120.742 101.275 120.79C101.251 120.876 101.196 120.947 101.133 120.987C101.086 121.018 101.023 121.026 100.975 121.026L100.959 121.034ZM89.7265 100.485C89.7265 100.485 89.6949 100.485 89.6712 100.485C89.6318 100.493 89.5924 100.509 89.5529 100.556C89.4898 100.627 89.4819 100.706 89.474 100.801C89.474 101.29 89.5056 112.775 89.5214 113.848C89.5214 114.108 89.6949 114.4 89.8527 114.558C89.8606 114.566 89.8684 114.574 89.8763 114.582C89.9237 114.637 90.0657 114.716 93.7101 116.814C95.2956 117.729 97.5517 119.031 100.746 120.876C100.833 120.924 100.873 120.932 100.928 120.94C100.959 120.94 101.023 120.94 101.054 120.916C101.094 120.892 101.133 120.845 101.157 120.774C101.165 120.734 101.172 120.695 101.172 120.64C101.133 118.739 101.117 108.034 101.125 107.592C101.125 107.285 100.912 106.906 100.652 106.748C97.0468 104.666 94.6488 103.278 93.0396 102.355C90.326 100.785 89.8921 100.54 89.8369 100.509C89.8369 100.509 89.8369 100.509 89.829 100.509C89.7738 100.493 89.7422 100.485 89.7186 100.485H89.7265Z" fill="#102844"/>
<path d="M79.6452 95.5628C84.5044 98.379 84.181 98.1581 84.3151 98.2843C84.5123 98.4736 84.6701 98.7734 84.6622 99.0495C84.6622 99.6884 84.6622 102.465 84.6622 103.112C84.6701 116.333 85.0251 115.931 84.8121 116.167C84.7569 116.23 84.6701 116.246 84.5912 116.238C84.4729 116.222 84.7726 116.38 79.8976 113.564C79.6215 113.406 79.377 113.028 79.3533 112.704C79.2035 110.046 79.1561 106.528 79.1403 103.877C79.1403 102.883 79.1246 96.6356 79.1325 95.8626C79.1325 95.5391 79.3612 95.405 79.6452 95.5707V95.5628Z" fill="#102844"/>
<path d="M84.6386 116.285C84.6386 116.285 84.607 116.285 84.5834 116.285H84.5676C84.515 116.28 83.8234 115.891 82.4929 115.118C81.8461 114.747 80.9942 114.25 79.8661 113.603C79.5664 113.43 79.3218 113.035 79.2982 112.704C79.1798 110.606 79.1088 107.632 79.0852 103.877C79.0852 102.828 79.0694 96.6119 79.0773 95.8546C79.0773 95.6811 79.1404 95.547 79.2508 95.4839C79.3613 95.4208 79.5033 95.4366 79.6531 95.5233C81.4201 96.5488 82.5008 97.1641 83.1713 97.5506C83.8918 97.9661 84.2731 98.1948 84.3152 98.2369L84.3309 98.2527C84.5518 98.4578 84.6938 98.7812 84.6938 99.0494C84.6938 99.6884 84.6938 102.434 84.6938 103.112C84.6938 111.403 84.8437 114.321 84.891 115.426C84.912 115.873 84.8936 116.13 84.8358 116.199C84.7885 116.254 84.7096 116.285 84.6228 116.285H84.6386ZM79.4244 95.5391C79.3849 95.5391 79.3455 95.547 79.3139 95.5628C79.2351 95.6101 79.1877 95.7126 79.1877 95.8546C79.1877 96.604 79.1877 102.82 79.1956 103.869C79.2193 107.624 79.2903 110.598 79.4086 112.696C79.4244 112.996 79.661 113.359 79.9292 113.517C81.0573 114.171 81.9092 114.66 82.556 115.031C84.4256 116.112 84.536 116.175 84.5912 116.183H84.607C84.6465 116.183 84.7332 116.183 84.7806 116.128C84.8226 116.08 84.8331 115.844 84.8121 115.418C84.7569 114.313 84.6149 111.387 84.6149 103.096C84.6149 102.418 84.6149 99.6805 84.6149 99.0336C84.6149 98.7891 84.4808 98.4972 84.2836 98.3079L84.2678 98.2921C84.2126 98.2369 84.2047 98.2369 83.1398 97.6216C82.4693 97.2351 81.3886 96.6119 79.6216 95.5943C79.5506 95.5549 79.4796 95.5312 79.4165 95.5312L79.4244 95.5391Z" fill="#102844"/>
<path d="M79.5032 116.83C81.7987 118.155 84.0863 119.48 86.3818 120.798C86.0426 120.356 85.8533 118.423 85.7586 116.948C92.2902 120.719 98.8139 124.489 105.345 128.252C105.393 128.97 105.448 129.625 105.511 130.185C105.558 130.619 105.7 131.77 105.961 132.102C108.256 133.427 110.544 134.752 112.839 136.069C112.839 136.077 112.855 136.085 112.863 136.101L79.5268 116.853C79.5268 116.853 79.5111 116.838 79.5032 116.822V116.83Z" fill="#102844"/>
<path d="M72.9558 91.7212C73.0741 91.7448 72.6955 91.5397 77.6257 94.3874C77.9018 94.5452 78.1306 94.9396 78.1306 95.2709C78.0438 112.712 78.5408 112.144 78.2647 112.404C78.2331 112.436 78.2095 112.444 78.1621 112.46C78.1148 112.468 78.0911 112.468 78.028 112.46C77.9728 112.444 77.9334 112.428 77.8782 112.397C73.0031 109.58 73.3029 109.77 73.1767 109.644C72.9953 109.47 72.8375 109.186 72.8217 108.926C72.5772 104.603 72.5772 96.541 72.6008 92.0762C72.6008 91.9421 72.6403 91.8474 72.7113 91.7764C72.7507 91.7448 72.7744 91.7291 72.8217 91.7212C72.8769 91.7054 72.9006 91.7054 72.9558 91.7212Z" fill="#102844"/>
<path d="M78.0991 112.515C78.0991 112.515 78.0517 112.515 78.0123 112.499C77.9492 112.483 77.9097 112.468 77.8466 112.428C76.8212 111.837 76.0323 111.379 75.4091 111.024C73.9524 110.188 73.2004 109.741 73.1531 109.683L73.1373 109.667C72.9243 109.462 72.7823 109.17 72.7665 108.918C72.522 104.532 72.522 96.4779 72.5457 92.0683C72.5457 91.9184 72.5851 91.808 72.6719 91.737C72.7113 91.6976 72.7508 91.6818 72.806 91.666C72.8612 91.6502 72.8928 91.6502 72.9637 91.666C72.9637 91.666 72.9716 91.666 72.9795 91.666C73.0216 91.666 73.5869 91.9842 74.6755 92.6205C75.346 93.007 76.3005 93.5592 77.6415 94.3402C77.9334 94.5058 78.1701 94.9239 78.1701 95.2631C78.1148 106.496 78.3042 110.322 78.3673 111.576C78.3936 112.071 78.3699 112.352 78.2963 112.42C78.2568 112.46 78.2174 112.475 78.1622 112.491C78.1385 112.491 78.1148 112.499 78.0991 112.499V112.515ZM72.8849 91.7607C72.8849 91.7607 72.8533 91.7607 72.8296 91.7686C72.7902 91.7764 72.7744 91.7843 72.7429 91.8159C72.6798 91.8711 72.6482 91.9579 72.6482 92.0762C72.6324 95.626 72.6167 104.374 72.8691 108.918C72.8849 109.178 73.0505 109.446 73.2083 109.604L73.2241 109.62C73.2951 109.691 73.3108 109.699 75.4644 110.945C76.0796 111.3 76.8764 111.758 77.9019 112.349C77.9571 112.381 77.9886 112.397 78.0438 112.404C78.0991 112.42 78.1148 112.42 78.1543 112.404C78.1937 112.397 78.2095 112.389 78.2332 112.365C78.291 112.312 78.3068 112.055 78.2805 111.592C78.2174 110.33 78.0281 106.504 78.0833 95.271C78.0833 94.9633 77.8703 94.5847 77.6021 94.4348C76.2532 93.6539 75.3066 93.1096 74.6361 92.7152C73.1057 91.8317 73.0111 91.7764 72.9716 91.7686C72.9716 91.7686 72.9559 91.7686 72.948 91.7686C72.9243 91.7686 72.9006 91.7607 72.8849 91.7607Z" fill="#102844"/>
<path d="M79.5269 116.854L69.2168 110.898C68.9091 110.566 68.7119 109.091 68.5778 107.017C69.7216 107.679 70.8654 108.342 72.0093 108.997C72.0566 109.715 72.1118 110.369 72.1749 110.929C72.2222 111.363 72.3642 112.507 72.6245 112.854C74.9201 114.179 77.2077 115.505 79.5032 116.822C79.5032 116.83 79.519 116.838 79.5269 116.854Z" fill="#102844"/>
<path d="M143.699 99.5622C143.549 99.4834 143.383 99.436 143.194 99.4045C142.721 99.5465 142.089 99.791 141.316 100.146C139.557 100.951 137.025 102.299 133.72 104.216C128.947 106.969 125.784 109.02 124.246 110.354L70.2896 79.2024C71.8278 77.8693 74.9911 75.8183 79.7714 73.0574C83.0609 71.1563 85.5851 69.8074 87.3364 69.0028C88.1252 68.6478 88.7641 68.3953 89.2453 68.2534L89.7896 68.4427C107.759 78.8159 125.737 89.1969 143.707 99.5701L143.699 99.5622Z" fill="#E6E0DE"/>
<path d="M112.484 123.125C112.5 125.791 112.548 129.301 112.697 131.952C112.713 132.275 112.966 132.654 113.242 132.812C118.132 135.636 117.817 135.47 117.935 135.486C117.975 135.486 118.03 135.486 118.061 135.486C118.093 135.478 118.132 135.454 118.156 135.423C118.369 135.178 118.014 135.588 118.006 122.367C118.006 121.729 118.006 118.952 118.006 118.305C118.006 118.037 117.856 117.729 117.659 117.54C117.533 117.414 117.864 117.634 112.989 114.818C112.721 114.661 112.484 114.779 112.477 115.11C112.477 115.891 112.477 122.139 112.484 123.125ZM112.003 113.193C113.526 114.077 115.443 115.181 117.848 116.57C118.409 116.893 118.85 117.69 118.85 118.329C118.85 118.628 118.835 130.461 119.016 134.571C119.024 134.855 119.055 135.462 119.103 136.188C119.197 137.663 119.379 139.596 119.726 140.037C117.43 138.712 115.143 137.387 112.847 136.07C112.169 135.194 112.066 128.528 112.043 127.471C111.995 125.302 111.987 113.493 111.987 113.217L112.003 113.185V113.193Z" fill="#95AAF4"/>
<path d="M119.694 140.085L112.808 136.109C112.374 135.541 112.106 132.709 111.995 127.676V127.479C111.94 125.207 111.94 113.288 111.94 113.225V113.209L111.987 113.122L117.872 116.522C118.44 116.853 118.898 117.658 118.898 118.329C118.898 118.439 118.882 130.429 119.063 134.563C119.079 134.934 119.103 135.509 119.15 136.18C119.292 138.349 119.497 139.667 119.757 140.006L119.694 140.077V140.085ZM112.879 136.038L119.592 139.911C119.363 139.406 119.182 138.16 119.055 136.196C119.016 135.517 118.984 134.949 118.969 134.579C118.787 130.445 118.803 118.447 118.803 118.336C118.803 117.698 118.369 116.924 117.825 116.617L112.035 113.272C112.035 114.029 112.035 125.286 112.09 127.479V127.676C112.224 133.877 112.587 135.651 112.879 136.038ZM117.975 135.533C117.975 135.533 117.943 135.533 117.927 135.533H117.912C117.859 135.533 117.131 135.126 115.727 134.31C115.095 133.948 114.275 133.474 113.21 132.859C112.91 132.685 112.666 132.291 112.642 131.96C112.524 129.846 112.453 126.951 112.429 123.133C112.429 122.083 112.413 115.867 112.421 115.11C112.421 114.937 112.484 114.802 112.595 114.739C112.705 114.676 112.855 114.692 113.005 114.771C114.764 115.789 115.853 116.412 116.515 116.798C117.241 117.214 117.625 117.442 117.667 117.485L117.683 117.5C117.904 117.705 118.046 118.029 118.046 118.297C118.046 118.936 118.046 121.681 118.046 122.36C118.046 130.65 118.196 133.577 118.243 134.673C118.264 135.12 118.246 135.378 118.188 135.446C118.188 135.446 118.109 135.509 118.069 135.525C118.046 135.533 118.006 135.541 117.975 135.541V135.533ZM112.761 114.787C112.721 114.787 112.682 114.795 112.65 114.81C112.571 114.858 112.524 114.96 112.524 115.102C112.524 115.852 112.524 122.068 112.532 123.117C112.555 126.935 112.626 129.822 112.745 131.944C112.761 132.244 112.997 132.606 113.265 132.764C114.33 133.38 115.151 133.853 115.782 134.216C117.754 135.352 117.872 135.423 117.927 135.431C117.927 135.431 117.943 135.431 117.951 135.431C117.983 135.431 118.03 135.431 118.054 135.431C118.077 135.423 118.109 135.399 118.132 135.383C118.175 135.331 118.185 135.097 118.164 134.681C118.109 133.577 117.967 130.658 117.967 122.36C117.967 121.681 117.967 118.944 117.967 118.297C117.967 118.052 117.833 117.761 117.636 117.571L117.62 117.556C117.565 117.5 117.557 117.5 116.492 116.885C115.821 116.498 114.74 115.875 112.981 114.858C112.91 114.818 112.839 114.795 112.776 114.795L112.761 114.787Z" fill="#102844"/>
<path d="M106.158 128.173C106.174 128.426 106.331 128.71 106.513 128.883C106.639 129.009 106.331 128.812 111.214 131.636C111.49 131.794 111.703 131.684 111.688 131.36C111.538 128.725 111.49 125.168 111.475 122.533C111.475 121.539 111.459 115.292 111.467 114.519C111.467 114.187 111.238 113.801 110.962 113.635C106.008 110.764 106.402 110.985 106.292 110.969C106.229 110.953 106.205 110.953 106.158 110.969C106.111 110.977 106.087 110.992 106.048 111.024C105.977 111.087 105.937 111.19 105.937 111.324C105.913 115.781 105.913 123.843 106.158 128.173ZM105.093 110.393C105.093 109.785 105.503 109.517 106.008 109.746C106.079 109.778 105.59 109.494 112.003 113.201L111.987 113.233C111.987 113.501 111.987 125.318 112.043 127.487C112.066 128.544 112.169 135.21 112.847 136.085C110.552 134.76 108.264 133.435 105.969 132.117C105.708 131.778 105.566 130.634 105.519 130.201C105.456 129.64 105.401 128.986 105.353 128.268C105.172 125.365 105.125 121.484 105.109 119.188C105.101 117.69 105.101 110.945 105.109 110.409L105.093 110.393Z" fill="#95AAF4"/>
<path d="M112.824 136.117C110.528 134.792 108.24 133.466 105.945 132.149L105.929 132.133C105.748 131.897 105.59 131.242 105.464 130.193C105.401 129.656 105.345 129.002 105.298 128.26C105.117 125.452 105.069 121.728 105.054 119.173C105.046 117.69 105.046 110.914 105.054 110.393C105.054 110.077 105.164 109.833 105.361 109.707C105.543 109.588 105.779 109.588 106.04 109.707C106.04 109.707 108.038 110.858 112.035 113.162L112.074 113.185L112.035 113.248C112.035 113.674 112.035 125.255 112.09 127.487V127.684C112.224 133.924 112.595 135.683 112.887 136.054L112.824 136.125V136.117ZM106 132.07C108.24 133.364 110.481 134.657 112.713 135.951C112.335 135.123 112.09 132.346 111.995 127.684V127.487C111.94 125.215 111.94 113.296 111.94 113.233V113.217C106.458 110.046 106.04 109.809 106.008 109.793C106.008 109.793 106.008 109.793 105.992 109.793C105.771 109.691 105.558 109.691 105.409 109.793C105.243 109.904 105.148 110.117 105.148 110.401C105.148 110.921 105.148 117.698 105.148 119.173C105.164 121.728 105.211 125.452 105.393 128.252C105.44 128.994 105.495 129.64 105.558 130.177C105.708 131.447 105.874 131.904 105.992 132.07H106ZM111.443 131.762C111.364 131.762 111.277 131.739 111.191 131.684C110.094 131.045 109.258 130.563 108.619 130.201C107.257 129.412 106.55 128.994 106.497 128.946L106.481 128.931C106.268 128.725 106.126 128.434 106.111 128.189C105.858 123.645 105.874 114.889 105.89 111.339C105.89 111.19 105.929 111.079 106.016 111.008C106.055 110.969 106.095 110.953 106.15 110.937C106.213 110.921 106.245 110.921 106.308 110.937C106.308 110.937 106.308 110.937 106.316 110.937C106.358 110.937 107.304 111.474 109.156 112.546L110.986 113.611C111.285 113.785 111.514 114.187 111.514 114.534C111.514 115.299 111.514 121.523 111.522 122.549C111.546 126.343 111.617 129.309 111.735 131.376C111.743 131.542 111.696 131.668 111.593 131.731C111.546 131.755 111.498 131.77 111.443 131.77V131.762ZM106.205 128.173C106.221 128.426 106.387 128.702 106.544 128.852L106.56 128.867C106.623 128.938 106.647 128.946 108.659 130.106C109.298 130.477 110.134 130.958 111.23 131.589C111.348 131.66 111.459 131.676 111.538 131.628C111.609 131.589 111.64 131.494 111.632 131.36C111.514 129.293 111.443 126.319 111.419 122.533C111.419 121.5 111.404 115.284 111.412 114.511C111.412 114.203 111.199 113.824 110.93 113.674L109.1 112.61C106.552 111.134 106.339 111.016 106.3 111.008C106.3 111.008 106.284 111.008 106.276 111.008C106.221 110.992 106.205 110.992 106.158 111.008C106.119 111.016 106.095 111.024 106.071 111.056C106.008 111.111 105.977 111.198 105.977 111.316C105.961 114.866 105.945 123.614 106.197 128.157L106.205 128.173Z" fill="#102844"/>
<path d="M79.1481 103.877C79.1639 106.528 79.2113 110.046 79.3611 112.704C79.3769 113.028 79.6293 113.406 79.9054 113.564C84.7883 116.38 84.4807 116.222 84.599 116.238C84.6779 116.246 84.7647 116.238 84.8199 116.167C85.0329 115.931 84.6779 116.333 84.67 103.112C84.67 102.473 84.67 99.6963 84.67 99.0495C84.67 98.7734 84.5201 98.4736 84.3229 98.2843C84.1967 98.1581 84.5201 98.3711 79.653 95.5628C79.3769 95.405 79.1482 95.5313 79.1403 95.8547C79.1403 96.6356 79.1403 102.883 79.1481 103.869V103.877ZM78.667 93.9457C80.1894 94.8292 82.1063 95.9336 84.5122 97.3219C85.0802 97.6453 85.5141 98.4421 85.5141 99.081C85.5141 99.3808 85.4983 111.213 85.6797 115.323C85.6876 115.607 85.7192 116.222 85.7665 116.94C85.8611 118.415 86.0426 120.348 86.3897 120.79C84.0941 119.465 81.8065 118.139 79.511 116.822C78.8405 115.946 78.7301 109.304 78.7064 108.224C78.6591 106.054 78.6512 94.2455 78.6512 93.9694L78.667 93.9378V93.9457Z" fill="#95AAF4"/>
<path d="M86.3581 120.837L79.4716 116.861C78.9352 116.159 78.7301 111.876 78.6591 108.413V108.232C78.6118 106.149 78.596 94.4505 78.6039 93.9772V93.9615L78.6512 93.8747L78.6906 93.8984C80.2131 94.7819 82.13 95.8862 84.5359 97.2746C85.1039 97.6059 85.5614 98.4105 85.5614 99.081C85.5614 99.1914 85.5456 111.182 85.7271 115.315C85.7349 115.552 85.7665 116.183 85.8138 116.932C85.9558 119.094 86.1609 120.419 86.4212 120.758L86.3581 120.829V120.837ZM79.5347 116.79L86.2477 120.664C86.0189 120.159 85.8375 118.904 85.7113 116.948C85.6639 116.199 85.6403 115.568 85.6245 115.331C85.4431 111.198 85.4588 99.1993 85.4588 99.0889C85.4588 98.4578 85.025 97.6848 84.4807 97.3692C82.1063 95.9967 80.2052 94.9002 78.6827 94.0246C78.6827 94.8923 78.6906 106.188 78.738 108.239V108.421C78.8721 114.629 79.2349 116.404 79.5268 116.798L79.5347 116.79ZM84.6385 116.286C84.6385 116.286 84.6069 116.286 84.5832 116.286H84.5675C84.5149 116.28 83.8233 115.891 82.4928 115.118C81.846 114.747 80.994 114.25 79.866 113.603C79.5662 113.43 79.3217 113.036 79.298 112.704C79.1797 110.606 79.1087 107.632 79.0851 103.877C79.0851 102.828 79.0693 96.612 79.0772 95.8547C79.0772 95.6811 79.1403 95.547 79.2507 95.4839C79.3611 95.4208 79.5031 95.4366 79.653 95.5234C81.42 96.5489 82.5007 97.1641 83.1712 97.5507C83.8917 97.9661 84.273 98.1949 84.315 98.237L84.3308 98.2527C84.5517 98.4578 84.6937 98.7812 84.6937 99.0495C84.6937 99.6884 84.6937 102.434 84.6937 103.112C84.6937 111.403 84.8436 114.321 84.8909 115.426C84.9119 115.873 84.8935 116.13 84.8357 116.199C84.7883 116.254 84.7095 116.286 84.6227 116.286H84.6385ZM79.4243 95.5391C79.3848 95.5391 79.3454 95.547 79.3138 95.5628C79.2349 95.6101 79.1876 95.7127 79.1876 95.8547C79.1876 96.6041 79.1876 102.82 79.1955 103.869C79.2192 107.624 79.2902 110.598 79.4085 112.696C79.4243 112.996 79.6609 113.359 79.9291 113.517C81.0571 114.171 81.9091 114.661 82.5559 115.031C84.4255 116.112 84.5359 116.175 84.5911 116.183H84.6069C84.6463 116.183 84.7331 116.183 84.7804 116.128C84.8225 116.08 84.833 115.844 84.812 115.418C84.7568 114.313 84.6148 111.387 84.6148 103.096C84.6148 102.418 84.6148 99.6805 84.6148 99.0337C84.6148 98.7891 84.4807 98.4973 84.2835 98.308L84.2677 98.2922C84.2125 98.237 84.2046 98.237 83.1397 97.6217C82.4692 97.2351 81.3885 96.612 79.6215 95.5944C79.5505 95.5549 79.4795 95.5312 79.4164 95.5312L79.4243 95.5391Z" fill="#102844"/>
<path d="M72.8139 108.926C72.8297 109.178 72.9874 109.462 73.1689 109.643C73.2951 109.77 72.9953 109.58 77.8703 112.396C77.9255 112.428 77.965 112.444 78.0202 112.46C78.0754 112.475 78.107 112.475 78.1543 112.46C78.2016 112.452 78.2253 112.436 78.2569 112.404C78.5329 112.144 78.036 112.712 78.1228 95.2709C78.1228 94.9396 77.894 94.5451 77.6179 94.3874C72.6877 91.5397 73.0663 91.7448 72.948 91.7211C72.8849 91.7053 72.8612 91.7053 72.8139 91.7211C72.7666 91.729 72.7429 91.7448 72.7034 91.7763C72.6325 91.8394 72.593 91.942 72.593 92.0761C72.5693 96.533 72.5693 104.595 72.8139 108.926ZM72.2538 90.4195C72.3721 90.4038 72.522 90.4195 72.6798 90.4905C72.7429 90.5221 72.2617 90.2381 78.6749 93.9456L78.6592 93.9772C78.6592 94.2454 78.6592 106.062 78.7144 108.231C78.738 109.304 78.8406 115.954 79.519 116.83C77.2235 115.504 74.9359 114.179 72.6403 112.862C72.38 112.523 72.238 111.371 72.1907 110.937C72.1276 110.377 72.0724 109.722 72.0251 109.004C71.8357 106.102 71.7963 102.205 71.7805 99.9171C71.7726 98.4183 71.7726 91.6738 71.7805 91.1453C71.7805 91.0112 71.7963 90.8928 71.8357 90.7903C71.8752 90.6877 71.9462 90.5931 72.0093 90.5379C72.0724 90.4826 72.1828 90.4353 72.2696 90.4274L72.2538 90.4195Z" fill="#95AAF4"/>
<path d="M79.4795 116.869C77.184 115.544 74.8964 114.219 72.6009 112.901L72.5851 112.886C72.3958 112.641 72.2459 111.986 72.1276 110.937C72.0645 110.409 72.0093 109.762 71.9619 109.005C71.7805 106.173 71.7332 102.465 71.7174 99.9172C71.7095 98.4421 71.7095 91.666 71.7174 91.1375C71.7174 90.9876 71.7411 90.8693 71.7805 90.7588C71.8278 90.6484 71.8988 90.5459 71.9698 90.4828C72.0408 90.4275 72.1592 90.3723 72.2538 90.3565C72.3879 90.3408 72.5457 90.3644 72.7034 90.4354C72.7034 90.4354 74.7018 91.5871 78.6986 93.8905L78.738 93.9142L78.6986 93.9773C78.6986 94.6163 78.7065 106.149 78.7538 108.216V108.397C78.8879 114.645 79.2587 116.404 79.5505 116.783L79.4874 116.854L79.4795 116.869ZM72.6561 112.823C74.8964 114.116 77.1367 115.41 79.3691 116.704C78.8958 115.662 78.7144 111.687 78.6513 108.421V108.239C78.6039 106.157 78.5882 94.4585 78.5961 93.9852V93.9694C73.1925 90.8456 72.6956 90.5616 72.664 90.5459C72.664 90.5459 72.664 90.5459 72.6482 90.5459C72.5141 90.4828 72.3721 90.4591 72.2538 90.4749C72.1749 90.4828 72.0803 90.5301 72.0172 90.5774C71.9541 90.6326 71.8909 90.7194 71.8515 90.8141C71.8121 90.9087 71.7963 91.0113 71.7963 91.1533C71.7963 91.6739 71.7963 98.45 71.7963 99.9251C71.8121 102.473 71.8594 106.181 72.0408 109.005C72.0882 109.754 72.1434 110.409 72.2065 110.929C72.3485 112.192 72.522 112.657 72.6403 112.823H72.6561ZM78.0991 112.515C78.0991 112.515 78.0518 112.515 78.0123 112.499C77.9492 112.483 77.9098 112.468 77.8467 112.428C76.8212 111.837 76.0323 111.379 75.4092 111.024C73.9524 110.188 73.2004 109.741 73.1531 109.683L73.1373 109.667C72.9243 109.462 72.7823 109.17 72.7666 108.918C72.522 104.532 72.522 96.4779 72.5457 92.0683C72.5457 91.9184 72.5851 91.808 72.6719 91.737C72.7113 91.6976 72.7508 91.6818 72.806 91.666C72.8612 91.6502 72.8928 91.6502 72.9638 91.666C72.9638 91.666 72.9717 91.666 72.9795 91.666C73.0216 91.666 73.5869 91.9842 74.6755 92.6205C75.346 93.007 76.3005 93.5592 77.6416 94.3402C77.9334 94.5058 78.1701 94.9239 78.1701 95.2631C78.1149 106.496 78.3042 110.322 78.3673 111.576C78.3936 112.071 78.3699 112.352 78.2963 112.42C78.2569 112.46 78.2174 112.475 78.1622 112.491C78.1385 112.491 78.1149 112.499 78.0991 112.499V112.515ZM72.8612 108.918C72.877 109.178 73.0427 109.446 73.2004 109.604L73.2162 109.62C73.2872 109.691 73.303 109.699 75.4565 110.945C76.0718 111.3 76.8685 111.758 77.894 112.349C77.9492 112.381 77.9808 112.397 78.036 112.404C78.0912 112.42 78.107 112.42 78.1464 112.404C78.1859 112.397 78.2016 112.389 78.2253 112.365C78.2831 112.312 78.2989 112.055 78.2726 111.592C78.2095 110.33 78.0202 106.504 78.0754 95.271C78.0754 94.9633 77.8624 94.5847 77.5942 94.4348C76.2453 93.6539 75.2987 93.1096 74.6282 92.7152C73.0979 91.8317 73.0032 91.7764 72.9638 91.7686C72.9638 91.7686 72.948 91.7686 72.9401 91.7686C72.8849 91.7607 72.8691 91.7607 72.8218 91.7686C72.7823 91.7764 72.7666 91.7843 72.735 91.8159C72.6719 91.8711 72.6403 91.9579 72.6403 92.0762C72.6246 95.626 72.6088 104.374 72.8612 108.918Z" fill="#102844"/>
<path d="M143.699 99.5622C143.549 99.4834 143.383 99.436 143.194 99.4045C142.72 99.5465 142.089 99.791 141.316 100.146L87.3284 69.0028C88.1173 68.6478 88.7562 68.3953 89.2374 68.2534L89.7817 68.4427C107.751 78.8159 125.729 89.1969 143.699 99.5701V99.5622Z" fill="#D7CDCA"/>
<path d="M108.201 97.4876C107.799 97.7164 107.27 97.7953 106.797 97.7558C106.118 97.7006 105.59 97.4403 104.998 97.1011L93.3472 90.3723C92.9606 90.1435 92.582 89.9227 92.1955 89.6387C91.7774 89.3232 91.0911 88.7236 91.2094 88.2109C91.2489 88.0452 91.3514 87.9269 91.5013 87.848C92.7319 87.8007 94.2859 87.8796 95.3587 88.5028L105.637 94.4348C106.718 95.058 107.601 96.4069 108.209 97.4955L108.201 97.4876Z" fill="#6687FC"/>
<path d="M105.038 80.362C106.332 80.3462 107.791 80.4566 108.919 81.0956C112.342 83.0756 115.766 85.0556 119.197 87.0355C120.026 87.5167 120.696 88.3292 121.225 89.126C121.398 89.6781 120.87 90.1751 120.87 90.1751C120.262 89.0865 119.379 87.7376 118.298 87.1144L108.02 81.1824C106.955 80.5671 105.393 80.4882 104.17 80.5355C104.415 80.3935 104.738 80.362 105.038 80.362Z" fill="#95AAF4"/>
<path d="M91.5014 87.848L104.17 80.5355C105.401 80.4882 106.955 80.5671 108.02 81.1823L118.298 87.1144C119.371 87.7376 120.262 89.0786 120.87 90.1751L108.201 97.4876C107.602 96.399 106.71 95.0501 105.629 94.4269L95.3509 88.4949C94.286 87.8796 92.732 87.8007 91.4935 87.8401L91.5014 87.848Z" fill="#95AAF4"/>
<path d="M50.6713 64.2618C50.269 64.4906 49.7405 64.5695 49.2672 64.53C48.5888 64.4748 48.0602 64.2145 47.4686 63.8753L35.8175 57.1465C35.431 56.9178 35.0523 56.6969 34.6658 56.4129C34.2477 56.0974 33.5614 55.4979 33.6798 54.9851C33.7192 54.8195 33.8218 54.7012 33.9716 54.6223C35.2022 54.5749 36.7562 54.6538 37.829 55.277L48.1076 61.209C49.1883 61.8322 50.0718 63.1811 50.6792 64.2697L50.6713 64.2618Z" fill="#6687FC"/>
<path d="M47.5081 47.1362C48.8018 47.1204 50.2611 47.2308 51.3892 47.8698C54.8127 49.8498 58.2363 51.8297 61.6677 53.8097C62.496 54.2909 63.1665 55.1034 63.695 55.9001C63.8685 56.4523 63.34 56.9493 63.34 56.9493C62.7326 55.8607 61.8491 54.5118 60.7684 53.8886L50.4899 47.9565C49.425 47.3413 47.8631 47.2624 46.6404 47.3097C46.8849 47.1677 47.2083 47.1362 47.5081 47.1362Z" fill="#95AAF4"/>
<path d="M33.9794 54.6222L46.6481 47.3097C47.8787 47.2624 49.4327 47.3413 50.4977 47.9566L60.7762 53.8886C61.849 54.5118 62.7404 55.8528 63.3478 56.9493L50.6791 64.2618C50.0796 63.1732 49.1882 61.8243 48.1075 61.2011L37.829 55.2691C36.764 54.6538 35.21 54.5749 33.9716 54.6144L33.9794 54.6222Z" fill="#95AAF4"/>
<path d="M164.066 113.982C165.1 113.454 166.149 113.398 167.19 113.998C170.614 115.978 174.045 117.95 177.469 119.93C178.415 120.49 179.575 121.713 180.324 122.549C180.324 122.557 180.34 122.565 180.348 122.573C180.529 122.778 180.695 123.03 180.719 123.275C180.742 123.511 180.624 123.701 180.419 123.811C179.528 122.754 177.761 120.703 176.57 120.009L166.291 114.077C165.557 113.651 164.816 113.611 164.066 113.974V113.982Z" fill="#95AAF4"/>
<path d="M151.24 121.373C155.444 118.944 159.657 116.514 163.869 114.085C163.901 114.069 163.924 114.053 163.956 114.037C163.988 114.022 164.011 114.006 164.043 113.99C164.043 113.99 164.059 113.99 164.066 113.982C164.816 113.619 165.557 113.659 166.291 114.085L176.569 120.017C177.761 120.703 179.535 122.754 180.419 123.819L167.758 131.131C166.867 130.074 165.092 128.015 163.901 127.329L153.622 121.397C152.826 120.94 152.029 120.932 151.232 121.381L151.24 121.373Z" fill="#95AAF4"/>
<path d="M151.24 121.374C152.036 120.924 152.833 120.932 153.63 121.389L163.908 127.321C165.1 128.008 166.874 130.059 167.766 131.124C167.577 131.226 167.348 131.273 167.135 131.289C166.338 131.344 165.391 131.045 164.658 130.721C164.161 130.5 163.806 130.295 163.388 130.059L151.737 123.33C151.334 123.093 150.719 122.746 150.609 122.289C150.522 121.942 150.759 121.658 151.074 121.476C151.121 121.445 151.177 121.413 151.224 121.389C151.232 121.389 151.248 121.374 151.256 121.374H151.24Z" fill="#6687FC"/>
<path d="M122.432 90.7273L121.319 91.3741L105.984 87.6824L107.097 87.0355L122.432 90.7273Z" fill="#102844"/>
<path d="M121.319 91.3741L121.461 92.021L106.126 88.3292L105.984 87.6824L121.319 91.3741Z" fill="#102844"/>
<path d="M121.264 89.6545C121.28 89.5125 121.264 89.3705 121.225 89.2206C121.177 89.0392 121.083 88.8656 120.972 88.7079L108.643 70.9669C108.698 70.8092 108.745 70.6514 108.801 70.5015L121.138 88.2503C121.225 88.3765 121.304 88.5106 121.351 88.6605C121.477 89.0313 121.446 89.3626 121.264 89.6623V89.6545Z" fill="#102844"/>
<path d="M120.42 92.2734C121.051 92.2734 121.627 92.0998 122.163 91.7922C122.629 91.524 123.039 91.1611 123.22 90.6563C123.173 90.8062 123.118 90.956 123.071 91.098V91.1217C123.071 91.1217 123.071 91.1217 123.063 91.1217C122.881 91.6265 122.471 91.9894 122.006 92.2576C121.461 92.5732 120.878 92.7309 120.262 92.7388C119.797 92.7388 119.371 92.6599 118.961 92.5258C118.543 92.3838 118.156 92.1787 117.785 91.9263L96.8812 77.9166C96.9364 77.7588 96.9917 77.6011 97.039 77.4512L117.943 91.4609C118.314 91.7054 118.7 91.9184 119.119 92.0604C119.529 92.2024 119.955 92.2813 120.42 92.2734Z" fill="#102844"/>
<path d="M114.575 70.6672L114.417 71.1326C112.114 70.541 110.899 70.3595 109.913 70.5331L109.652 70.1623C110.733 69.8468 111.932 69.9809 114.583 70.6672H114.575Z" fill="#102844"/>
<path d="M117.975 90.2934C118.874 90.7588 119.742 90.7509 120.57 90.2697C120.886 90.0883 121.114 89.8832 121.256 89.6544C121.438 89.3547 121.469 89.0234 121.343 88.6526C121.296 88.5106 121.217 88.3686 121.13 88.2424L108.793 70.4936C108.414 70.675 108.012 70.9117 107.531 71.1878C105.243 72.5051 98.0172 76.686 97.678 76.9068L97.9856 77.1119L117.975 90.2855V90.2934ZM96.4553 78.5161C96.3133 79.1156 96.337 79.9202 96.4711 81.1192L95.0196 80.9062C94.9171 79.9912 94.8145 78.8237 95.0433 77.9323C95.0591 77.8613 95.0827 77.7982 95.0985 77.7351C95.0985 77.7272 95.0985 77.7193 95.1064 77.7114C95.4771 76.6071 96.3606 76.0549 97.4413 75.4238C97.6386 75.3055 106.694 70.0755 106.899 69.9651C107.688 69.5154 108.406 69.1368 109.282 68.9554C110.339 68.7424 111.435 68.8765 112.5 69.0737C113.131 69.192 113.833 69.3577 114.654 69.5707L114.575 70.6671C111.924 69.9887 110.733 69.8468 109.645 70.1623L109.905 70.533L122.818 88.7394C122.992 88.9839 123.134 89.2521 123.22 89.5361C123.331 89.899 123.347 90.2697 123.22 90.6484C123.039 91.1532 122.629 91.5161 122.163 91.7843C121.627 92.0919 121.051 92.2576 120.42 92.2655C119.955 92.2655 119.529 92.1866 119.119 92.0525C118.7 91.9105 118.306 91.6975 117.943 91.453L97.039 77.4432C96.7551 77.743 96.5657 78.0743 96.4632 78.5082L96.4553 78.5161Z" fill="#425082"/>
<path d="M97.6859 76.9148C98.0172 76.686 105.251 72.5131 107.538 71.1957C108.02 70.9196 108.422 70.683 108.801 70.5015C108.745 70.6593 108.698 70.8171 108.643 70.9669C108.28 71.1405 107.893 71.3692 107.436 71.6374C105.243 72.8996 98.3169 76.899 97.9935 77.1199L97.6859 76.9148Z" fill="#102844"/>
<path d="M96.8733 77.9166C96.6998 78.098 96.5578 78.2952 96.4553 78.5161C96.5578 78.0744 96.7471 77.743 97.0311 77.4512C96.9759 77.6089 96.9286 77.7667 96.8733 77.9166Z" fill="#102844"/>
<path d="M96.471 81.1192L96.3133 81.5846L94.8618 81.3716L95.0196 80.9062L96.471 81.1192Z" fill="#102844"/>
<path d="M94.8619 81.3716C94.7514 80.3935 94.6331 79.1077 94.9486 78.1769C94.996 78.027 95.0512 77.8771 95.0985 77.7351C95.0749 77.7982 95.0591 77.8692 95.0433 77.9323C94.8145 78.8237 94.9171 79.9833 95.0196 80.9062L94.8619 81.3716Z" fill="#102844"/>
<path style="mix-blend-mode:screen" opacity="0.6" d="M202.569 159.806C202.569 159.908 202.522 160.011 202.451 160.09C202.42 160.121 202.451 160.113 202.262 160.232C201.82 160.5 200.227 161.415 194.121 164.941C195.147 159.364 195.833 152.951 196.282 147.168C197.868 146.253 199.454 145.33 201.039 144.415C201.252 144.289 201.37 144.108 201.347 143.918C202.009 149.164 202.569 154.718 202.577 159.798L202.569 159.806Z" fill="url(#paint0_linear_144_2283)"/>
<path d="M188.71 168.12V168.041C188.694 165.193 188.142 162.133 187.716 160.074C187.29 157.999 186.73 155.641 186.043 153.061L186.028 152.998H186.075C189.491 151.034 192.914 149.062 196.251 147.129C197.836 146.214 199.422 145.299 201 144.376H201.008C201.205 144.258 201.315 144.092 201.292 143.926V143.871H201.378V143.911C201.954 148.423 202.609 154.307 202.609 159.798V159.845C202.593 159.94 202.554 160.034 202.475 160.121C202.475 160.121 202.475 160.129 202.467 160.137C202.451 160.161 202.427 160.184 202.278 160.279C201.938 160.484 200.944 161.06 197.647 162.961L194.137 164.988C193.269 165.493 192.307 166.045 191.242 166.661L188.71 168.12ZM186.146 153.069C186.832 155.641 187.392 157.991 187.81 160.05C188.228 162.093 188.781 165.122 188.804 167.954L191.194 166.574C192.259 165.958 193.214 165.406 194.089 164.901L197.6 162.874C200.897 160.973 201.891 160.405 202.222 160.192C202.372 160.105 202.38 160.09 202.388 160.074C202.388 160.074 202.396 160.058 202.404 160.05C202.475 159.971 202.514 159.884 202.514 159.798V159.75C202.514 154.386 201.883 148.651 201.323 144.195C201.268 144.289 201.181 144.376 201.055 144.447H201.047C199.461 145.37 197.876 146.285 196.29 147.208C192.961 149.133 189.546 151.105 186.138 153.061L186.146 153.069Z" fill="#091B32"/>
<defs>
<linearGradient id="paint0_linear_144_2283" x1="196.985" y1="144.478" x2="198.491" y2="162.377" gradientUnits="userSpaceOnUse">
<stop stop-color="white"/>
<stop offset="1"/>
</linearGradient>
</defs>
</svg>
